<ttFont>
    <TTGlyph name="A" xMin="20" yMin="0" xMax="432" yMax="720">
      <contour>
        <pt x="399" y="0" on="1"/>
        <pt x="348" y="0" on="0"/>
        <pt x="327" y="16" on="0"/>
        <pt x="318" y="61" on="1"/>
        <pt x="284" y="230" on="1"/>
        <pt x="158" y="230" on="1"/>
        <pt x="117" y="0" on="1"/>
        <pt x="94" y="0" on="1"/>
        <pt x="46" y="0" on="0"/>
        <pt x="20" y="11" on="0"/>
        <pt x="20" y="52" on="0"/>
        <pt x="172" y="720" on="1"/>
        <pt x="268" y="720" on="1"/>
        <pt x="432" y="0" on="1"/>
      </contour>
      <contour>
        <pt x="215" y="538" on="1"/>
        <pt x="178" y="343" on="1"/>
        <pt x="170" y="326" on="1"/>
        <pt x="273" y="326" on="1"/>
        <pt x="272" y="327" on="0"/>
        <pt x="264" y="344" on="0"/>
        <pt x="264" y="345" on="1"/>
        <pt x="225" y="538" on="1"/>
      </contour>
    </TTGlyph>
    <TTGlyph name="AE" xMin="28" yMin="0" xMax="598" yMax="720">
      <contour>
        <pt x="279" y="0" on="1"/>
        <pt x="279" y="230" on="1"/>
        <pt x="173" y="230" on="1"/>
        <pt x="125" y="0" on="1"/>
        <pt x="101" y="0" on="1"/>
        <pt x="54" y="0" on="0"/>
        <pt x="28" y="11" on="0"/>
        <pt x="28" y="52" on="0"/>
        <pt x="33" y="69" on="1"/>
        <pt x="180" y="720" on="1"/>
        <pt x="589" y="720" on="1"/>
        <pt x="589" y="626" on="1"/>
        <pt x="378" y="626" on="1"/>
        <pt x="385" y="607" on="1"/>
        <pt x="385" y="456" on="1"/>
        <pt x="379" y="436" on="1"/>
        <pt x="575" y="436" on="1"/>
        <pt x="575" y="339" on="1"/>
        <pt x="378" y="339" on="1"/>
        <pt x="385" y="320" on="1"/>
        <pt x="385" y="120" on="1"/>
        <pt x="377" y="98" on="1"/>
        <pt x="598" y="98" on="1"/>
        <pt x="598" y="0" on="1"/>
      </contour>
      <contour>
        <pt x="279" y="325" on="1"/>
        <pt x="279" y="326" on="1"/>
      </contour>
      <contour>
        <pt x="196" y="321" on="1"/>
        <pt x="197" y="326" on="1"/>
        <pt x="196" y="324" on="0"/>
      </contour>
      <contour>
        <pt x="279" y="326" on="1"/>
        <pt x="279" y="626" on="1"/>
        <pt x="251" y="626" on="1"/>
        <pt x="197" y="326" on="1"/>
      </contour>
    </TTGlyph>
    <TTGlyph name="Aacute" xMin="20" yMin="0" xMax="432" yMax="927">
      <contour>
        <pt x="399" y="0" on="1"/>
        <pt x="348" y="0" on="0"/>
        <pt x="327" y="16" on="0"/>
        <pt x="318" y="61" on="1"/>
        <pt x="284" y="230" on="1"/>
        <pt x="158" y="230" on="1"/>
        <pt x="117" y="0" on="1"/>
        <pt x="94" y="0" on="1"/>
        <pt x="46" y="0" on="0"/>
        <pt x="20" y="11" on="0"/>
        <pt x="20" y="52" on="0"/>
        <pt x="172" y="720" on="1"/>
        <pt x="268" y="720" on="1"/>
        <pt x="432" y="0" on="1"/>
      </contour>
      <contour>
        <pt x="215" y="538" on="1"/>
        <pt x="178" y="343" on="1"/>
        <pt x="170" y="326" on="1"/>
        <pt x="273" y="326" on="1"/>
        <pt x="272" y="327" on="0"/>
        <pt x="264" y="344" on="0"/>
        <pt x="264" y="345" on="1"/>
        <pt x="225" y="538" on="1"/>
      </contour>
      <contour>
        <pt x="346" y="899" on="1"/>
        <pt x="365" y="881" on="1"/>
        <pt x="233" y="749" on="1"/>
        <pt x="177" y="807" on="1"/>
        <pt x="250" y="890" on="1"/>
        <pt x="276" y="916" on="0"/>
        <pt x="295" y="927" on="0"/>
        <pt x="318" y="927" on="0"/>
      </contour>
    </TTGlyph>
    <TTGlyph name="Acircumflex" xMin="20" yMin="0" xMax="432" yMax="927">
      <component glyphName="A" x="0" y="0" flags="0x1004"/>
      <component glyphName="circumflex" x="45" y="195" flags="0x1004"/>
    </TTGlyph>
    <TTGlyph name="Adieresis" xMin="20" yMin="0" xMax="432" yMax="903">
      <contour>
        <pt x="399" y="0" on="1"/>
        <pt x="348" y="0" on="0"/>
        <pt x="327" y="16" on="0"/>
        <pt x="318" y="61" on="1"/>
        <pt x="284" y="230" on="1"/>
        <pt x="158" y="230" on="1"/>
        <pt x="117" y="0" on="1"/>
        <pt x="94" y="0" on="1"/>
        <pt x="46" y="0" on="0"/>
        <pt x="20" y="11" on="0"/>
        <pt x="20" y="52" on="0"/>
        <pt x="172" y="720" on="1"/>
        <pt x="268" y="720" on="1"/>
        <pt x="432" y="0" on="1"/>
      </contour>
      <contour>
        <pt x="215" y="538" on="1"/>
        <pt x="178" y="343" on="1"/>
        <pt x="170" y="326" on="1"/>
        <pt x="273" y="326" on="1"/>
        <pt x="272" y="327" on="0"/>
        <pt x="264" y="344" on="0"/>
        <pt x="264" y="345" on="1"/>
        <pt x="225" y="538" on="1"/>
      </contour>
      <contour>
        <pt x="112" y="783" on="0"/>
        <pt x="75" y="820" on="0"/>
        <pt x="75" y="869" on="0"/>
        <pt x="111" y="903" on="0"/>
        <pt x="159" y="903" on="0"/>
        <pt x="195" y="869" on="0"/>
        <pt x="195" y="820" on="0"/>
        <pt x="159" y="783" on="0"/>
      </contour>
      <contour>
        <pt x="285" y="783" on="0"/>
        <pt x="248" y="820" on="0"/>
        <pt x="248" y="869" on="0"/>
        <pt x="284" y="903" on="0"/>
        <pt x="333" y="903" on="0"/>
        <pt x="369" y="869" on="0"/>
        <pt x="369" y="820" on="0"/>
        <pt x="333" y="783" on="0"/>
      </contour>
    </TTGlyph>
    <TTGlyph name="Agrave" xMin="20" yMin="0" xMax="432" yMax="927">
      <component glyphName="A" x="0" y="0" flags="0x1004"/>
      <component glyphName="grave" x="114" y="195" flags="0x1004"/>
    </TTGlyph>
    <TTGlyph name="Aring" xMin="20" yMin="0" xMax="432" yMax="923">
      <contour>
        <pt x="179" y="736" on="0"/>
        <pt x="122" y="792" on="0"/>
        <pt x="122" y="868" on="0"/>
        <pt x="179" y="923" on="0"/>
        <pt x="255" y="923" on="0"/>
        <pt x="311" y="868" on="0"/>
        <pt x="311" y="791" on="0"/>
        <pt x="255" y="736" on="0"/>
      </contour>
      <contour>
        <pt x="205" y="859" on="0"/>
        <pt x="186" y="841" on="0"/>
        <pt x="186" y="818" on="0"/>
        <pt x="206" y="798" on="0"/>
        <pt x="229" y="798" on="0"/>
        <pt x="249" y="818" on="0"/>
        <pt x="249" y="841" on="0"/>
        <pt x="229" y="859" on="0"/>
      </contour>
      <contour>
        <pt x="399" y="0" on="1"/>
        <pt x="348" y="0" on="0"/>
        <pt x="327" y="16" on="0"/>
        <pt x="318" y="61" on="1"/>
        <pt x="284" y="230" on="1"/>
        <pt x="158" y="230" on="1"/>
        <pt x="117" y="0" on="1"/>
        <pt x="94" y="0" on="1"/>
        <pt x="46" y="0" on="0"/>
        <pt x="20" y="11" on="0"/>
        <pt x="20" y="52" on="0"/>
        <pt x="172" y="720" on="1"/>
        <pt x="268" y="720" on="1"/>
        <pt x="432" y="0" on="1"/>
      </contour>
      <contour>
        <pt x="215" y="538" on="1"/>
        <pt x="178" y="343" on="1"/>
        <pt x="170" y="326" on="1"/>
        <pt x="273" y="326" on="1"/>
        <pt x="272" y="327" on="0"/>
        <pt x="264" y="344" on="0"/>
        <pt x="264" y="345" on="1"/>
        <pt x="225" y="538" on="1"/>
      </contour>
    </TTGlyph>
    <TTGlyph name="Atilde" xMin="20" yMin="0" xMax="432" yMax="899">
      <contour>
        <pt x="399" y="0" on="1"/>
        <pt x="348" y="0" on="0"/>
        <pt x="327" y="16" on="0"/>
        <pt x="318" y="61" on="1"/>
        <pt x="284" y="230" on="1"/>
        <pt x="158" y="230" on="1"/>
        <pt x="117" y="0" on="1"/>
        <pt x="94" y="0" on="1"/>
        <pt x="46" y="0" on="0"/>
        <pt x="20" y="11" on="0"/>
        <pt x="20" y="52" on="0"/>
        <pt x="172" y="720" on="1"/>
        <pt x="268" y="720" on="1"/>
        <pt x="432" y="0" on="1"/>
      </contour>
      <contour>
        <pt x="215" y="538" on="1"/>
        <pt x="178" y="343" on="1"/>
        <pt x="170" y="326" on="1"/>
        <pt x="273" y="326" on="1"/>
        <pt x="272" y="327" on="0"/>
        <pt x="264" y="344" on="0"/>
        <pt x="264" y="345" on="1"/>
        <pt x="225" y="538" on="1"/>
      </contour>
      <contour>
        <pt x="351" y="853" on="1"/>
        <pt x="351" y="818" on="0"/>
        <pt x="333" y="807" on="0"/>
        <pt x="253" y="807" on="0"/>
        <pt x="166" y="817" on="0"/>
        <pt x="120" y="817" on="0"/>
        <pt x="113" y="815" on="1"/>
        <pt x="80" y="817" on="1"/>
        <pt x="80" y="854" on="1"/>
        <pt x="80" y="888" on="0"/>
        <pt x="98" y="899" on="0"/>
        <pt x="176" y="899" on="0"/>
        <pt x="262" y="890" on="0"/>
        <pt x="312" y="890" on="0"/>
        <pt x="319" y="891" on="1"/>
        <pt x="351" y="890" on="1"/>
      </contour>
    </TTGlyph>
    <TTGlyph name="B" xMin="60" yMin="-7" xMax="413" yMax="732">
      <contour>
        <pt x="375" y="566" on="1"/>
        <pt x="375" y="526" on="1"/>
        <pt x="375" y="472" on="0"/>
        <pt x="365" y="421" on="0"/>
        <pt x="348" y="397" on="1"/>
        <pt x="384" y="366" on="0"/>
        <pt x="413" y="287" on="0"/>
        <pt x="413" y="204" on="1"/>
        <pt x="413" y="119" on="0"/>
        <pt x="402" y="81" on="0"/>
        <pt x="388" y="48" on="0"/>
        <pt x="369" y="31" on="0"/>
        <pt x="339" y="10" on="0"/>
        <pt x="320" y="5" on="1"/>
        <pt x="274" y="-7" on="0"/>
        <pt x="217" y="-7" on="1"/>
        <pt x="60" y="1" on="1"/>
        <pt x="60" y="721" on="1"/>
        <pt x="197" y="732" on="1"/>
        <pt x="287" y="732" on="0"/>
        <pt x="322" y="706" on="1"/>
        <pt x="336" y="696" on="0"/>
        <pt x="353" y="680" on="0"/>
        <pt x="365" y="647" on="0"/>
        <pt x="368" y="636" on="1"/>
        <pt x="375" y="616" on="0"/>
      </contour>
      <contour>
        <pt x="196" y="428" on="1"/>
        <pt x="256" y="428" on="0"/>
        <pt x="286" y="462" on="0"/>
        <pt x="286" y="594" on="0"/>
        <pt x="253" y="645" on="0"/>
        <pt x="196" y="645" on="1"/>
        <pt x="150" y="645" on="1"/>
        <pt x="157" y="624" on="1"/>
        <pt x="157" y="448" on="1"/>
        <pt x="148" y="428" on="1"/>
      </contour>
      <contour>
        <pt x="216" y="73" on="1"/>
        <pt x="287" y="73" on="0"/>
        <pt x="326" y="126" on="0"/>
        <pt x="326" y="235" on="0"/>
        <pt x="320" y="284" on="0"/>
        <pt x="310" y="308" on="1"/>
        <pt x="289" y="357" on="0"/>
        <pt x="216" y="357" on="1"/>
        <pt x="147" y="357" on="1"/>
        <pt x="156" y="336" on="1"/>
        <pt x="156" y="94" on="1"/>
        <pt x="147" y="73" on="1"/>
      </contour>
    </TTGlyph>
    <TTGlyph name="C" xMin="50" yMin="-7" xMax="372" yMax="732">
      <contour>
        <pt x="148" y="439" on="0"/>
        <pt x="148" y="293" on="0"/>
        <pt x="151" y="223" on="0"/>
        <pt x="165" y="134" on="0"/>
        <pt x="199" y="98" on="0"/>
        <pt x="257" y="98" on="0"/>
        <pt x="357" y="107" on="0"/>
        <pt x="372" y="108" on="1"/>
        <pt x="372" y="11" on="1"/>
        <pt x="363" y="10" on="0"/>
        <pt x="262" y="-7" on="0"/>
        <pt x="202" y="-7" on="0"/>
        <pt x="154" y="6" on="0"/>
        <pt x="118" y="25" on="0"/>
        <pt x="90" y="64" on="0"/>
        <pt x="72" y="96" on="0"/>
        <pt x="60" y="157" on="0"/>
        <pt x="54" y="197" on="0"/>
        <pt x="50" y="276" on="0"/>
        <pt x="50" y="298" on="1"/>
        <pt x="50" y="433" on="1"/>
        <pt x="50" y="505" on="0"/>
        <pt x="60" y="572" on="0"/>
        <pt x="72" y="632" on="0"/>
        <pt x="90" y="663" on="0"/>
        <pt x="118" y="701" on="0"/>
        <pt x="136" y="710" on="1"/>
        <pt x="180" y="732" on="0"/>
        <pt x="232" y="732" on="1"/>
        <pt x="371" y="700" on="1"/>
        <pt x="363" y="642" on="0"/>
        <pt x="341" y="628" on="1"/>
        <pt x="329" y="621" on="0"/>
        <pt x="285" y="621" on="0"/>
        <pt x="255" y="627" on="1"/>
        <pt x="227" y="634" on="1"/>
        <pt x="199" y="634" on="0"/>
        <pt x="165" y="598" on="0"/>
        <pt x="151" y="509" on="0"/>
      </contour>
    </TTGlyph>
    <TTGlyph name="Ccedilla" xMin="50" yMin="-175" xMax="372" yMax="732">
      <contour>
        <pt x="372" y="11" on="1"/>
        <pt x="271" y="-5" on="1"/>
        <pt x="271" y="-117" on="1"/>
        <pt x="271" y="-155" on="0"/>
        <pt x="252" y="-175" on="0"/>
        <pt x="214" y="-175" on="1"/>
        <pt x="181" y="-175" on="1"/>
        <pt x="132" y="-175" on="0"/>
        <pt x="116" y="-157" on="0"/>
        <pt x="116" y="-103" on="1"/>
        <pt x="199" y="-103" on="1"/>
        <pt x="199" y="-5" on="1"/>
        <pt x="143" y="2" on="0"/>
        <pt x="104" y="42" on="1"/>
        <pt x="80" y="68" on="0"/>
        <pt x="62" y="144" on="1"/>
        <pt x="50" y="192" on="0"/>
        <pt x="50" y="366" on="1"/>
        <pt x="50" y="433" on="1"/>
        <pt x="50" y="505" on="0"/>
        <pt x="60" y="572" on="0"/>
        <pt x="72" y="632" on="0"/>
        <pt x="90" y="663" on="0"/>
        <pt x="118" y="701" on="0"/>
        <pt x="136" y="710" on="1"/>
        <pt x="180" y="732" on="0"/>
        <pt x="232" y="732" on="1"/>
        <pt x="371" y="700" on="1"/>
        <pt x="363" y="642" on="0"/>
        <pt x="341" y="628" on="1"/>
        <pt x="329" y="621" on="0"/>
        <pt x="285" y="621" on="0"/>
        <pt x="255" y="627" on="1"/>
        <pt x="227" y="634" on="1"/>
        <pt x="199" y="634" on="0"/>
        <pt x="165" y="598" on="0"/>
        <pt x="151" y="509" on="0"/>
        <pt x="148" y="439" on="0"/>
        <pt x="148" y="293" on="0"/>
        <pt x="151" y="223" on="0"/>
        <pt x="165" y="134" on="0"/>
        <pt x="199" y="98" on="0"/>
        <pt x="257" y="98" on="0"/>
        <pt x="357" y="107" on="0"/>
        <pt x="372" y="108" on="1"/>
      </contour>
    </TTGlyph>
    <TTGlyph name="D" xMin="60" yMin="-7" xMax="430" yMax="732">
      <contour>
        <pt x="427" y="524" on="0"/>
        <pt x="430" y="447" on="0"/>
        <pt x="430" y="384" on="1"/>
        <pt x="430" y="298" on="1"/>
        <pt x="430" y="224" on="0"/>
        <pt x="420" y="157" on="0"/>
        <pt x="408" y="96" on="0"/>
        <pt x="390" y="64" on="0"/>
        <pt x="363" y="25" on="0"/>
        <pt x="346" y="16" on="1"/>
        <pt x="304" y="-7" on="0"/>
        <pt x="250" y="-7" on="1"/>
        <pt x="60" y="0" on="1"/>
        <pt x="60" y="722" on="1"/>
        <pt x="250" y="732" on="1"/>
        <pt x="302" y="732" on="0"/>
        <pt x="373" y="691" on="0"/>
        <pt x="409" y="639" on="0"/>
      </contour>
      <contour>
        <pt x="250" y="82" on="1"/>
        <pt x="283" y="82" on="0"/>
        <pt x="299" y="105" on="1"/>
        <pt x="308" y="118" on="0"/>
        <pt x="321" y="142" on="0"/>
        <pt x="328" y="190" on="0"/>
        <pt x="333" y="224" on="0"/>
        <pt x="335" y="289" on="0"/>
        <pt x="335" y="308" on="1"/>
        <pt x="335" y="423" on="1"/>
        <pt x="335" y="493" on="0"/>
        <pt x="328" y="538" on="0"/>
        <pt x="321" y="585" on="0"/>
        <pt x="308" y="608" on="0"/>
        <pt x="299" y="620" on="1"/>
        <pt x="283" y="643" on="0"/>
        <pt x="250" y="643" on="1"/>
        <pt x="147" y="643" on="1"/>
        <pt x="155" y="618" on="1"/>
        <pt x="155" y="107" on="1"/>
        <pt x="146" y="82" on="1"/>
      </contour>
    </TTGlyph>
    <TTGlyph name="E" xMin="60" yMin="0" xMax="374" yMax="720">
      <contour>
        <pt x="374" y="89" on="1"/>
        <pt x="374" y="0" on="1"/>
        <pt x="60" y="0" on="1"/>
        <pt x="60" y="720" on="1"/>
        <pt x="364" y="720" on="1"/>
        <pt x="364" y="635" on="1"/>
        <pt x="149" y="635" on="1"/>
        <pt x="158" y="610" on="1"/>
        <pt x="158" y="457" on="1"/>
        <pt x="149" y="432" on="1"/>
        <pt x="352" y="432" on="1"/>
        <pt x="352" y="343" on="1"/>
        <pt x="150" y="343" on="1"/>
        <pt x="158" y="320" on="1"/>
        <pt x="158" y="114" on="1"/>
        <pt x="149" y="89" on="1"/>
      </contour>
    </TTGlyph>
    <TTGlyph name="E_S" xMin="60" yMin="-7" xMax="727" yMax="732">
      <contour>
        <pt x="537" y="89" on="1"/>
        <pt x="585" y="89" on="0"/>
        <pt x="607" y="112" on="1"/>
        <pt x="623" y="129" on="0"/>
        <pt x="624" y="173" on="1"/>
        <pt x="625" y="186" on="0"/>
        <pt x="625" y="235" on="0"/>
        <pt x="591" y="287" on="0"/>
        <pt x="562" y="313" on="0"/>
        <pt x="486" y="379" on="0"/>
        <pt x="455" y="408" on="0"/>
        <pt x="427" y="439" on="1"/>
        <pt x="376" y="495" on="0"/>
        <pt x="376" y="556" on="1"/>
        <pt x="376" y="662" on="0"/>
        <pt x="398" y="686" on="1"/>
        <pt x="432" y="721" on="0"/>
        <pt x="510" y="732" on="0"/>
        <pt x="554" y="732" on="1"/>
        <pt x="690" y="703" on="1"/>
        <pt x="682" y="646" on="0"/>
        <pt x="667" y="636" on="1"/>
        <pt x="660" y="630" on="0"/>
        <pt x="625" y="630" on="0"/>
        <pt x="597" y="636" on="1"/>
        <pt x="559" y="643" on="1"/>
        <pt x="500" y="643" on="0"/>
        <pt x="486" y="619" on="1"/>
        <pt x="479" y="606" on="0"/>
        <pt x="476" y="584" on="0"/>
        <pt x="476" y="562" on="1"/>
        <pt x="476" y="521" on="0"/>
        <pt x="577" y="436" on="1"/>
        <pt x="625" y="398" on="0"/>
        <pt x="679" y="346" on="0"/>
        <pt x="727" y="272" on="0"/>
        <pt x="727" y="206" on="0"/>
        <pt x="726" y="171" on="0"/>
        <pt x="719" y="110" on="0"/>
        <pt x="705" y="76" on="0"/>
        <pt x="677" y="32" on="0"/>
        <pt x="657" y="21" on="1"/>
        <pt x="606" y="-7" on="0"/>
        <pt x="535" y="-7" on="1"/>
        <pt x="60" y="0" on="1"/>
        <pt x="60" y="720" on="1"/>
        <pt x="344" y="720" on="1"/>
        <pt x="344" y="635" on="1"/>
        <pt x="149" y="635" on="1"/>
        <pt x="158" y="610" on="1"/>
        <pt x="158" y="457" on="1"/>
        <pt x="149" y="432" on="1"/>
        <pt x="332" y="432" on="1"/>
        <pt x="332" y="343" on="1"/>
        <pt x="150" y="343" on="1"/>
        <pt x="158" y="320" on="1"/>
        <pt x="158" y="114" on="1"/>
        <pt x="149" y="89" on="1"/>
      </contour>
    </TTGlyph>
    <TTGlyph name="E_s" xMin="60" yMin="-7" xMax="649" yMax="720">
      <contour>
        <pt x="553" y="164" on="1"/>
        <pt x="553" y="182" on="0"/>
        <pt x="496" y="234" on="0"/>
        <pt x="429" y="284" on="0"/>
        <pt x="372" y="359" on="0"/>
        <pt x="372" y="425" on="0"/>
        <pt x="374" y="457" on="0"/>
        <pt x="389" y="504" on="0"/>
        <pt x="404" y="515" on="1"/>
        <pt x="442" y="544" on="0"/>
        <pt x="516" y="544" on="1"/>
        <pt x="633" y="520" on="1"/>
        <pt x="625" y="462" on="0"/>
        <pt x="610" y="449" on="0"/>
        <pt x="579" y="449" on="0"/>
        <pt x="558" y="452" on="1"/>
        <pt x="519" y="459" on="1"/>
        <pt x="478" y="459" on="0"/>
        <pt x="469" y="441" on="1"/>
        <pt x="462" y="427" on="0"/>
        <pt x="462" y="381" on="0"/>
        <pt x="520" y="329" on="0"/>
        <pt x="591" y="281" on="0"/>
        <pt x="649" y="210" on="0"/>
        <pt x="649" y="140" on="0"/>
        <pt x="647" y="104" on="0"/>
        <pt x="632" y="46" on="0"/>
        <pt x="604" y="16" on="0"/>
        <pt x="547" y="-7" on="0"/>
        <pt x="506" y="-7" on="1"/>
        <pt x="60" y="0" on="1"/>
        <pt x="60" y="720" on="1"/>
        <pt x="344" y="720" on="1"/>
        <pt x="344" y="635" on="1"/>
        <pt x="149" y="635" on="1"/>
        <pt x="158" y="610" on="1"/>
        <pt x="158" y="457" on="1"/>
        <pt x="149" y="432" on="1"/>
        <pt x="332" y="432" on="1"/>
        <pt x="332" y="343" on="1"/>
        <pt x="150" y="343" on="1"/>
        <pt x="158" y="320" on="1"/>
        <pt x="158" y="114" on="1"/>
        <pt x="149" y="89" on="1"/>
        <pt x="507" y="78" on="1"/>
        <pt x="531" y="78" on="0"/>
        <pt x="544" y="94" on="1"/>
        <pt x="553" y="105" on="0"/>
      </contour>
    </TTGlyph>
    <TTGlyph name="Eacute" xMin="60" yMin="0" xMax="374" yMax="927">
      <contour>
        <pt x="374" y="89" on="1"/>
        <pt x="374" y="0" on="1"/>
        <pt x="60" y="0" on="1"/>
        <pt x="60" y="720" on="1"/>
        <pt x="364" y="720" on="1"/>
        <pt x="364" y="635" on="1"/>
        <pt x="149" y="635" on="1"/>
        <pt x="158" y="610" on="1"/>
        <pt x="158" y="457" on="1"/>
        <pt x="149" y="432" on="1"/>
        <pt x="352" y="432" on="1"/>
        <pt x="352" y="343" on="1"/>
        <pt x="150" y="343" on="1"/>
        <pt x="158" y="320" on="1"/>
        <pt x="158" y="114" on="1"/>
        <pt x="149" y="89" on="1"/>
      </contour>
      <contour>
        <pt x="323" y="899" on="1"/>
        <pt x="342" y="881" on="1"/>
        <pt x="210" y="749" on="1"/>
        <pt x="154" y="807" on="1"/>
        <pt x="227" y="890" on="1"/>
        <pt x="253" y="916" on="0"/>
        <pt x="272" y="927" on="0"/>
        <pt x="295" y="927" on="0"/>
      </contour>
    </TTGlyph>
    <TTGlyph name="Ecircumflex" xMin="60" yMin="0" xMax="374" yMax="927">
      <contour>
        <pt x="374" y="89" on="1"/>
        <pt x="374" y="0" on="1"/>
        <pt x="60" y="0" on="1"/>
        <pt x="60" y="720" on="1"/>
        <pt x="364" y="720" on="1"/>
        <pt x="364" y="635" on="1"/>
        <pt x="149" y="635" on="1"/>
        <pt x="158" y="610" on="1"/>
        <pt x="158" y="457" on="1"/>
        <pt x="149" y="432" on="1"/>
        <pt x="352" y="432" on="1"/>
        <pt x="352" y="343" on="1"/>
        <pt x="150" y="343" on="1"/>
        <pt x="158" y="320" on="1"/>
        <pt x="158" y="114" on="1"/>
        <pt x="149" y="89" on="1"/>
      </contour>
      <contour>
        <pt x="200" y="927" on="1"/>
        <pt x="234" y="927" on="1"/>
        <pt x="364" y="854" on="1"/>
        <pt x="364" y="764" on="1"/>
        <pt x="218" y="844" on="1"/>
        <pt x="72" y="764" on="1"/>
        <pt x="72" y="855" on="1"/>
      </contour>
    </TTGlyph>
    <TTGlyph name="Edieresis" xMin="60" yMin="0" xMax="374" yMax="903">
      <contour>
        <pt x="374" y="89" on="1"/>
        <pt x="374" y="0" on="1"/>
        <pt x="60" y="0" on="1"/>
        <pt x="60" y="720" on="1"/>
        <pt x="364" y="720" on="1"/>
        <pt x="364" y="635" on="1"/>
        <pt x="149" y="635" on="1"/>
        <pt x="158" y="610" on="1"/>
        <pt x="158" y="457" on="1"/>
        <pt x="149" y="432" on="1"/>
        <pt x="352" y="432" on="1"/>
        <pt x="352" y="343" on="1"/>
        <pt x="150" y="343" on="1"/>
        <pt x="158" y="320" on="1"/>
        <pt x="158" y="114" on="1"/>
        <pt x="149" y="89" on="1"/>
      </contour>
      <contour>
        <pt x="109" y="783" on="0"/>
        <pt x="72" y="820" on="0"/>
        <pt x="72" y="869" on="0"/>
        <pt x="108" y="903" on="0"/>
        <pt x="156" y="903" on="0"/>
        <pt x="192" y="869" on="0"/>
        <pt x="192" y="820" on="0"/>
        <pt x="156" y="783" on="0"/>
      </contour>
      <contour>
        <pt x="282" y="783" on="0"/>
        <pt x="245" y="820" on="0"/>
        <pt x="245" y="869" on="0"/>
        <pt x="281" y="903" on="0"/>
        <pt x="330" y="903" on="0"/>
        <pt x="366" y="869" on="0"/>
        <pt x="366" y="820" on="0"/>
        <pt x="330" y="783" on="0"/>
      </contour>
    </TTGlyph>
    <TTGlyph name="Egrave" xMin="60" yMin="0" xMax="374" yMax="927">
      <contour>
        <pt x="374" y="89" on="1"/>
        <pt x="374" y="0" on="1"/>
        <pt x="60" y="0" on="1"/>
        <pt x="60" y="720" on="1"/>
        <pt x="364" y="720" on="1"/>
        <pt x="364" y="635" on="1"/>
        <pt x="149" y="635" on="1"/>
        <pt x="158" y="610" on="1"/>
        <pt x="158" y="457" on="1"/>
        <pt x="149" y="432" on="1"/>
        <pt x="352" y="432" on="1"/>
        <pt x="352" y="343" on="1"/>
        <pt x="150" y="343" on="1"/>
        <pt x="158" y="320" on="1"/>
        <pt x="158" y="114" on="1"/>
        <pt x="149" y="89" on="1"/>
      </contour>
      <contour>
        <pt x="145" y="908" on="1"/>
        <pt x="164" y="927" on="0"/>
        <pt x="187" y="927" on="0"/>
        <pt x="195" y="922" on="1"/>
        <pt x="207" y="916" on="0"/>
        <pt x="231" y="890" on="1"/>
        <pt x="306" y="807" on="1"/>
        <pt x="250" y="749" on="1"/>
        <pt x="118" y="881" on="1"/>
      </contour>
    </TTGlyph>
    <TTGlyph name="Eth" xMin="45" yMin="-7" xMax="415" yMax="732">
      <contour>
        <pt x="415" y="434" on="1"/>
        <pt x="415" y="366" on="1"/>
        <pt x="415" y="184" on="0"/>
        <pt x="400" y="132" on="1"/>
        <pt x="379" y="54" on="0"/>
        <pt x="349" y="30" on="1"/>
        <pt x="302" y="-7" on="0"/>
        <pt x="234" y="-7" on="1"/>
        <pt x="45" y="0" on="1"/>
        <pt x="45" y="722" on="1"/>
        <pt x="234" y="732" on="1"/>
        <pt x="286" y="732" on="0"/>
        <pt x="330" y="710" on="1"/>
        <pt x="348" y="701" on="0"/>
        <pt x="375" y="663" on="0"/>
        <pt x="393" y="633" on="0"/>
        <pt x="405" y="573" on="0"/>
        <pt x="408" y="553" on="1"/>
        <pt x="415" y="506" on="0"/>
      </contour>
      <contour>
        <pt x="256" y="434" on="1"/>
        <pt x="256" y="351" on="1"/>
        <pt x="129" y="351" on="1"/>
        <pt x="139" y="329" on="1"/>
        <pt x="139" y="102" on="1"/>
        <pt x="129" y="82" on="1"/>
        <pt x="234" y="82" on="1"/>
        <pt x="268" y="82" on="0"/>
        <pt x="284" y="105" on="1"/>
        <pt x="304" y="133" on="0"/>
        <pt x="313" y="190" on="0"/>
        <pt x="318" y="224" on="0"/>
        <pt x="320" y="289" on="0"/>
        <pt x="320" y="308" on="1"/>
        <pt x="320" y="423" on="1"/>
        <pt x="320" y="493" on="0"/>
        <pt x="313" y="538" on="0"/>
        <pt x="305" y="585" on="0"/>
        <pt x="293" y="608" on="0"/>
        <pt x="284" y="620" on="1"/>
        <pt x="268" y="643" on="0"/>
        <pt x="234" y="643" on="1"/>
        <pt x="129" y="643" on="1"/>
        <pt x="139" y="616" on="1"/>
        <pt x="139" y="457" on="1"/>
        <pt x="129" y="434" on="1"/>
      </contour>
    </TTGlyph>
    <TTGlyph name="Euro" xMin="13" yMin="-6" xMax="331" yMax="545">
      <contour>
        <pt x="269" y="466" on="1"/>
        <pt x="223" y="466" on="1"/>
        <pt x="193" y="466" on="0"/>
        <pt x="171" y="432" on="0"/>
        <pt x="169" y="383" on="1"/>
        <pt x="161" y="366" on="1"/>
        <pt x="168" y="366" on="1"/>
        <pt x="237" y="360" on="0"/>
        <pt x="258" y="360" on="0"/>
        <pt x="276" y="363" on="1"/>
        <pt x="305" y="361" on="1"/>
        <pt x="305" y="327" on="1"/>
        <pt x="305" y="295" on="0"/>
        <pt x="288" y="284" on="0"/>
        <pt x="196" y="284" on="0"/>
        <pt x="168" y="287" on="1"/>
        <pt x="163" y="287" on="1"/>
        <pt x="168" y="274" on="1"/>
        <pt x="164" y="257" on="1"/>
        <pt x="168" y="257" on="1"/>
        <pt x="223" y="252" on="0"/>
        <pt x="255" y="252" on="0"/>
        <pt x="273" y="255" on="1"/>
        <pt x="302" y="253" on="1"/>
        <pt x="302" y="219" on="1"/>
        <pt x="302" y="188" on="0"/>
        <pt x="284" y="177" on="0"/>
        <pt x="208" y="177" on="0"/>
        <pt x="168" y="180" on="1"/>
        <pt x="164" y="180" on="1"/>
        <pt x="168" y="170" on="1"/>
        <pt x="170" y="115" on="0"/>
        <pt x="193" y="73" on="0"/>
        <pt x="223" y="73" on="1"/>
        <pt x="331" y="73" on="1"/>
        <pt x="331" y="2" on="1"/>
        <pt x="223" y="-6" on="1"/>
        <pt x="140" y="-6" on="0"/>
        <pt x="87" y="71" on="0"/>
        <pt x="84" y="176" on="1"/>
        <pt x="88" y="186" on="1"/>
        <pt x="84" y="186" on="1"/>
        <pt x="51" y="186" on="0"/>
        <pt x="44" y="184" on="1"/>
        <pt x="13" y="186" on="1"/>
        <pt x="13" y="220" on="1"/>
        <pt x="13" y="252" on="0"/>
        <pt x="31" y="263" on="0"/>
        <pt x="84" y="263" on="1"/>
        <pt x="89" y="263" on="1"/>
        <pt x="84" y="275" on="1"/>
        <pt x="84" y="281" on="1"/>
        <pt x="89" y="294" on="1"/>
        <pt x="84" y="294" on="1"/>
        <pt x="54" y="294" on="0"/>
        <pt x="46" y="292" on="1"/>
        <pt x="16" y="294" on="1"/>
        <pt x="16" y="328" on="1"/>
        <pt x="16" y="360" on="0"/>
        <pt x="33" y="371" on="0"/>
        <pt x="84" y="371" on="1"/>
        <pt x="90" y="371" on="1"/>
        <pt x="85" y="388" on="1"/>
        <pt x="90" y="478" on="0"/>
        <pt x="145" y="545" on="0"/>
        <pt x="223" y="545" on="1"/>
        <pt x="331" y="537" on="1"/>
        <pt x="331" y="484" on="0"/>
        <pt x="316" y="466" on="0"/>
      </contour>
    </TTGlyph>
    <TTGlyph name="F" xMin="60" yMin="0" xMax="364" yMax="720">
      <contour>
        <pt x="352" y="432" on="1"/>
        <pt x="352" y="343" on="1"/>
        <pt x="150" y="343" on="1"/>
        <pt x="158" y="320" on="1"/>
        <pt x="158" y="0" on="1"/>
        <pt x="133" y="0" on="1"/>
        <pt x="79" y="0" on="0"/>
        <pt x="60" y="15" on="0"/>
        <pt x="60" y="61" on="1"/>
        <pt x="60" y="720" on="1"/>
        <pt x="364" y="720" on="1"/>
        <pt x="364" y="635" on="1"/>
        <pt x="149" y="635" on="1"/>
        <pt x="158" y="610" on="1"/>
        <pt x="158" y="457" on="1"/>
        <pt x="149" y="432" on="1"/>
      </contour>
    </TTGlyph>
    <TTGlyph name="G" xMin="60" yMin="-7" xMax="409" yMax="732">
      <contour>
        <pt x="155" y="423" on="1"/>
        <pt x="155" y="308" on="1"/>
        <pt x="155" y="238" on="0"/>
        <pt x="162" y="190" on="0"/>
        <pt x="169" y="142" on="0"/>
        <pt x="182" y="118" on="0"/>
        <pt x="200" y="92" on="0"/>
        <pt x="224" y="82" on="0"/>
        <pt x="240" y="82" on="1"/>
        <pt x="264" y="82" on="0"/>
        <pt x="324" y="92" on="1"/>
        <pt x="316" y="117" on="1"/>
        <pt x="316" y="309" on="1"/>
        <pt x="316" y="364" on="0"/>
        <pt x="331" y="382" on="0"/>
        <pt x="376" y="382" on="1"/>
        <pt x="409" y="382" on="1"/>
        <pt x="409" y="10" on="1"/>
        <pt x="392" y="8" on="0"/>
        <pt x="356" y="3" on="1"/>
        <pt x="286" y="-7" on="0"/>
        <pt x="210" y="-7" on="0"/>
        <pt x="162" y="6" on="0"/>
        <pt x="127" y="25" on="0"/>
        <pt x="100" y="64" on="0"/>
        <pt x="82" y="96" on="0"/>
        <pt x="70" y="157" on="0"/>
        <pt x="64" y="197" on="0"/>
        <pt x="60" y="276" on="0"/>
        <pt x="60" y="298" on="1"/>
        <pt x="60" y="366" on="1"/>
        <pt x="60" y="447" on="0"/>
        <pt x="63" y="524" on="0"/>
        <pt x="81" y="639" on="0"/>
        <pt x="117" y="691" on="0"/>
        <pt x="188" y="732" on="0"/>
        <pt x="240" y="732" on="1"/>
        <pt x="389" y="700" on="1"/>
        <pt x="381" y="643" on="0"/>
        <pt x="362" y="633" on="1"/>
        <pt x="353" y="629" on="0"/>
        <pt x="314" y="629" on="0"/>
        <pt x="278" y="636" on="1"/>
        <pt x="240" y="643" on="1"/>
        <pt x="207" y="643" on="0"/>
        <pt x="191" y="620" on="1"/>
        <pt x="182" y="608" on="0"/>
        <pt x="169" y="585" on="0"/>
        <pt x="162" y="538" on="0"/>
        <pt x="160" y="522" on="1"/>
        <pt x="155" y="493" on="0"/>
      </contour>
    </TTGlyph>
    <TTGlyph name="H" xMin="60" yMin="0" xMax="405" yMax="720">
      <contour>
        <pt x="153" y="61" on="1"/>
        <pt x="153" y="15" on="0"/>
        <pt x="134" y="0" on="0"/>
        <pt x="81" y="0" on="1"/>
        <pt x="60" y="0" on="1"/>
        <pt x="60" y="720" on="1"/>
        <pt x="81" y="720" on="1"/>
        <pt x="134" y="720" on="0"/>
        <pt x="153" y="705" on="0"/>
        <pt x="153" y="659" on="1"/>
        <pt x="153" y="457" on="1"/>
        <pt x="149" y="432" on="1"/>
        <pt x="314" y="432" on="1"/>
        <pt x="311" y="457" on="1"/>
        <pt x="311" y="720" on="1"/>
        <pt x="333" y="720" on="1"/>
        <pt x="386" y="720" on="0"/>
        <pt x="405" y="705" on="0"/>
        <pt x="405" y="659" on="1"/>
        <pt x="405" y="0" on="1"/>
        <pt x="385" y="0" on="1"/>
        <pt x="330" y="0" on="0"/>
        <pt x="311" y="15" on="0"/>
        <pt x="311" y="61" on="1"/>
        <pt x="311" y="322" on="1"/>
        <pt x="319" y="343" on="1"/>
        <pt x="145" y="343" on="1"/>
        <pt x="153" y="320" on="1"/>
      </contour>
    </TTGlyph>
    <TTGlyph name="I" xMin="60" yMin="0" xMax="155" yMax="720">
      <contour>
        <pt x="60" y="61" on="1"/>
        <pt x="60" y="720" on="1"/>
        <pt x="81" y="720" on="1"/>
        <pt x="136" y="720" on="0"/>
        <pt x="155" y="705" on="0"/>
        <pt x="155" y="659" on="1"/>
        <pt x="155" y="0" on="1"/>
        <pt x="132" y="0" on="1"/>
        <pt x="78" y="0" on="0"/>
        <pt x="60" y="15" on="0"/>
      </contour>
    </TTGlyph>
    <TTGlyph name="Iacute" xMin="60" yMin="0" xMax="258" yMax="927">
      <contour>
        <pt x="60" y="61" on="1"/>
        <pt x="60" y="720" on="1"/>
        <pt x="81" y="720" on="1"/>
        <pt x="136" y="720" on="0"/>
        <pt x="155" y="705" on="0"/>
        <pt x="155" y="659" on="1"/>
        <pt x="155" y="0" on="1"/>
        <pt x="132" y="0" on="1"/>
        <pt x="78" y="0" on="0"/>
        <pt x="60" y="15" on="0"/>
      </contour>
      <contour>
        <pt x="239" y="899" on="1"/>
        <pt x="258" y="881" on="1"/>
        <pt x="126" y="749" on="1"/>
        <pt x="70" y="807" on="1"/>
        <pt x="143" y="890" on="1"/>
        <pt x="169" y="916" on="0"/>
        <pt x="188" y="927" on="0"/>
        <pt x="211" y="927" on="0"/>
      </contour>
    </TTGlyph>
    <TTGlyph name="Icircumflex" xMin="-36" yMin="0" xMax="256" yMax="927">
      <contour>
        <pt x="60" y="61" on="1"/>
        <pt x="60" y="720" on="1"/>
        <pt x="81" y="720" on="1"/>
        <pt x="136" y="720" on="0"/>
        <pt x="155" y="705" on="0"/>
        <pt x="155" y="659" on="1"/>
        <pt x="155" y="0" on="1"/>
        <pt x="132" y="0" on="1"/>
        <pt x="78" y="0" on="0"/>
        <pt x="60" y="15" on="0"/>
      </contour>
      <contour>
        <pt x="92" y="927" on="1"/>
        <pt x="126" y="927" on="1"/>
        <pt x="256" y="854" on="1"/>
        <pt x="256" y="764" on="1"/>
        <pt x="110" y="844" on="1"/>
        <pt x="-36" y="764" on="1"/>
        <pt x="-36" y="855" on="1"/>
      </contour>
    </TTGlyph>
    <TTGlyph name="Idieresis" xMin="-37" yMin="0" xMax="257" yMax="903">
      <contour>
        <pt x="60" y="61" on="1"/>
        <pt x="60" y="720" on="1"/>
        <pt x="81" y="720" on="1"/>
        <pt x="136" y="720" on="0"/>
        <pt x="155" y="705" on="0"/>
        <pt x="155" y="659" on="1"/>
        <pt x="155" y="0" on="1"/>
        <pt x="132" y="0" on="1"/>
        <pt x="78" y="0" on="0"/>
        <pt x="60" y="15" on="0"/>
      </contour>
      <contour>
        <pt x="0" y="783" on="0"/>
        <pt x="-37" y="820" on="0"/>
        <pt x="-37" y="869" on="0"/>
        <pt x="-1" y="903" on="0"/>
        <pt x="47" y="903" on="0"/>
        <pt x="83" y="869" on="0"/>
        <pt x="83" y="820" on="0"/>
        <pt x="47" y="783" on="0"/>
      </contour>
      <contour>
        <pt x="173" y="783" on="0"/>
        <pt x="136" y="820" on="0"/>
        <pt x="136" y="869" on="0"/>
        <pt x="172" y="903" on="0"/>
        <pt x="221" y="903" on="0"/>
        <pt x="257" y="869" on="0"/>
        <pt x="257" y="820" on="0"/>
        <pt x="221" y="783" on="0"/>
      </contour>
    </TTGlyph>
    <TTGlyph name="Igrave" xMin="-23" yMin="0" xMax="165" yMax="927">
      <component glyphName="I" x="0" y="0" flags="0x1004"/>
      <component glyphName="grave" x="-33" y="195" flags="0x1004"/>
    </TTGlyph>
    <TTGlyph name="J" xMin="-39" yMin="-191" xMax="154" yMax="720">
      <contour>
        <pt x="60" y="720" on="1"/>
        <pt x="82" y="720" on="1"/>
        <pt x="136" y="720" on="0"/>
        <pt x="154" y="705" on="0"/>
        <pt x="154" y="659" on="1"/>
        <pt x="154" y="90" on="1"/>
        <pt x="154" y="21" on="0"/>
        <pt x="146" y="-32" on="0"/>
        <pt x="137" y="-86" on="0"/>
        <pt x="123" y="-112" on="0"/>
        <pt x="102" y="-148" on="0"/>
        <pt x="73" y="-166" on="0"/>
        <pt x="55" y="-175" on="1"/>
        <pt x="23" y="-191" on="0"/>
        <pt x="-39" y="-191" on="1"/>
        <pt x="-39" y="-112" on="1"/>
        <pt x="12" y="-112" on="0"/>
        <pt x="30" y="-78" on="1"/>
        <pt x="41" y="-58" on="0"/>
        <pt x="54" y="-23" on="0"/>
        <pt x="56" y="14" on="1"/>
        <pt x="60" y="67" on="0"/>
        <pt x="60" y="150" on="1"/>
      </contour>
    </TTGlyph>
    <TTGlyph name="K" xMin="60" yMin="0" xMax="444" yMax="720">
      <contour>
        <pt x="402" y="718" on="0"/>
        <pt x="418" y="706" on="0"/>
        <pt x="418" y="683" on="0"/>
        <pt x="268" y="363" on="1"/>
        <pt x="444" y="0" on="1"/>
        <pt x="414" y="0" on="1"/>
        <pt x="365" y="0" on="0"/>
        <pt x="328" y="19" on="0"/>
        <pt x="312" y="55" on="1"/>
        <pt x="167" y="363" on="1"/>
        <pt x="335" y="720" on="1"/>
        <pt x="350" y="720" on="1"/>
        <pt x="379" y="720" on="0"/>
      </contour>
      <contour>
        <pt x="153" y="659" on="1"/>
        <pt x="153" y="61" on="1"/>
        <pt x="153" y="15" on="0"/>
        <pt x="134" y="0" on="0"/>
        <pt x="81" y="0" on="1"/>
        <pt x="60" y="0" on="1"/>
        <pt x="60" y="720" on="1"/>
        <pt x="81" y="720" on="1"/>
        <pt x="134" y="720" on="0"/>
        <pt x="153" y="705" on="0"/>
      </contour>
    </TTGlyph>
    <TTGlyph name="L" xMin="60" yMin="0" xMax="351" yMax="720">
      <contour>
        <pt x="278" y="89" on="1"/>
        <pt x="332" y="89" on="0"/>
        <pt x="351" y="73" on="0"/>
        <pt x="351" y="27" on="1"/>
        <pt x="351" y="0" on="1"/>
        <pt x="60" y="0" on="1"/>
        <pt x="60" y="720" on="1"/>
        <pt x="85" y="720" on="1"/>
        <pt x="139" y="720" on="0"/>
        <pt x="158" y="705" on="0"/>
        <pt x="158" y="659" on="1"/>
        <pt x="158" y="114" on="1"/>
        <pt x="149" y="89" on="1"/>
      </contour>
    </TTGlyph>
    <TTGlyph name="Lslash" xMin="-19" yMin="0" xMax="351" yMax="720">
      <component glyphName="L" x="0" y="0" flags="0x1004"/>
      <component glyphName="endash" x="-64" y="0" flags="0x1004"/>
    </TTGlyph>
    <TTGlyph name="M" xMin="45" yMin="0" xMax="510" yMax="720">
      <contour>
        <pt x="139" y="517" on="1"/>
        <pt x="139" y="61" on="1"/>
        <pt x="139" y="15" on="0"/>
        <pt x="120" y="0" on="0"/>
        <pt x="67" y="0" on="1"/>
        <pt x="45" y="0" on="1"/>
        <pt x="45" y="720" on="1"/>
        <pt x="68" y="720" on="1"/>
        <pt x="116" y="720" on="0"/>
        <pt x="140" y="706" on="0"/>
        <pt x="159" y="665" on="1"/>
        <pt x="268" y="416" on="1"/>
        <pt x="288" y="416" on="1"/>
        <pt x="422" y="720" on="1"/>
        <pt x="437" y="720" on="1"/>
        <pt x="491" y="720" on="0"/>
        <pt x="510" y="705" on="0"/>
        <pt x="510" y="659" on="1"/>
        <pt x="510" y="0" on="1"/>
        <pt x="488" y="0" on="1"/>
        <pt x="434" y="0" on="0"/>
        <pt x="416" y="15" on="0"/>
        <pt x="416" y="61" on="1"/>
        <pt x="415" y="516" on="1"/>
        <pt x="412" y="516" on="1"/>
        <pt x="338" y="337" on="1"/>
        <pt x="311" y="287" on="1"/>
        <pt x="245" y="287" on="1"/>
        <pt x="218" y="337" on="1"/>
        <pt x="142" y="517" on="1"/>
      </contour>
    </TTGlyph>
    <TTGlyph name="N" xMin="45" yMin="0" xMax="390" yMax="720">
      <contour>
        <pt x="296" y="220" on="1"/>
        <pt x="296" y="720" on="1"/>
        <pt x="318" y="720" on="1"/>
        <pt x="372" y="720" on="0"/>
        <pt x="390" y="705" on="0"/>
        <pt x="390" y="659" on="1"/>
        <pt x="390" y="0" on="1"/>
        <pt x="360" y="0" on="1"/>
        <pt x="310" y="0" on="0"/>
        <pt x="286" y="15" on="0"/>
        <pt x="272" y="56" on="1"/>
        <pt x="143" y="488" on="1"/>
        <pt x="138" y="488" on="1"/>
        <pt x="138" y="61" on="1"/>
        <pt x="138" y="15" on="0"/>
        <pt x="120" y="0" on="0"/>
        <pt x="66" y="0" on="1"/>
        <pt x="45" y="0" on="1"/>
        <pt x="45" y="720" on="1"/>
        <pt x="67" y="720" on="1"/>
        <pt x="116" y="720" on="0"/>
        <pt x="138" y="706" on="0"/>
        <pt x="154" y="664" on="1"/>
        <pt x="291" y="220" on="1"/>
      </contour>
    </TTGlyph>
    <TTGlyph name="Ntilde" xMin="45" yMin="0" xMax="390" yMax="899">
      <contour>
        <pt x="296" y="220" on="1"/>
        <pt x="296" y="720" on="1"/>
        <pt x="318" y="720" on="1"/>
        <pt x="372" y="720" on="0"/>
        <pt x="390" y="705" on="0"/>
        <pt x="390" y="659" on="1"/>
        <pt x="390" y="0" on="1"/>
        <pt x="360" y="0" on="1"/>
        <pt x="310" y="0" on="0"/>
        <pt x="286" y="15" on="0"/>
        <pt x="272" y="56" on="1"/>
        <pt x="143" y="488" on="1"/>
        <pt x="138" y="488" on="1"/>
        <pt x="138" y="61" on="1"/>
        <pt x="138" y="15" on="0"/>
        <pt x="120" y="0" on="0"/>
        <pt x="66" y="0" on="1"/>
        <pt x="45" y="0" on="1"/>
        <pt x="45" y="720" on="1"/>
        <pt x="67" y="720" on="1"/>
        <pt x="116" y="720" on="0"/>
        <pt x="138" y="706" on="0"/>
        <pt x="154" y="664" on="1"/>
        <pt x="291" y="220" on="1"/>
      </contour>
      <contour>
        <pt x="351" y="853" on="1"/>
        <pt x="351" y="818" on="0"/>
        <pt x="333" y="807" on="0"/>
        <pt x="253" y="807" on="0"/>
        <pt x="166" y="817" on="0"/>
        <pt x="120" y="817" on="0"/>
        <pt x="113" y="815" on="1"/>
        <pt x="80" y="817" on="1"/>
        <pt x="80" y="854" on="1"/>
        <pt x="80" y="888" on="0"/>
        <pt x="98" y="899" on="0"/>
        <pt x="176" y="899" on="0"/>
        <pt x="262" y="890" on="0"/>
        <pt x="312" y="890" on="0"/>
        <pt x="319" y="891" on="1"/>
        <pt x="351" y="890" on="1"/>
      </contour>
    </TTGlyph>
    <TTGlyph name="O" xMin="50" yMin="-7" xMax="437" yMax="732">
      <contour>
        <pt x="131" y="-7" on="0"/>
        <pt x="50" y="165" on="0"/>
        <pt x="50" y="561" on="0"/>
        <pt x="136" y="732" on="0"/>
        <pt x="353" y="732" on="0"/>
        <pt x="437" y="562" on="0"/>
        <pt x="437" y="164" on="0"/>
        <pt x="358" y="-7" on="0"/>
      </contour>
      <contour>
        <pt x="145" y="366" on="1"/>
        <pt x="145" y="223" on="0"/>
        <pt x="189" y="82" on="0"/>
        <pt x="300" y="82" on="0"/>
        <pt x="344" y="223" on="0"/>
        <pt x="344" y="365" on="1"/>
        <pt x="344" y="643" on="0"/>
        <pt x="145" y="643" on="0"/>
      </contour>
    </TTGlyph>
    <TTGlyph name="OE" xMin="41" yMin="-7" xMax="618" yMax="732">
      <contour>
        <pt x="137" y="478" on="0"/>
        <pt x="136" y="419" on="0"/>
        <pt x="136" y="308" on="0"/>
        <pt x="137" y="255" on="0"/>
        <pt x="142" y="174" on="0"/>
        <pt x="154" y="138" on="0"/>
        <pt x="165" y="118" on="1"/>
        <pt x="184" y="82" on="0"/>
        <pt x="234" y="82" on="1"/>
        <pt x="305" y="89" on="1"/>
        <pt x="305" y="634" on="1"/>
        <pt x="234" y="643" on="1"/>
        <pt x="185" y="641" on="0"/>
        <pt x="166" y="608" on="1"/>
        <pt x="144" y="569" on="0"/>
      </contour>
      <contour>
        <pt x="609" y="635" on="1"/>
        <pt x="395" y="635" on="1"/>
        <pt x="403" y="599" on="1"/>
        <pt x="403" y="468" on="1"/>
        <pt x="395" y="432" on="1"/>
        <pt x="596" y="432" on="1"/>
        <pt x="596" y="343" on="1"/>
        <pt x="395" y="343" on="1"/>
        <pt x="403" y="308" on="1"/>
        <pt x="403" y="124" on="1"/>
        <pt x="395" y="89" on="1"/>
        <pt x="618" y="89" on="1"/>
        <pt x="618" y="0" on="1"/>
        <pt x="325" y="0" on="1"/>
        <pt x="236" y="-7" on="1"/>
        <pt x="188" y="-7" on="0"/>
        <pt x="120" y="9" on="0"/>
        <pt x="77" y="61" on="0"/>
        <pt x="54" y="105" on="0"/>
        <pt x="48" y="158" on="1"/>
        <pt x="41" y="231" on="0"/>
        <pt x="41" y="462" on="0"/>
        <pt x="44" y="546" on="0"/>
        <pt x="63" y="658" on="0"/>
        <pt x="84" y="679" on="1"/>
        <pt x="135" y="732" on="0"/>
        <pt x="238" y="732" on="1"/>
        <pt x="325" y="720" on="1"/>
        <pt x="609" y="720" on="1"/>
      </contour>
    </TTGlyph>
    <TTGlyph name="Oacute" xMin="50" yMin="-7" xMax="437" yMax="937">
      <contour>
        <pt x="131" y="-7" on="0"/>
        <pt x="50" y="165" on="0"/>
        <pt x="50" y="561" on="0"/>
        <pt x="136" y="732" on="0"/>
        <pt x="353" y="732" on="0"/>
        <pt x="437" y="562" on="0"/>
        <pt x="437" y="164" on="0"/>
        <pt x="358" y="-7" on="0"/>
      </contour>
      <contour>
        <pt x="145" y="366" on="1"/>
        <pt x="145" y="223" on="0"/>
        <pt x="189" y="82" on="0"/>
        <pt x="300" y="82" on="0"/>
        <pt x="344" y="223" on="0"/>
        <pt x="344" y="365" on="1"/>
        <pt x="344" y="643" on="0"/>
        <pt x="145" y="643" on="0"/>
      </contour>
      <contour>
        <pt x="354" y="909" on="1"/>
        <pt x="373" y="891" on="1"/>
        <pt x="241" y="759" on="1"/>
        <pt x="185" y="817" on="1"/>
        <pt x="258" y="900" on="1"/>
        <pt x="284" y="926" on="0"/>
        <pt x="303" y="937" on="0"/>
        <pt x="326" y="937" on="0"/>
      </contour>
    </TTGlyph>
    <TTGlyph name="Ocircumflex" xMin="50" yMin="-7" xMax="437" yMax="927">
      <contour>
        <pt x="131" y="-7" on="0"/>
        <pt x="50" y="165" on="0"/>
        <pt x="50" y="561" on="0"/>
        <pt x="136" y="732" on="0"/>
        <pt x="353" y="732" on="0"/>
        <pt x="437" y="562" on="0"/>
        <pt x="437" y="164" on="0"/>
        <pt x="358" y="-7" on="0"/>
      </contour>
      <contour>
        <pt x="145" y="366" on="1"/>
        <pt x="145" y="223" on="0"/>
        <pt x="189" y="82" on="0"/>
        <pt x="300" y="82" on="0"/>
        <pt x="344" y="223" on="0"/>
        <pt x="344" y="365" on="1"/>
        <pt x="344" y="643" on="0"/>
        <pt x="145" y="643" on="0"/>
      </contour>
      <contour>
        <pt x="234" y="927" on="1"/>
        <pt x="268" y="927" on="1"/>
        <pt x="398" y="854" on="1"/>
        <pt x="398" y="764" on="1"/>
        <pt x="252" y="844" on="1"/>
        <pt x="106" y="764" on="1"/>
        <pt x="106" y="855" on="1"/>
      </contour>
    </TTGlyph>
    <TTGlyph name="Odieresis" xMin="50" yMin="-7" xMax="437" yMax="903">
      <contour>
        <pt x="131" y="-7" on="0"/>
        <pt x="50" y="165" on="0"/>
        <pt x="50" y="561" on="0"/>
        <pt x="136" y="732" on="0"/>
        <pt x="353" y="732" on="0"/>
        <pt x="437" y="562" on="0"/>
        <pt x="437" y="164" on="0"/>
        <pt x="358" y="-7" on="0"/>
      </contour>
      <contour>
        <pt x="145" y="366" on="1"/>
        <pt x="145" y="223" on="0"/>
        <pt x="189" y="82" on="0"/>
        <pt x="300" y="82" on="0"/>
        <pt x="344" y="223" on="0"/>
        <pt x="344" y="365" on="1"/>
        <pt x="344" y="643" on="0"/>
        <pt x="145" y="643" on="0"/>
      </contour>
      <contour>
        <pt x="134" y="783" on="0"/>
        <pt x="97" y="820" on="0"/>
        <pt x="97" y="869" on="0"/>
        <pt x="133" y="903" on="0"/>
        <pt x="181" y="903" on="0"/>
        <pt x="217" y="869" on="0"/>
        <pt x="217" y="820" on="0"/>
        <pt x="181" y="783" on="0"/>
      </contour>
      <contour>
        <pt x="307" y="783" on="0"/>
        <pt x="270" y="820" on="0"/>
        <pt x="270" y="869" on="0"/>
        <pt x="306" y="903" on="0"/>
        <pt x="355" y="903" on="0"/>
        <pt x="391" y="869" on="0"/>
        <pt x="391" y="820" on="0"/>
        <pt x="355" y="783" on="0"/>
      </contour>
    </TTGlyph>
    <TTGlyph name="Ograve" xMin="50" yMin="-7" xMax="437" yMax="937">
      <contour>
        <pt x="131" y="-7" on="0"/>
        <pt x="50" y="165" on="0"/>
        <pt x="50" y="561" on="0"/>
        <pt x="136" y="732" on="0"/>
        <pt x="353" y="732" on="0"/>
        <pt x="437" y="562" on="0"/>
        <pt x="437" y="164" on="0"/>
        <pt x="358" y="-7" on="0"/>
      </contour>
      <contour>
        <pt x="145" y="366" on="1"/>
        <pt x="145" y="223" on="0"/>
        <pt x="189" y="82" on="0"/>
        <pt x="300" y="82" on="0"/>
        <pt x="344" y="223" on="0"/>
        <pt x="344" y="365" on="1"/>
        <pt x="344" y="643" on="0"/>
        <pt x="145" y="643" on="0"/>
      </contour>
      <contour>
        <pt x="135" y="918" on="1"/>
        <pt x="154" y="937" on="0"/>
        <pt x="177" y="937" on="0"/>
        <pt x="185" y="932" on="1"/>
        <pt x="197" y="926" on="0"/>
        <pt x="221" y="900" on="1"/>
        <pt x="296" y="817" on="1"/>
        <pt x="240" y="759" on="1"/>
        <pt x="108" y="891" on="1"/>
      </contour>
    </TTGlyph>
    <TTGlyph name="Oslash" xMin="49" yMin="-48" xMax="420" yMax="799">
      <contour>
        <pt x="97" y="69" on="1"/>
        <pt x="54" y="151" on="0"/>
        <pt x="54" y="566" on="0"/>
        <pt x="128" y="732" on="0"/>
        <pt x="237" y="732" on="1"/>
        <pt x="258" y="732" on="0"/>
        <pt x="275" y="728" on="1"/>
        <pt x="304" y="799" on="1"/>
        <pt x="401" y="799" on="1"/>
        <pt x="355" y="686" on="1"/>
        <pt x="392" y="647" on="0"/>
        <pt x="420" y="495" on="0"/>
        <pt x="420" y="366" on="1"/>
        <pt x="420" y="164" on="0"/>
        <pt x="345" y="-7" on="0"/>
        <pt x="237" y="-7" on="1"/>
        <pt x="200" y="-7" on="0"/>
        <pt x="168" y="6" on="1"/>
        <pt x="145" y="-48" on="1"/>
        <pt x="49" y="-48" on="1"/>
      </contour>
      <contour>
        <pt x="185" y="648" on="0"/>
        <pt x="143" y="510" on="0"/>
        <pt x="143" y="219" on="0"/>
        <pt x="184" y="77" on="0"/>
        <pt x="290" y="77" on="0"/>
        <pt x="330" y="218" on="0"/>
        <pt x="330" y="509" on="0"/>
        <pt x="289" y="648" on="0"/>
      </contour>
    </TTGlyph>
    <TTGlyph name="Otilde" xMin="50" yMin="-7" xMax="437" yMax="899">
      <component glyphName="O" x="0" y="0" flags="0x1004"/>
      <component glyphName="tilde" x="60" y="183" flags="0x1004"/>
    </TTGlyph>
    <TTGlyph name="P" xMin="60" yMin="0" xMax="417" yMax="732">
      <contour>
        <pt x="154" y="61" on="1"/>
        <pt x="154" y="15" on="0"/>
        <pt x="136" y="0" on="0"/>
        <pt x="82" y="0" on="1"/>
        <pt x="60" y="0" on="1"/>
        <pt x="60" y="721" on="1"/>
        <pt x="222" y="732" on="1"/>
        <pt x="322" y="732" on="0"/>
        <pt x="360" y="706" on="1"/>
        <pt x="374" y="696" on="0"/>
        <pt x="393" y="680" on="0"/>
        <pt x="406" y="647" on="0"/>
        <pt x="413" y="626" on="0"/>
        <pt x="414" y="604" on="1"/>
        <pt x="417" y="566" on="0"/>
        <pt x="417" y="489" on="0"/>
        <pt x="415" y="450" on="0"/>
        <pt x="404" y="394" on="0"/>
        <pt x="380" y="366" on="0"/>
        <pt x="359" y="352" on="1"/>
        <pt x="322" y="326" on="0"/>
        <pt x="223" y="326" on="1"/>
        <pt x="154" y="326" on="1"/>
      </contour>
      <contour>
        <pt x="223" y="415" on="1"/>
        <pt x="272" y="415" on="0"/>
        <pt x="299" y="431" on="1"/>
        <pt x="316" y="441" on="0"/>
        <pt x="319" y="484" on="1"/>
        <pt x="320" y="498" on="0"/>
        <pt x="320" y="559" on="0"/>
        <pt x="318" y="586" on="0"/>
        <pt x="309" y="621" on="0"/>
        <pt x="299" y="627" on="1"/>
        <pt x="272" y="643" on="0"/>
        <pt x="223" y="643" on="1"/>
        <pt x="146" y="643" on="1"/>
        <pt x="154" y="618" on="1"/>
        <pt x="154" y="438" on="1"/>
        <pt x="146" y="415" on="1"/>
      </contour>
    </TTGlyph>
    <TTGlyph name="Q" xMin="50" yMin="-185" xMax="576" yMax="732">
      <contour>
        <pt x="576" y="-142" on="1"/>
        <pt x="576" y="-174" on="0"/>
        <pt x="560" y="-185" on="0"/>
        <pt x="486" y="-185" on="0"/>
        <pt x="182" y="-141" on="0"/>
        <pt x="129" y="-141" on="0"/>
        <pt x="124" y="-142" on="1"/>
        <pt x="102" y="-140" on="1"/>
        <pt x="102" y="-116" on="1"/>
        <pt x="102" y="-88" on="0"/>
        <pt x="113" y="-69" on="0"/>
        <pt x="123" y="-65" on="1"/>
        <pt x="199" y="-2" on="1"/>
        <pt x="116" y="15" on="0"/>
        <pt x="50" y="190" on="0"/>
        <pt x="50" y="564" on="0"/>
        <pt x="133" y="732" on="0"/>
        <pt x="357" y="732" on="0"/>
        <pt x="439" y="564" on="0"/>
        <pt x="439" y="209" on="0"/>
        <pt x="388" y="38" on="0"/>
        <pt x="326" y="9" on="1"/>
        <pt x="327" y="9" on="1"/>
        <pt x="225" y="-64" on="1"/>
        <pt x="255" y="-67" on="0"/>
        <pt x="342" y="-78" on="1"/>
        <pt x="505" y="-97" on="0"/>
        <pt x="548" y="-97" on="0"/>
        <pt x="553" y="-96" on="1"/>
        <pt x="576" y="-98" on="1"/>
      </contour>
      <contour>
        <pt x="187" y="643" on="0"/>
        <pt x="145" y="510" on="0"/>
        <pt x="145" y="223" on="0"/>
        <pt x="189" y="82" on="0"/>
        <pt x="301" y="82" on="0"/>
        <pt x="344" y="222" on="0"/>
        <pt x="344" y="508" on="0"/>
        <pt x="302" y="643" on="0"/>
      </contour>
    </TTGlyph>
    <TTGlyph name="R" xMin="60" yMin="0" xMax="450" yMax="732">
      <contour>
        <pt x="84" y="0" on="1"/>
        <pt x="60" y="0" on="1"/>
        <pt x="60" y="721" on="1"/>
        <pt x="203" y="732" on="1"/>
        <pt x="293" y="732" on="0"/>
        <pt x="327" y="706" on="1"/>
        <pt x="340" y="696" on="0"/>
        <pt x="358" y="680" on="0"/>
        <pt x="364" y="664" on="1"/>
        <pt x="372" y="636" on="1"/>
        <pt x="379" y="617" on="0"/>
        <pt x="379" y="586" on="1"/>
        <pt x="379" y="528" on="1"/>
        <pt x="379" y="384" on="0"/>
        <pt x="338" y="348" on="1"/>
        <pt x="320" y="332" on="0"/>
        <pt x="291" y="329" on="1"/>
        <pt x="450" y="0" on="1"/>
        <pt x="417" y="0" on="1"/>
        <pt x="367" y="0" on="0"/>
        <pt x="331" y="19" on="0"/>
        <pt x="316" y="53" on="1"/>
        <pt x="193" y="326" on="1"/>
        <pt x="146" y="326" on="1"/>
        <pt x="155" y="301" on="1"/>
        <pt x="156" y="61" on="1"/>
        <pt x="156" y="15" on="0"/>
        <pt x="138" y="0" on="0"/>
      </contour>
      <contour>
        <pt x="205" y="415" on="1"/>
        <pt x="259" y="415" on="0"/>
        <pt x="282" y="459" on="0"/>
        <pt x="282" y="559" on="0"/>
        <pt x="281" y="586" on="0"/>
        <pt x="273" y="621" on="0"/>
        <pt x="265" y="627" on="1"/>
        <pt x="244" y="643" on="0"/>
        <pt x="205" y="643" on="1"/>
        <pt x="146" y="643" on="1"/>
        <pt x="155" y="618" on="1"/>
        <pt x="155" y="438" on="1"/>
        <pt x="147" y="415" on="1"/>
      </contour>
    </TTGlyph>
    <TTGlyph name="S" xMin="40" yMin="-7" xMax="396" yMax="732">
      <contour>
        <pt x="40" y="99" on="1"/>
        <pt x="140" y="89" on="0"/>
        <pt x="232" y="89" on="0"/>
        <pt x="267" y="103" on="0"/>
        <pt x="285" y="122" on="0"/>
        <pt x="289" y="141" on="1"/>
        <pt x="294" y="165" on="0"/>
        <pt x="294" y="235" on="0"/>
        <pt x="260" y="287" on="0"/>
        <pt x="231" y="313" on="0"/>
        <pt x="155" y="379" on="0"/>
        <pt x="124" y="408" on="0"/>
        <pt x="96" y="439" on="1"/>
        <pt x="45" y="495" on="0"/>
        <pt x="45" y="556" on="1"/>
        <pt x="45" y="662" on="0"/>
        <pt x="67" y="686" on="1"/>
        <pt x="101" y="721" on="0"/>
        <pt x="179" y="732" on="0"/>
        <pt x="223" y="732" on="1"/>
        <pt x="359" y="703" on="1"/>
        <pt x="351" y="646" on="0"/>
        <pt x="336" y="636" on="1"/>
        <pt x="329" y="630" on="0"/>
        <pt x="294" y="630" on="0"/>
        <pt x="266" y="636" on="1"/>
        <pt x="228" y="643" on="1"/>
        <pt x="169" y="643" on="0"/>
        <pt x="156" y="619" on="1"/>
        <pt x="148" y="606" on="0"/>
        <pt x="145" y="584" on="0"/>
        <pt x="145" y="562" on="1"/>
        <pt x="145" y="521" on="0"/>
        <pt x="246" y="436" on="1"/>
        <pt x="294" y="398" on="0"/>
        <pt x="348" y="346" on="0"/>
        <pt x="396" y="272" on="0"/>
        <pt x="396" y="206" on="0"/>
        <pt x="395" y="171" on="0"/>
        <pt x="388" y="110" on="0"/>
        <pt x="374" y="76" on="0"/>
        <pt x="346" y="32" on="0"/>
        <pt x="326" y="21" on="1"/>
        <pt x="275" y="-7" on="0"/>
        <pt x="204" y="-7" on="1"/>
        <pt x="164" y="-7" on="0"/>
        <pt x="58" y="12" on="0"/>
        <pt x="40" y="14" on="1"/>
      </contour>
    </TTGlyph>
    <TTGlyph name="Scaron" xMin="40" yMin="-7" xMax="396" yMax="927">
      <contour>
        <pt x="232" y="89" on="0"/>
        <pt x="267" y="103" on="0"/>
        <pt x="285" y="122" on="0"/>
        <pt x="293" y="160" on="0"/>
        <pt x="294" y="186" on="0"/>
        <pt x="294" y="235" on="0"/>
        <pt x="260" y="287" on="0"/>
        <pt x="231" y="313" on="0"/>
        <pt x="155" y="379" on="0"/>
        <pt x="124" y="408" on="0"/>
        <pt x="68" y="470" on="0"/>
        <pt x="45" y="526" on="0"/>
        <pt x="45" y="613" on="0"/>
        <pt x="52" y="649" on="1"/>
        <pt x="56" y="674" on="0"/>
        <pt x="78" y="697" on="0"/>
        <pt x="98" y="710" on="1"/>
        <pt x="130" y="732" on="0"/>
        <pt x="223" y="732" on="1"/>
        <pt x="359" y="703" on="1"/>
        <pt x="351" y="646" on="0"/>
        <pt x="336" y="636" on="1"/>
        <pt x="329" y="630" on="0"/>
        <pt x="294" y="630" on="0"/>
        <pt x="266" y="636" on="1"/>
        <pt x="228" y="643" on="1"/>
        <pt x="169" y="643" on="0"/>
        <pt x="156" y="619" on="1"/>
        <pt x="148" y="606" on="0"/>
        <pt x="145" y="584" on="0"/>
        <pt x="145" y="540" on="0"/>
        <pt x="183" y="489" on="0"/>
        <pt x="256" y="427" on="1"/>
        <pt x="319" y="377" on="0"/>
        <pt x="396" y="286" on="0"/>
        <pt x="396" y="180" on="0"/>
        <pt x="392" y="140" on="1"/>
        <pt x="388" y="110" on="0"/>
        <pt x="374" y="76" on="0"/>
        <pt x="346" y="32" on="0"/>
        <pt x="306" y="10" on="0"/>
        <pt x="244" y="-7" on="0"/>
        <pt x="164" y="-7" on="0"/>
        <pt x="92" y="6" on="1"/>
        <pt x="58" y="12" on="0"/>
        <pt x="40" y="14" on="1"/>
        <pt x="40" y="99" on="1"/>
        <pt x="140" y="89" on="0"/>
      </contour>
      <contour>
        <pt x="230" y="763" on="1"/>
        <pt x="196" y="763" on="1"/>
        <pt x="68" y="835" on="1"/>
        <pt x="68" y="927" on="1"/>
        <pt x="214" y="846" on="1"/>
        <pt x="360" y="927" on="1"/>
        <pt x="360" y="836" on="1"/>
      </contour>
    </TTGlyph>
    <TTGlyph name="T" xMin="20" yMin="0" xMax="343" yMax="720">
      <contour>
        <pt x="343" y="635" on="1"/>
        <pt x="221" y="635" on="1"/>
        <pt x="230" y="610" on="1"/>
        <pt x="230" y="61" on="1"/>
        <pt x="230" y="15" on="0"/>
        <pt x="211" y="0" on="0"/>
        <pt x="157" y="0" on="1"/>
        <pt x="133" y="0" on="1"/>
        <pt x="133" y="610" on="1"/>
        <pt x="140" y="635" on="1"/>
        <pt x="20" y="635" on="1"/>
        <pt x="20" y="720" on="1"/>
        <pt x="343" y="720" on="1"/>
      </contour>
    </TTGlyph>
    <TTGlyph name="Thorn" xMin="45" yMin="-191" xMax="360" yMax="736">
      <contour>
        <pt x="45" y="-129" on="1"/>
        <pt x="45" y="674" on="1"/>
        <pt x="45" y="720" on="0"/>
        <pt x="68" y="736" on="0"/>
        <pt x="135" y="736" on="1"/>
        <pt x="135" y="589" on="1"/>
        <pt x="207" y="609" on="1"/>
        <pt x="286" y="609" on="0"/>
        <pt x="327" y="564" on="1"/>
        <pt x="343" y="547" on="0"/>
        <pt x="358" y="458" on="0"/>
        <pt x="360" y="392" on="0"/>
        <pt x="360" y="270" on="0"/>
        <pt x="359" y="222" on="0"/>
        <pt x="356" y="146" on="0"/>
        <pt x="347" y="108" on="0"/>
        <pt x="333" y="55" on="0"/>
        <pt x="311" y="30" on="0"/>
        <pt x="295" y="16" on="1"/>
        <pt x="267" y="-7" on="0"/>
        <pt x="206" y="-7" on="1"/>
        <pt x="135" y="28" on="1"/>
        <pt x="135" y="-191" on="1"/>
        <pt x="68" y="-191" on="0"/>
        <pt x="45" y="-176" on="0"/>
      </contour>
      <contour>
        <pt x="268" y="230" on="0"/>
        <pt x="269" y="274" on="0"/>
        <pt x="269" y="449" on="0"/>
        <pt x="259" y="482" on="1"/>
        <pt x="246" y="523" on="0"/>
        <pt x="211" y="524" on="1"/>
        <pt x="129" y="504" on="1"/>
        <pt x="136" y="487" on="1"/>
        <pt x="136" y="136" on="1"/>
        <pt x="128" y="113" on="1"/>
        <pt x="209" y="78" on="1"/>
        <pt x="240" y="80" on="0"/>
        <pt x="252" y="112" on="1"/>
        <pt x="264" y="147" on="0"/>
      </contour>
    </TTGlyph>
    <TTGlyph name="U" xMin="61" yMin="-7" xMax="421" yMax="720">
      <contour>
        <pt x="324" y="300" on="1"/>
        <pt x="324" y="720" on="1"/>
        <pt x="349" y="720" on="1"/>
        <pt x="402" y="720" on="0"/>
        <pt x="421" y="705" on="0"/>
        <pt x="421" y="659" on="1"/>
        <pt x="421" y="300" on="1"/>
        <pt x="421" y="146" on="0"/>
        <pt x="406" y="93" on="0"/>
        <pt x="389" y="45" on="0"/>
        <pt x="363" y="24" on="0"/>
        <pt x="344" y="12" on="1"/>
        <pt x="312" y="-7" on="0"/>
        <pt x="239" y="-7" on="1"/>
        <pt x="180" y="-7" on="0"/>
        <pt x="135" y="13" on="0"/>
        <pt x="109" y="26" on="0"/>
        <pt x="89" y="58" on="0"/>
        <pt x="76" y="78" on="0"/>
        <pt x="68" y="127" on="0"/>
        <pt x="63" y="155" on="0"/>
        <pt x="61" y="222" on="0"/>
        <pt x="61" y="240" on="1"/>
        <pt x="61" y="720" on="1"/>
        <pt x="85" y="720" on="1"/>
        <pt x="139" y="720" on="0"/>
        <pt x="157" y="705" on="0"/>
        <pt x="157" y="659" on="1"/>
        <pt x="157" y="268" on="1"/>
        <pt x="157" y="159" on="0"/>
        <pt x="184" y="82" on="0"/>
        <pt x="239" y="82" on="1"/>
        <pt x="260" y="82" on="0"/>
        <pt x="289" y="91" on="0"/>
        <pt x="308" y="121" on="0"/>
        <pt x="319" y="146" on="0"/>
        <pt x="321" y="178" on="1"/>
        <pt x="324" y="225" on="0"/>
      </contour>
    </TTGlyph>
    <TTGlyph name="Uacute" xMin="61" yMin="-7" xMax="421" yMax="927">
      <contour>
        <pt x="324" y="300" on="1"/>
        <pt x="324" y="720" on="1"/>
        <pt x="349" y="720" on="1"/>
        <pt x="402" y="720" on="0"/>
        <pt x="421" y="705" on="0"/>
        <pt x="421" y="659" on="1"/>
        <pt x="421" y="300" on="1"/>
        <pt x="421" y="146" on="0"/>
        <pt x="406" y="93" on="0"/>
        <pt x="389" y="45" on="0"/>
        <pt x="363" y="24" on="0"/>
        <pt x="344" y="12" on="1"/>
        <pt x="312" y="-7" on="0"/>
        <pt x="239" y="-7" on="1"/>
        <pt x="180" y="-7" on="0"/>
        <pt x="135" y="13" on="0"/>
        <pt x="109" y="26" on="0"/>
        <pt x="89" y="58" on="0"/>
        <pt x="76" y="78" on="0"/>
        <pt x="68" y="127" on="0"/>
        <pt x="63" y="155" on="0"/>
        <pt x="61" y="222" on="0"/>
        <pt x="61" y="240" on="1"/>
        <pt x="61" y="720" on="1"/>
        <pt x="85" y="720" on="1"/>
        <pt x="139" y="720" on="0"/>
        <pt x="157" y="705" on="0"/>
        <pt x="157" y="659" on="1"/>
        <pt x="157" y="268" on="1"/>
        <pt x="157" y="159" on="0"/>
        <pt x="184" y="82" on="0"/>
        <pt x="239" y="82" on="1"/>
        <pt x="260" y="82" on="0"/>
        <pt x="289" y="91" on="0"/>
        <pt x="308" y="121" on="0"/>
        <pt x="319" y="146" on="0"/>
        <pt x="321" y="178" on="1"/>
        <pt x="324" y="225" on="0"/>
      </contour>
      <contour>
        <pt x="360" y="899" on="1"/>
        <pt x="379" y="881" on="1"/>
        <pt x="247" y="749" on="1"/>
        <pt x="191" y="807" on="1"/>
        <pt x="264" y="890" on="1"/>
        <pt x="290" y="916" on="0"/>
        <pt x="309" y="927" on="0"/>
        <pt x="332" y="927" on="0"/>
      </contour>
    </TTGlyph>
    <TTGlyph name="Ucircumflex" xMin="61" yMin="-7" xMax="421" yMax="927">
      <component glyphName="U" x="0" y="0" flags="0x1004"/>
      <component glyphName="circumflex" x="61" y="195" flags="0x1004"/>
    </TTGlyph>
    <TTGlyph name="Udieresis" xMin="61" yMin="-7" xMax="421" yMax="903">
      <contour>
        <pt x="324" y="300" on="1"/>
        <pt x="324" y="720" on="1"/>
        <pt x="349" y="720" on="1"/>
        <pt x="402" y="720" on="0"/>
        <pt x="421" y="705" on="0"/>
        <pt x="421" y="659" on="1"/>
        <pt x="421" y="300" on="1"/>
        <pt x="421" y="146" on="0"/>
        <pt x="406" y="93" on="0"/>
        <pt x="389" y="45" on="0"/>
        <pt x="363" y="24" on="0"/>
        <pt x="344" y="12" on="1"/>
        <pt x="312" y="-7" on="0"/>
        <pt x="239" y="-7" on="1"/>
        <pt x="180" y="-7" on="0"/>
        <pt x="135" y="13" on="0"/>
        <pt x="109" y="26" on="0"/>
        <pt x="89" y="58" on="0"/>
        <pt x="76" y="78" on="0"/>
        <pt x="68" y="127" on="0"/>
        <pt x="63" y="155" on="0"/>
        <pt x="61" y="222" on="0"/>
        <pt x="61" y="240" on="1"/>
        <pt x="61" y="720" on="1"/>
        <pt x="85" y="720" on="1"/>
        <pt x="139" y="720" on="0"/>
        <pt x="157" y="705" on="0"/>
        <pt x="157" y="659" on="1"/>
        <pt x="157" y="268" on="1"/>
        <pt x="157" y="159" on="0"/>
        <pt x="184" y="82" on="0"/>
        <pt x="239" y="82" on="1"/>
        <pt x="260" y="82" on="0"/>
        <pt x="289" y="91" on="0"/>
        <pt x="308" y="121" on="0"/>
        <pt x="319" y="146" on="0"/>
        <pt x="321" y="178" on="1"/>
        <pt x="324" y="225" on="0"/>
      </contour>
      <contour>
        <pt x="130" y="783" on="0"/>
        <pt x="93" y="820" on="0"/>
        <pt x="93" y="869" on="0"/>
        <pt x="129" y="903" on="0"/>
        <pt x="177" y="903" on="0"/>
        <pt x="213" y="869" on="0"/>
        <pt x="213" y="820" on="0"/>
        <pt x="177" y="783" on="0"/>
      </contour>
      <contour>
        <pt x="303" y="783" on="0"/>
        <pt x="266" y="820" on="0"/>
        <pt x="266" y="869" on="0"/>
        <pt x="302" y="903" on="0"/>
        <pt x="351" y="903" on="0"/>
        <pt x="387" y="869" on="0"/>
        <pt x="387" y="820" on="0"/>
        <pt x="351" y="783" on="0"/>
      </contour>
    </TTGlyph>
    <TTGlyph name="Ugrave" xMin="61" yMin="-7" xMax="421" yMax="927">
      <contour>
        <pt x="324" y="300" on="1"/>
        <pt x="324" y="720" on="1"/>
        <pt x="349" y="720" on="1"/>
        <pt x="402" y="720" on="0"/>
        <pt x="421" y="705" on="0"/>
        <pt x="421" y="659" on="1"/>
        <pt x="421" y="300" on="1"/>
        <pt x="421" y="146" on="0"/>
        <pt x="406" y="93" on="0"/>
        <pt x="389" y="45" on="0"/>
        <pt x="363" y="24" on="0"/>
        <pt x="344" y="12" on="1"/>
        <pt x="312" y="-7" on="0"/>
        <pt x="239" y="-7" on="1"/>
        <pt x="180" y="-7" on="0"/>
        <pt x="135" y="13" on="0"/>
        <pt x="109" y="26" on="0"/>
        <pt x="89" y="58" on="0"/>
        <pt x="76" y="78" on="0"/>
        <pt x="68" y="127" on="0"/>
        <pt x="63" y="155" on="0"/>
        <pt x="61" y="222" on="0"/>
        <pt x="61" y="240" on="1"/>
        <pt x="61" y="720" on="1"/>
        <pt x="85" y="720" on="1"/>
        <pt x="139" y="720" on="0"/>
        <pt x="157" y="705" on="0"/>
        <pt x="157" y="659" on="1"/>
        <pt x="157" y="268" on="1"/>
        <pt x="157" y="159" on="0"/>
        <pt x="184" y="82" on="0"/>
        <pt x="239" y="82" on="1"/>
        <pt x="260" y="82" on="0"/>
        <pt x="289" y="91" on="0"/>
        <pt x="308" y="121" on="0"/>
        <pt x="319" y="146" on="0"/>
        <pt x="321" y="178" on="1"/>
        <pt x="324" y="225" on="0"/>
      </contour>
      <contour>
        <pt x="148" y="908" on="1"/>
        <pt x="167" y="927" on="0"/>
        <pt x="190" y="927" on="0"/>
        <pt x="198" y="922" on="1"/>
        <pt x="210" y="916" on="0"/>
        <pt x="234" y="890" on="1"/>
        <pt x="309" y="807" on="1"/>
        <pt x="253" y="749" on="1"/>
        <pt x="121" y="881" on="1"/>
      </contour>
    </TTGlyph>
    <TTGlyph name="V" xMin="20" yMin="0" xMax="426" yMax="720">
      <contour>
        <pt x="365" y="720" on="1"/>
        <pt x="404" y="720" on="0"/>
        <pt x="426" y="711" on="0"/>
        <pt x="426" y="675" on="0"/>
        <pt x="272" y="0" on="1"/>
        <pt x="182" y="0" on="1"/>
        <pt x="20" y="720" on="1"/>
        <pt x="56" y="720" on="1"/>
        <pt x="102" y="720" on="0"/>
        <pt x="120" y="705" on="0"/>
        <pt x="130" y="661" on="1"/>
        <pt x="221" y="163" on="1"/>
        <pt x="232" y="163" on="1"/>
        <pt x="337" y="720" on="1"/>
      </contour>
    </TTGlyph>
    <TTGlyph name="W" xMin="30" yMin="0" xMax="608" yMax="720">
      <contour>
        <pt x="546" y="720" on="1"/>
        <pt x="585" y="720" on="0"/>
        <pt x="608" y="711" on="0"/>
        <pt x="608" y="677" on="0"/>
        <pt x="484" y="0" on="1"/>
        <pt x="394" y="0" on="1"/>
        <pt x="329" y="341" on="1"/>
        <pt x="319" y="341" on="1"/>
        <pt x="252" y="0" on="1"/>
        <pt x="163" y="0" on="1"/>
        <pt x="30" y="720" on="1"/>
        <pt x="78" y="720" on="1"/>
        <pt x="124" y="720" on="0"/>
        <pt x="143" y="705" on="0"/>
        <pt x="152" y="661" on="1"/>
        <pt x="211" y="185" on="1"/>
        <pt x="218" y="185" on="1"/>
        <pt x="254" y="425" on="1"/>
        <pt x="276" y="507" on="1"/>
        <pt x="372" y="507" on="1"/>
        <pt x="392" y="425" on="1"/>
        <pt x="429" y="187" on="1"/>
        <pt x="437" y="187" on="1"/>
        <pt x="505" y="720" on="1"/>
      </contour>
    </TTGlyph>
    <TTGlyph name="X" xMin="20" yMin="0" xMax="402" yMax="720">
      <contour>
        <pt x="66" y="0" on="1"/>
        <pt x="20" y="0" on="1"/>
        <pt x="161" y="355" on="1"/>
        <pt x="29" y="720" on="1"/>
        <pt x="76" y="720" on="1"/>
        <pt x="116" y="720" on="0"/>
        <pt x="135" y="706" on="0"/>
        <pt x="150" y="663" on="1"/>
        <pt x="216" y="435" on="1"/>
        <pt x="232" y="435" on="1"/>
        <pt x="312" y="720" on="1"/>
        <pt x="332" y="720" on="1"/>
        <pt x="372" y="720" on="0"/>
        <pt x="397" y="712" on="0"/>
        <pt x="397" y="692" on="1"/>
        <pt x="397" y="682" on="0"/>
        <pt x="270" y="356" on="1"/>
        <pt x="402" y="0" on="1"/>
        <pt x="358" y="0" on="1"/>
        <pt x="319" y="0" on="0"/>
        <pt x="295" y="20" on="0"/>
        <pt x="285" y="57" on="1"/>
        <pt x="223" y="269" on="1"/>
        <pt x="207" y="269" on="1"/>
        <pt x="139" y="55" on="1"/>
        <pt x="123" y="14" on="0"/>
        <pt x="105" y="0" on="0"/>
      </contour>
    </TTGlyph>
    <TTGlyph name="Y" xMin="20" yMin="0" xMax="389" yMax="720">
      <contour>
        <pt x="330" y="720" on="1"/>
        <pt x="366" y="720" on="0"/>
        <pt x="389" y="712" on="0"/>
        <pt x="389" y="680" on="0"/>
        <pt x="258" y="345" on="1"/>
        <pt x="258" y="0" on="1"/>
        <pt x="236" y="0" on="1"/>
        <pt x="182" y="0" on="0"/>
        <pt x="163" y="15" on="0"/>
        <pt x="163" y="61" on="1"/>
        <pt x="163" y="346" on="1"/>
        <pt x="20" y="720" on="1"/>
        <pt x="59" y="720" on="1"/>
        <pt x="102" y="720" on="0"/>
        <pt x="122" y="706" on="0"/>
        <pt x="138" y="664" on="1"/>
        <pt x="204" y="463" on="1"/>
        <pt x="219" y="463" on="1"/>
        <pt x="304" y="720" on="1"/>
      </contour>
    </TTGlyph>
    <TTGlyph name="Yacute" xMin="20" yMin="0" xMax="389" yMax="927">
      <component glyphName="Y" x="0" y="0" flags="0x1004"/>
      <component glyphName="acute" x="160" y="195" flags="0x1004"/>
    </TTGlyph>
    <TTGlyph name="Ydieresis" xMin="20" yMin="0" xMax="389" yMax="891">
      <component glyphName="Y" x="0" y="0" flags="0x1004"/>
      <component glyphName="dieresis" x="24" y="183" flags="0x1004"/>
    </TTGlyph>
    <TTGlyph name="Z" xMin="30" yMin="0" xMax="346" yMax="720">
      <contour>
        <pt x="271" y="89" on="1"/>
        <pt x="324" y="89" on="0"/>
        <pt x="343" y="64" on="0"/>
        <pt x="343" y="0" on="1"/>
        <pt x="30" y="0" on="1"/>
        <pt x="30" y="74" on="1"/>
        <pt x="238" y="635" on="1"/>
        <pt x="30" y="635" on="1"/>
        <pt x="30" y="698" on="0"/>
        <pt x="45" y="719" on="0"/>
        <pt x="90" y="719" on="1"/>
        <pt x="346" y="720" on="1"/>
        <pt x="346" y="652" on="1"/>
        <pt x="133" y="89" on="1"/>
      </contour>
    </TTGlyph>
    <TTGlyph name="Zcaron" xMin="30" yMin="0" xMax="346" yMax="927">
      <component glyphName="Z" x="0" y="0" flags="0x1004"/>
      <component glyphName="caron" x="14" y="195" flags="0x1004"/>
    </TTGlyph>
    <TTGlyph name="a" xMin="45" yMin="-7" xMax="317" yMax="544">
      <contour>
        <pt x="234" y="413" on="1"/>
        <pt x="235" y="440" on="1"/>
        <pt x="235" y="454" on="0"/>
        <pt x="229" y="456" on="0"/>
        <pt x="221" y="463" on="0"/>
        <pt x="208" y="459" on="0"/>
        <pt x="199" y="460" on="1"/>
        <pt x="145" y="453" on="1"/>
        <pt x="124" y="450" on="0"/>
        <pt x="94" y="450" on="0"/>
        <pt x="78" y="464" on="0"/>
        <pt x="70" y="521" on="1"/>
        <pt x="186" y="544" on="1"/>
        <pt x="257" y="544" on="0"/>
        <pt x="293" y="523" on="0"/>
        <pt x="309" y="509" on="0"/>
        <pt x="312" y="488" on="1"/>
        <pt x="317" y="462" on="0"/>
        <pt x="317" y="406" on="1"/>
        <pt x="317" y="0" on="1"/>
        <pt x="259" y="0" on="0"/>
        <pt x="229" y="12" on="0"/>
        <pt x="228" y="35" on="1"/>
        <pt x="145" y="-7" on="1"/>
        <pt x="117" y="-7" on="0"/>
        <pt x="90" y="-6" on="0"/>
        <pt x="63" y="10" on="0"/>
        <pt x="54" y="26" on="0"/>
        <pt x="50" y="52" on="1"/>
        <pt x="45" y="83" on="0"/>
        <pt x="45" y="179" on="1"/>
        <pt x="45" y="248" on="1"/>
        <pt x="45" y="361" on="0"/>
        <pt x="242" y="365" on="1"/>
        <pt x="234" y="389" on="1"/>
      </contour>
      <contour>
        <pt x="139" y="78" on="1"/>
        <pt x="140" y="78" on="0"/>
        <pt x="240" y="116" on="1"/>
        <pt x="230" y="145" on="1"/>
        <pt x="230" y="264" on="1"/>
        <pt x="238" y="287" on="1"/>
        <pt x="197" y="286" on="0"/>
        <pt x="135" y="272" on="0"/>
        <pt x="135" y="260" on="1"/>
        <pt x="134" y="128" on="1"/>
        <pt x="134" y="78" on="0"/>
      </contour>
    </TTGlyph>
    <TTGlyph name="aacute" xMin="45" yMin="-7" xMax="317" yMax="777">
      <component glyphName="a" x="0" y="0" flags="0x1004"/>
      <component glyphName="acute" x="100" y="45" flags="0x1004"/>
    </TTGlyph>
    <TTGlyph name="acircumflex" xMin="42" yMin="-7" xMax="334" yMax="777">
      <component glyphName="a" x="0" y="0" flags="0x1004"/>
      <component glyphName="circumflex" x="10" y="45" flags="0x1004"/>
    </TTGlyph>
    <TTGlyph name="acute" xMin="15" yMin="554" xMax="203" yMax="732">
      <contour>
        <pt x="184" y="704" on="1"/>
        <pt x="203" y="686" on="1"/>
        <pt x="71" y="554" on="1"/>
        <pt x="15" y="612" on="1"/>
        <pt x="88" y="695" on="1"/>
        <pt x="114" y="721" on="0"/>
        <pt x="133" y="732" on="0"/>
        <pt x="156" y="732" on="0"/>
      </contour>
    </TTGlyph>
    <TTGlyph name="adieresis" xMin="44" yMin="-7" xMax="338" yMax="732">
      <component glyphName="a" x="0" y="0" flags="0x1004"/>
      <component glyphName="dieresis" x="5" y="24" flags="0x1004"/>
    </TTGlyph>
    <TTGlyph name="ae" xMin="41" yMin="-7" xMax="516" yMax="544">
      <contour>
        <pt x="379" y="459" on="1"/>
        <pt x="340" y="459" on="0"/>
        <pt x="319" y="415" on="0"/>
        <pt x="319" y="357" on="1"/>
        <pt x="314" y="341" on="1"/>
        <pt x="425" y="341" on="1"/>
        <pt x="420" y="357" on="1"/>
        <pt x="420" y="414" on="0"/>
        <pt x="405" y="459" on="0"/>
      </contour>
      <contour>
        <pt x="225" y="116" on="1"/>
        <pt x="224" y="258" on="1"/>
        <pt x="129" y="256" on="0"/>
        <pt x="129" y="235" on="1"/>
        <pt x="128" y="128" on="1"/>
        <pt x="128" y="84" on="0"/>
        <pt x="134" y="78" on="1"/>
      </contour>
      <contour>
        <pt x="308" y="255" on="1"/>
        <pt x="314" y="237" on="1"/>
        <pt x="314" y="140" on="0"/>
        <pt x="336" y="78" on="0"/>
        <pt x="379" y="78" on="1"/>
        <pt x="407" y="78" on="0"/>
        <pt x="502" y="87" on="0"/>
        <pt x="516" y="88" on="1"/>
        <pt x="516" y="10" on="1"/>
        <pt x="499" y="8" on="0"/>
        <pt x="472" y="4" on="1"/>
        <pt x="409" y="-7" on="0"/>
        <pt x="379" y="-7" on="1"/>
        <pt x="282" y="-7" on="0"/>
        <pt x="253" y="49" on="1"/>
        <pt x="140" y="-7" on="1"/>
        <pt x="90" y="-7" on="0"/>
        <pt x="60" y="20" on="0"/>
        <pt x="48" y="41" on="0"/>
        <pt x="45" y="68" on="1"/>
        <pt x="41" y="104" on="0"/>
        <pt x="41" y="186" on="1"/>
        <pt x="41" y="228" on="1"/>
        <pt x="41" y="341" on="0"/>
        <pt x="224" y="345" on="1"/>
        <pt x="224" y="413" on="1"/>
        <pt x="224" y="450" on="0"/>
        <pt x="206" y="456" on="1"/>
        <pt x="196" y="459" on="0"/>
        <pt x="181" y="459" on="1"/>
        <pt x="139" y="453" on="1"/>
        <pt x="118" y="450" on="0"/>
        <pt x="88" y="450" on="0"/>
        <pt x="72" y="464" on="0"/>
        <pt x="64" y="521" on="1"/>
        <pt x="180" y="544" on="1"/>
        <pt x="251" y="544" on="0"/>
        <pt x="281" y="520" on="1"/>
        <pt x="319" y="544" on="0"/>
        <pt x="379" y="544" on="1"/>
        <pt x="463" y="544" on="0"/>
        <pt x="486" y="504" on="1"/>
        <pt x="495" y="487" on="0"/>
        <pt x="505" y="462" on="0"/>
        <pt x="507" y="434" on="1"/>
        <pt x="510" y="391" on="0"/>
        <pt x="510" y="328" on="1"/>
        <pt x="510" y="260" on="1"/>
      </contour>
    </TTGlyph>
    <TTGlyph name="agrave" xMin="45" yMin="-7" xMax="317" yMax="777">
      <component glyphName="a" x="0" y="0" flags="0x1004"/>
      <component glyphName="grave" x="86" y="45" flags="0x1004"/>
    </TTGlyph>
    <TTGlyph name="ampersand" xMin="40" yMin="-7" xMax="518" yMax="692">
      <contour>
        <pt x="429" y="211" on="1"/>
        <pt x="429" y="101" on="0"/>
        <pt x="337" y="-7" on="0"/>
        <pt x="132" y="-7" on="0"/>
        <pt x="40" y="100" on="0"/>
        <pt x="40" y="320" on="0"/>
        <pt x="112" y="388" on="1"/>
        <pt x="86" y="410" on="0"/>
        <pt x="59" y="466" on="0"/>
        <pt x="59" y="517" on="1"/>
        <pt x="59" y="692" on="0"/>
        <pt x="206" y="692" on="1"/>
        <pt x="335" y="682" on="1"/>
        <pt x="335" y="636" on="0"/>
        <pt x="321" y="613" on="0"/>
        <pt x="291" y="612" on="1"/>
        <pt x="206" y="610" on="1"/>
        <pt x="177" y="610" on="0"/>
        <pt x="147" y="573" on="0"/>
        <pt x="147" y="461" on="0"/>
        <pt x="185" y="431" on="0"/>
        <pt x="234" y="431" on="1"/>
        <pt x="234" y="346" on="1"/>
        <pt x="189" y="344" on="0"/>
        <pt x="128" y="271" on="0"/>
        <pt x="128" y="207" on="1"/>
        <pt x="128" y="75" on="0"/>
        <pt x="341" y="75" on="0"/>
        <pt x="341" y="211" on="1"/>
        <pt x="341" y="319" on="1"/>
        <pt x="346" y="346" on="1"/>
        <pt x="295" y="346" on="1"/>
        <pt x="295" y="426" on="1"/>
        <pt x="346" y="426" on="1"/>
        <pt x="341" y="447" on="1"/>
        <pt x="341" y="491" on="1"/>
        <pt x="404" y="491" on="0"/>
        <pt x="429" y="474" on="0"/>
        <pt x="429" y="428" on="1"/>
        <pt x="518" y="426" on="1"/>
        <pt x="518" y="400" on="0"/>
        <pt x="515" y="377" on="0"/>
        <pt x="498" y="353" on="0"/>
        <pt x="462" y="346" on="0"/>
        <pt x="429" y="346" on="1"/>
        <pt x="416" y="346" on="1"/>
        <pt x="429" y="317" on="1"/>
      </contour>
    </TTGlyph>
    <TTGlyph name="aring" xMin="45" yMin="-7" xMax="317" yMax="760">
      <contour>
        <pt x="151" y="573" on="0"/>
        <pt x="94" y="629" on="0"/>
        <pt x="94" y="705" on="0"/>
        <pt x="151" y="760" on="0"/>
        <pt x="227" y="760" on="0"/>
        <pt x="283" y="705" on="0"/>
        <pt x="283" y="628" on="0"/>
        <pt x="227" y="573" on="0"/>
      </contour>
      <contour>
        <pt x="177" y="696" on="0"/>
        <pt x="158" y="678" on="0"/>
        <pt x="158" y="655" on="0"/>
        <pt x="178" y="635" on="0"/>
        <pt x="201" y="635" on="0"/>
        <pt x="221" y="655" on="0"/>
        <pt x="221" y="678" on="0"/>
        <pt x="201" y="696" on="0"/>
      </contour>
      <contour>
        <pt x="234" y="413" on="1"/>
        <pt x="235" y="440" on="1"/>
        <pt x="235" y="454" on="0"/>
        <pt x="229" y="456" on="0"/>
        <pt x="221" y="463" on="0"/>
        <pt x="208" y="459" on="0"/>
        <pt x="199" y="460" on="1"/>
        <pt x="145" y="453" on="1"/>
        <pt x="124" y="450" on="0"/>
        <pt x="94" y="450" on="0"/>
        <pt x="78" y="464" on="0"/>
        <pt x="70" y="521" on="1"/>
        <pt x="186" y="544" on="1"/>
        <pt x="257" y="544" on="0"/>
        <pt x="293" y="523" on="0"/>
        <pt x="309" y="509" on="0"/>
        <pt x="312" y="488" on="1"/>
        <pt x="317" y="462" on="0"/>
        <pt x="317" y="406" on="1"/>
        <pt x="317" y="0" on="1"/>
        <pt x="259" y="0" on="0"/>
        <pt x="229" y="12" on="0"/>
        <pt x="228" y="35" on="1"/>
        <pt x="145" y="-7" on="1"/>
        <pt x="117" y="-7" on="0"/>
        <pt x="90" y="-6" on="0"/>
        <pt x="63" y="10" on="0"/>
        <pt x="54" y="26" on="0"/>
        <pt x="50" y="52" on="1"/>
        <pt x="45" y="83" on="0"/>
        <pt x="45" y="179" on="1"/>
        <pt x="45" y="248" on="1"/>
        <pt x="45" y="361" on="0"/>
        <pt x="242" y="365" on="1"/>
        <pt x="234" y="389" on="1"/>
      </contour>
      <contour>
        <pt x="139" y="78" on="1"/>
        <pt x="140" y="78" on="0"/>
        <pt x="240" y="116" on="1"/>
        <pt x="230" y="145" on="1"/>
        <pt x="230" y="264" on="1"/>
        <pt x="238" y="287" on="1"/>
        <pt x="197" y="286" on="0"/>
        <pt x="135" y="272" on="0"/>
        <pt x="135" y="260" on="1"/>
        <pt x="134" y="128" on="1"/>
        <pt x="134" y="78" on="0"/>
      </contour>
    </TTGlyph>
    <TTGlyph name="asciicircum" xMin="31" yMin="571" xMax="379" yMax="732">
      <contour>
        <pt x="190" y="732" on="1"/>
        <pt x="220" y="732" on="1"/>
        <pt x="379" y="659" on="1"/>
        <pt x="379" y="571" on="1"/>
        <pt x="204" y="650" on="1"/>
        <pt x="31" y="571" on="1"/>
        <pt x="31" y="660" on="1"/>
      </contour>
    </TTGlyph>
    <TTGlyph name="asciitilde" xMin="40" yMin="279" xMax="331" yMax="370">
      <contour>
        <pt x="112" y="370" on="1"/>
        <pt x="273" y="361" on="1"/>
        <pt x="291" y="361" on="0"/>
        <pt x="298" y="363" on="1"/>
        <pt x="331" y="361" on="1"/>
        <pt x="331" y="324" on="1"/>
        <pt x="331" y="290" on="0"/>
        <pt x="313" y="279" on="0"/>
        <pt x="259" y="279" on="1"/>
        <pt x="97" y="288" on="1"/>
        <pt x="80" y="288" on="0"/>
        <pt x="73" y="286" on="1"/>
        <pt x="40" y="288" on="1"/>
        <pt x="40" y="325" on="1"/>
        <pt x="40" y="359" on="0"/>
        <pt x="58" y="370" on="0"/>
      </contour>
    </TTGlyph>
    <TTGlyph name="asterisk" xMin="27" yMin="460" xMax="294" yMax="736">
      <contour>
        <pt x="195" y="460" on="1"/>
        <pt x="161" y="536" on="1"/>
        <pt x="125" y="462" on="1"/>
        <pt x="53" y="502" on="1"/>
        <pt x="108" y="566" on="1"/>
        <pt x="27" y="556" on="1"/>
        <pt x="27" y="638" on="1"/>
        <pt x="109" y="628" on="1"/>
        <pt x="53" y="694" on="1"/>
        <pt x="124" y="735" on="1"/>
        <pt x="161" y="660" on="1"/>
        <pt x="194" y="736" on="1"/>
        <pt x="266" y="695" on="1"/>
        <pt x="213" y="628" on="1"/>
        <pt x="293" y="638" on="1"/>
        <pt x="294" y="556" on="1"/>
        <pt x="211" y="566" on="1"/>
        <pt x="268" y="500" on="1"/>
      </contour>
    </TTGlyph>
    <TTGlyph name="at" xMin="41" yMin="-15" xMax="507" yMax="545">
      <contour>
        <pt x="292" y="331" on="1"/>
        <pt x="249" y="327" on="1"/>
        <pt x="238" y="264" on="1"/>
        <pt x="237" y="240" on="0"/>
        <pt x="247" y="225" on="1"/>
        <pt x="292" y="246" on="1"/>
      </contour>
      <contour>
        <pt x="369" y="409" on="1"/>
        <pt x="369" y="227" on="1"/>
        <pt x="371" y="227" on="1"/>
        <pt x="411" y="227" on="0"/>
        <pt x="426" y="247" on="0"/>
        <pt x="426" y="286" on="1"/>
        <pt x="426" y="443" on="1"/>
        <pt x="426" y="462" on="0"/>
        <pt x="408" y="462" on="1"/>
        <pt x="406" y="462" on="0"/>
        <pt x="404" y="462" on="1"/>
        <pt x="173" y="448" on="1"/>
        <pt x="150" y="447" on="0"/>
        <pt x="127" y="429" on="0"/>
        <pt x="124" y="412" on="0"/>
        <pt x="124" y="393" on="1"/>
        <pt x="124" y="198" on="0"/>
        <pt x="144" y="73" on="0"/>
        <pt x="190" y="73" on="1"/>
        <pt x="361" y="73" on="1"/>
        <pt x="406" y="73" on="0"/>
        <pt x="424" y="42" on="0"/>
        <pt x="424" y="-15" on="1"/>
        <pt x="187" y="-15" on="1"/>
        <pt x="101" y="-15" on="0"/>
        <pt x="43" y="101" on="0"/>
        <pt x="41" y="274" on="1"/>
        <pt x="41" y="307" on="0"/>
        <pt x="41" y="463" on="0"/>
        <pt x="88" y="526" on="0"/>
        <pt x="172" y="531" on="1"/>
        <pt x="400" y="544" on="1"/>
        <pt x="404" y="544" on="0"/>
        <pt x="409" y="544" on="1"/>
        <pt x="465" y="544" on="0"/>
        <pt x="507" y="492" on="0"/>
        <pt x="507" y="438" on="1"/>
        <pt x="507" y="288" on="1"/>
        <pt x="507" y="191" on="0"/>
        <pt x="490" y="175" on="1"/>
        <pt x="466" y="153" on="0"/>
        <pt x="406" y="149" on="0"/>
        <pt x="371" y="149" on="1"/>
        <pt x="361" y="149" on="1"/>
        <pt x="327" y="149" on="0"/>
        <pt x="313" y="166" on="1"/>
        <pt x="308" y="172" on="0"/>
        <pt x="302" y="183" on="1"/>
        <pt x="252" y="144" on="1"/>
        <pt x="228" y="144" on="0"/>
        <pt x="206" y="145" on="0"/>
        <pt x="183" y="157" on="0"/>
        <pt x="175" y="168" on="0"/>
        <pt x="168" y="207" on="0"/>
        <pt x="168" y="225" on="1"/>
        <pt x="168" y="317" on="1"/>
        <pt x="168" y="407" on="0"/>
        <pt x="311" y="409" on="1"/>
      </contour>
    </TTGlyph>
    <TTGlyph name="atilde" xMin="45" yMin="-7" xMax="322" yMax="716">
      <contour>
        <pt x="234" y="413" on="1"/>
        <pt x="235" y="440" on="1"/>
        <pt x="235" y="454" on="0"/>
        <pt x="229" y="456" on="0"/>
        <pt x="221" y="463" on="0"/>
        <pt x="208" y="459" on="0"/>
        <pt x="199" y="460" on="1"/>
        <pt x="145" y="453" on="1"/>
        <pt x="124" y="450" on="0"/>
        <pt x="94" y="450" on="0"/>
        <pt x="78" y="464" on="0"/>
        <pt x="70" y="521" on="1"/>
        <pt x="186" y="544" on="1"/>
        <pt x="257" y="544" on="0"/>
        <pt x="293" y="523" on="0"/>
        <pt x="309" y="509" on="0"/>
        <pt x="312" y="488" on="1"/>
        <pt x="317" y="462" on="0"/>
        <pt x="317" y="406" on="1"/>
        <pt x="317" y="0" on="1"/>
        <pt x="259" y="0" on="0"/>
        <pt x="229" y="12" on="0"/>
        <pt x="228" y="35" on="1"/>
        <pt x="145" y="-7" on="1"/>
        <pt x="117" y="-7" on="0"/>
        <pt x="90" y="-6" on="0"/>
        <pt x="63" y="10" on="0"/>
        <pt x="54" y="26" on="0"/>
        <pt x="50" y="52" on="1"/>
        <pt x="45" y="83" on="0"/>
        <pt x="45" y="179" on="1"/>
        <pt x="45" y="248" on="1"/>
        <pt x="45" y="361" on="0"/>
        <pt x="242" y="365" on="1"/>
        <pt x="234" y="389" on="1"/>
      </contour>
      <contour>
        <pt x="139" y="78" on="1"/>
        <pt x="140" y="78" on="0"/>
        <pt x="240" y="116" on="1"/>
        <pt x="230" y="145" on="1"/>
        <pt x="230" y="264" on="1"/>
        <pt x="238" y="287" on="1"/>
        <pt x="197" y="286" on="0"/>
        <pt x="135" y="272" on="0"/>
        <pt x="135" y="260" on="1"/>
        <pt x="134" y="128" on="1"/>
        <pt x="134" y="78" on="0"/>
      </contour>
      <contour>
        <pt x="123" y="716" on="1"/>
        <pt x="264" y="707" on="1"/>
        <pt x="283" y="707" on="0"/>
        <pt x="290" y="708" on="1"/>
        <pt x="322" y="707" on="1"/>
        <pt x="322" y="670" on="1"/>
        <pt x="322" y="636" on="0"/>
        <pt x="304" y="624" on="0"/>
        <pt x="224" y="624" on="0"/>
        <pt x="137" y="634" on="0"/>
        <pt x="91" y="634" on="0"/>
        <pt x="84" y="632" on="1"/>
        <pt x="51" y="634" on="1"/>
        <pt x="51" y="671" on="1"/>
        <pt x="51" y="705" on="0"/>
        <pt x="69" y="716" on="0"/>
      </contour>
    </TTGlyph>
    <TTGlyph name="b" xMin="55" yMin="-7" xMax="359" yMax="726">
      <contour>
        <pt x="55" y="0" on="1"/>
        <pt x="55" y="726" on="1"/>
        <pt x="121" y="726" on="0"/>
        <pt x="143" y="711" on="0"/>
        <pt x="143" y="665" on="1"/>
        <pt x="143" y="524" on="1"/>
        <pt x="201" y="544" on="1"/>
        <pt x="265" y="544" on="0"/>
        <pt x="308" y="518" on="0"/>
        <pt x="331" y="500" on="0"/>
        <pt x="346" y="458" on="0"/>
        <pt x="354" y="426" on="0"/>
        <pt x="356" y="393" on="1"/>
        <pt x="359" y="344" on="0"/>
        <pt x="359" y="193" on="0"/>
        <pt x="356" y="128" on="0"/>
        <pt x="342" y="45" on="0"/>
        <pt x="326" y="30" on="1"/>
        <pt x="283" y="-7" on="0"/>
        <pt x="204" y="-7" on="1"/>
        <pt x="143" y="34" on="1"/>
        <pt x="142" y="10" on="0"/>
        <pt x="115" y="0" on="0"/>
      </contour>
      <contour>
        <pt x="252" y="79" on="0"/>
        <pt x="269" y="153" on="0"/>
        <pt x="269" y="372" on="0"/>
        <pt x="251" y="456" on="0"/>
        <pt x="213" y="459" on="1"/>
        <pt x="134" y="440" on="1"/>
        <pt x="143" y="412" on="1"/>
        <pt x="143" y="144" on="1"/>
        <pt x="134" y="113" on="1"/>
        <pt x="212" y="78" on="1"/>
      </contour>
    </TTGlyph>
    <TTGlyph name="backslash" xMin="5" yMin="-187" xMax="392" yMax="720">
      <contour>
        <pt x="291" y="-187" on="1"/>
        <pt x="5" y="720" on="1"/>
        <pt x="105" y="720" on="1"/>
        <pt x="392" y="-187" on="1"/>
      </contour>
    </TTGlyph>
    <TTGlyph name="bar" xMin="45" yMin="-187" xMax="138" yMax="720">
      <contour>
        <pt x="45" y="-127" on="1"/>
        <pt x="45" y="720" on="1"/>
        <pt x="111" y="720" on="0"/>
        <pt x="138" y="704" on="0"/>
        <pt x="138" y="659" on="1"/>
        <pt x="138" y="-174" on="1"/>
        <pt x="125" y="-187" on="1"/>
        <pt x="65" y="-187" on="0"/>
        <pt x="45" y="-172" on="0"/>
      </contour>
    </TTGlyph>
    <TTGlyph name="braceleft" xMin="15" yMin="-65" xMax="240" yMax="757">
      <contour>
        <pt x="81" y="757" on="1"/>
        <pt x="173" y="757" on="1"/>
        <pt x="223" y="757" on="0"/>
        <pt x="240" y="738" on="0"/>
        <pt x="240" y="680" on="1"/>
        <pt x="165" y="680" on="1"/>
        <pt x="165" y="505" on="1"/>
        <pt x="95" y="351" on="1"/>
        <pt x="165" y="197" on="1"/>
        <pt x="165" y="12" on="1"/>
        <pt x="173" y="12" on="1"/>
        <pt x="223" y="12" on="0"/>
        <pt x="240" y="-7" on="0"/>
        <pt x="240" y="-65" on="1"/>
        <pt x="148" y="-65" on="1"/>
        <pt x="98" y="-65" on="0"/>
        <pt x="81" y="-50" on="0"/>
        <pt x="81" y="-5" on="1"/>
        <pt x="81" y="192" on="1"/>
        <pt x="15" y="335" on="1"/>
        <pt x="15" y="365" on="1"/>
        <pt x="81" y="510" on="1"/>
      </contour>
    </TTGlyph>
    <TTGlyph name="braceright" xMin="28" yMin="-65" xMax="253" yMax="757">
      <contour>
        <pt x="186" y="-5" on="1"/>
        <pt x="186" y="-50" on="0"/>
        <pt x="170" y="-65" on="0"/>
        <pt x="120" y="-65" on="1"/>
        <pt x="28" y="-65" on="1"/>
        <pt x="28" y="-7" on="0"/>
        <pt x="45" y="12" on="0"/>
        <pt x="95" y="12" on="1"/>
        <pt x="102" y="12" on="1"/>
        <pt x="102" y="197" on="1"/>
        <pt x="171" y="351" on="1"/>
        <pt x="102" y="505" on="1"/>
        <pt x="102" y="680" on="1"/>
        <pt x="28" y="680" on="1"/>
        <pt x="28" y="738" on="0"/>
        <pt x="45" y="757" on="0"/>
        <pt x="95" y="757" on="1"/>
        <pt x="186" y="757" on="1"/>
        <pt x="186" y="510" on="1"/>
        <pt x="253" y="365" on="1"/>
        <pt x="253" y="335" on="1"/>
        <pt x="186" y="192" on="1"/>
      </contour>
    </TTGlyph>
    <TTGlyph name="bracketleft" xMin="45" yMin="-65" xMax="204" yMax="757">
      <contour>
        <pt x="204" y="680" on="1"/>
        <pt x="129" y="680" on="1"/>
        <pt x="129" y="12" on="1"/>
        <pt x="137" y="12" on="1"/>
        <pt x="187" y="12" on="0"/>
        <pt x="204" y="-7" on="0"/>
        <pt x="204" y="-65" on="1"/>
        <pt x="112" y="-65" on="1"/>
        <pt x="62" y="-65" on="0"/>
        <pt x="45" y="-50" on="0"/>
        <pt x="45" y="-5" on="1"/>
        <pt x="45" y="757" on="1"/>
        <pt x="137" y="757" on="1"/>
        <pt x="187" y="757" on="0"/>
        <pt x="204" y="738" on="0"/>
      </contour>
    </TTGlyph>
    <TTGlyph name="bracketright" xMin="22" yMin="-65" xMax="182" yMax="757">
      <contour>
        <pt x="98" y="680" on="1"/>
        <pt x="22" y="680" on="1"/>
        <pt x="22" y="738" on="0"/>
        <pt x="39" y="757" on="0"/>
        <pt x="89" y="757" on="1"/>
        <pt x="182" y="757" on="1"/>
        <pt x="182" y="-5" on="1"/>
        <pt x="182" y="-50" on="0"/>
        <pt x="165" y="-65" on="0"/>
        <pt x="115" y="-65" on="1"/>
        <pt x="22" y="-65" on="1"/>
        <pt x="22" y="-7" on="0"/>
        <pt x="39" y="12" on="0"/>
        <pt x="89" y="12" on="1"/>
        <pt x="98" y="12" on="1"/>
      </contour>
    </TTGlyph>
    <TTGlyph name="breve" xMin="32" yMin="569" xMax="324" yMax="732">
      <contour>
        <pt x="160" y="732" on="1"/>
        <pt x="194" y="732" on="1"/>
        <pt x="324" y="659" on="1"/>
        <pt x="324" y="569" on="1"/>
        <pt x="178" y="649" on="1"/>
        <pt x="32" y="569" on="1"/>
        <pt x="32" y="660" on="1"/>
      </contour>
    </TTGlyph>
    <TTGlyph name="brokenbar" xMin="45" yMin="-184" xMax="138" yMax="720">
      <contour>
        <pt x="138" y="301" on="1"/>
        <pt x="124" y="301" on="1"/>
        <pt x="65" y="301" on="0"/>
        <pt x="45" y="316" on="0"/>
        <pt x="45" y="361" on="1"/>
        <pt x="45" y="720" on="1"/>
        <pt x="111" y="720" on="0"/>
        <pt x="138" y="704" on="0"/>
        <pt x="138" y="659" on="1"/>
      </contour>
      <contour>
        <pt x="138" y="-184" on="1"/>
        <pt x="124" y="-184" on="1"/>
        <pt x="65" y="-184" on="0"/>
        <pt x="45" y="-169" on="0"/>
        <pt x="45" y="-123" on="1"/>
        <pt x="45" y="235" on="1"/>
        <pt x="111" y="235" on="0"/>
        <pt x="138" y="219" on="0"/>
        <pt x="138" y="175" on="1"/>
      </contour>
    </TTGlyph>
    <TTGlyph name="bullet" xMin="32" yMin="218" xMax="195" yMax="380">
      <contour>
        <pt x="80" y="218" on="0"/>
        <pt x="32" y="266" on="0"/>
        <pt x="32" y="333" on="0"/>
        <pt x="80" y="380" on="0"/>
        <pt x="146" y="380" on="0"/>
        <pt x="195" y="332" on="0"/>
        <pt x="195" y="266" on="0"/>
        <pt x="146" y="218" on="0"/>
      </contour>
    </TTGlyph>
    <TTGlyph name="c" xMin="45" yMin="-7" xMax="308" yMax="544">
      <contour>
        <pt x="134" y="334" on="0"/>
        <pt x="134" y="208" on="0"/>
        <pt x="136" y="155" on="0"/>
        <pt x="147" y="96" on="0"/>
        <pt x="172" y="78" on="0"/>
        <pt x="213" y="78" on="0"/>
        <pt x="248" y="85" on="0"/>
        <pt x="290" y="96" on="0"/>
        <pt x="304" y="98" on="1"/>
        <pt x="304" y="20" on="1"/>
        <pt x="295" y="18" on="0"/>
        <pt x="219" y="-7" on="0"/>
        <pt x="170" y="-7" on="0"/>
        <pt x="131" y="0" on="0"/>
        <pt x="100" y="9" on="0"/>
        <pt x="78" y="34" on="0"/>
        <pt x="63" y="52" on="0"/>
        <pt x="53" y="96" on="0"/>
        <pt x="48" y="124" on="0"/>
        <pt x="45" y="189" on="0"/>
        <pt x="45" y="208" on="1"/>
        <pt x="45" y="332" on="1"/>
        <pt x="45" y="400" on="0"/>
        <pt x="53" y="443" on="0"/>
        <pt x="63" y="487" on="0"/>
        <pt x="78" y="504" on="0"/>
        <pt x="100" y="528" on="0"/>
        <pt x="116" y="532" on="1"/>
        <pt x="155" y="544" on="0"/>
        <pt x="195" y="544" on="1"/>
        <pt x="308" y="520" on="1"/>
        <pt x="300" y="463" on="0"/>
        <pt x="284" y="449" on="0"/>
        <pt x="254" y="449" on="0"/>
        <pt x="233" y="452" on="1"/>
        <pt x="195" y="459" on="1"/>
        <pt x="172" y="459" on="0"/>
        <pt x="147" y="443" on="0"/>
        <pt x="136" y="386" on="0"/>
      </contour>
    </TTGlyph>
    <TTGlyph name="c_s" xMin="45" yMin="-7" xMax="580" yMax="544">
      <contour>
        <pt x="393" y="398" on="1"/>
        <pt x="393" y="381" on="0"/>
        <pt x="451" y="329" on="0"/>
        <pt x="522" y="281" on="0"/>
        <pt x="580" y="210" on="0"/>
        <pt x="580" y="140" on="0"/>
        <pt x="578" y="104" on="0"/>
        <pt x="563" y="46" on="0"/>
        <pt x="535" y="16" on="0"/>
        <pt x="478" y="-7" on="0"/>
        <pt x="437" y="-7" on="1"/>
        <pt x="304" y="10" on="1"/>
        <pt x="195" y="-7" on="1"/>
        <pt x="114" y="-7" on="0"/>
        <pt x="89" y="22" on="1"/>
        <pt x="78" y="34" on="0"/>
        <pt x="63" y="52" on="0"/>
        <pt x="53" y="96" on="0"/>
        <pt x="48" y="124" on="0"/>
        <pt x="45" y="189" on="0"/>
        <pt x="45" y="208" on="1"/>
        <pt x="45" y="332" on="1"/>
        <pt x="45" y="400" on="0"/>
        <pt x="53" y="443" on="0"/>
        <pt x="63" y="487" on="0"/>
        <pt x="78" y="504" on="0"/>
        <pt x="100" y="528" on="0"/>
        <pt x="116" y="532" on="1"/>
        <pt x="155" y="544" on="0"/>
        <pt x="195" y="544" on="1"/>
        <pt x="288" y="520" on="1"/>
        <pt x="283" y="487" on="0"/>
        <pt x="277" y="459" on="0"/>
        <pt x="260" y="440" on="0"/>
        <pt x="236" y="443" on="0"/>
        <pt x="213" y="452" on="1"/>
        <pt x="195" y="459" on="1"/>
        <pt x="172" y="459" on="0"/>
        <pt x="147" y="443" on="0"/>
        <pt x="136" y="386" on="0"/>
        <pt x="134" y="334" on="0"/>
        <pt x="134" y="208" on="0"/>
        <pt x="136" y="155" on="0"/>
        <pt x="147" y="96" on="0"/>
        <pt x="172" y="78" on="0"/>
        <pt x="195" y="78" on="1"/>
        <pt x="304" y="88" on="1"/>
        <pt x="438" y="78" on="1"/>
        <pt x="462" y="78" on="0"/>
        <pt x="474" y="94" on="1"/>
        <pt x="484" y="105" on="0"/>
        <pt x="484" y="167" on="1"/>
        <pt x="484" y="191" on="0"/>
        <pt x="394" y="259" on="1"/>
        <pt x="360" y="284" on="0"/>
        <pt x="303" y="359" on="0"/>
        <pt x="303" y="425" on="0"/>
        <pt x="305" y="457" on="0"/>
        <pt x="320" y="504" on="0"/>
        <pt x="334" y="515" on="1"/>
        <pt x="373" y="544" on="0"/>
        <pt x="447" y="544" on="1"/>
        <pt x="564" y="520" on="1"/>
        <pt x="556" y="462" on="0"/>
        <pt x="541" y="449" on="0"/>
        <pt x="510" y="449" on="0"/>
        <pt x="489" y="452" on="1"/>
        <pt x="450" y="459" on="1"/>
        <pt x="409" y="459" on="0"/>
        <pt x="400" y="441" on="1"/>
        <pt x="393" y="427" on="0"/>
      </contour>
    </TTGlyph>
    <TTGlyph name="caron" xMin="31" yMin="568" xMax="323" yMax="732">
      <contour>
        <pt x="193" y="568" on="1"/>
        <pt x="159" y="568" on="1"/>
        <pt x="31" y="640" on="1"/>
        <pt x="31" y="732" on="1"/>
        <pt x="177" y="651" on="1"/>
        <pt x="323" y="732" on="1"/>
        <pt x="323" y="641" on="1"/>
      </contour>
    </TTGlyph>
    <TTGlyph name="ccedilla" xMin="45" yMin="-175" xMax="308" yMax="544">
      <contour>
        <pt x="134" y="334" on="0"/>
        <pt x="134" y="208" on="0"/>
        <pt x="136" y="155" on="0"/>
        <pt x="147" y="96" on="0"/>
        <pt x="172" y="78" on="0"/>
        <pt x="213" y="78" on="0"/>
        <pt x="248" y="85" on="0"/>
        <pt x="290" y="96" on="0"/>
        <pt x="304" y="98" on="1"/>
        <pt x="304" y="20" on="1"/>
        <pt x="291" y="17" on="0"/>
        <pt x="236" y="-2" on="0"/>
        <pt x="221" y="-4" on="1"/>
        <pt x="221" y="-117" on="1"/>
        <pt x="221" y="-155" on="0"/>
        <pt x="202" y="-175" on="0"/>
        <pt x="164" y="-175" on="1"/>
        <pt x="131" y="-175" on="1"/>
        <pt x="82" y="-175" on="0"/>
        <pt x="66" y="-157" on="0"/>
        <pt x="66" y="-103" on="1"/>
        <pt x="149" y="-103" on="1"/>
        <pt x="149" y="-3" on="1"/>
        <pt x="111" y="2" on="0"/>
        <pt x="83" y="26" on="1"/>
        <pt x="67" y="41" on="0"/>
        <pt x="53" y="94" on="1"/>
        <pt x="45" y="125" on="0"/>
        <pt x="45" y="219" on="1"/>
        <pt x="45" y="332" on="1"/>
        <pt x="45" y="400" on="0"/>
        <pt x="53" y="443" on="0"/>
        <pt x="63" y="487" on="0"/>
        <pt x="78" y="504" on="0"/>
        <pt x="100" y="528" on="0"/>
        <pt x="116" y="532" on="1"/>
        <pt x="155" y="544" on="0"/>
        <pt x="195" y="544" on="1"/>
        <pt x="308" y="520" on="1"/>
        <pt x="300" y="463" on="0"/>
        <pt x="284" y="449" on="0"/>
        <pt x="254" y="449" on="0"/>
        <pt x="233" y="452" on="1"/>
        <pt x="195" y="459" on="1"/>
        <pt x="172" y="459" on="0"/>
        <pt x="147" y="443" on="0"/>
        <pt x="136" y="386" on="0"/>
      </contour>
    </TTGlyph>
    <TTGlyph name="cedilla" xMin="15" yMin="-175" xMax="170" yMax="0">
      <contour>
        <pt x="15" y="-103" on="1"/>
        <pt x="98" y="-103" on="1"/>
        <pt x="98" y="0" on="1"/>
        <pt x="170" y="0" on="1"/>
        <pt x="170" y="-117" on="1"/>
        <pt x="170" y="-155" on="0"/>
        <pt x="151" y="-175" on="0"/>
        <pt x="113" y="-175" on="1"/>
        <pt x="80" y="-175" on="1"/>
        <pt x="31" y="-175" on="0"/>
        <pt x="15" y="-157" on="0"/>
      </contour>
    </TTGlyph>
    <TTGlyph name="cent" xMin="18" yMin="-112" xMax="283" yMax="629">
      <contour>
        <pt x="115" y="91" on="0"/>
        <pt x="142" y="72" on="0"/>
        <pt x="203" y="72" on="0"/>
        <pt x="283" y="82" on="1"/>
        <pt x="283" y="11" on="1"/>
        <pt x="278" y="10" on="0"/>
        <pt x="219" y="-4" on="0"/>
        <pt x="200" y="-5" on="1"/>
        <pt x="200" y="-112" on="1"/>
        <pt x="143" y="-112" on="0"/>
        <pt x="124" y="-98" on="0"/>
        <pt x="124" y="-54" on="1"/>
        <pt x="124" y="-4" on="1"/>
        <pt x="69" y="4" on="0"/>
        <pt x="50" y="37" on="1"/>
        <pt x="38" y="56" on="0"/>
        <pt x="25" y="90" on="0"/>
        <pt x="22" y="126" on="1"/>
        <pt x="18" y="175" on="0"/>
        <pt x="18" y="325" on="0"/>
        <pt x="19" y="378" on="0"/>
        <pt x="25" y="450" on="0"/>
        <pt x="38" y="483" on="0"/>
        <pt x="50" y="502" on="1"/>
        <pt x="70" y="533" on="0"/>
        <pt x="124" y="541" on="1"/>
        <pt x="124" y="629" on="1"/>
        <pt x="181" y="629" on="0"/>
        <pt x="200" y="614" on="0"/>
        <pt x="200" y="571" on="1"/>
        <pt x="200" y="542" on="1"/>
        <pt x="283" y="537" on="1"/>
        <pt x="283" y="483" on="0"/>
        <pt x="268" y="465" on="0"/>
        <pt x="222" y="465" on="1"/>
        <pt x="166" y="465" on="1"/>
        <pt x="121" y="465" on="0"/>
        <pt x="101" y="390" on="0"/>
        <pt x="101" y="206" on="0"/>
        <pt x="103" y="152" on="0"/>
      </contour>
    </TTGlyph>
    <TTGlyph name="circumflex" xMin="32" yMin="569" xMax="324" yMax="732">
      <contour>
        <pt x="160" y="732" on="1"/>
        <pt x="194" y="732" on="1"/>
        <pt x="324" y="659" on="1"/>
        <pt x="324" y="569" on="1"/>
        <pt x="178" y="649" on="1"/>
        <pt x="32" y="569" on="1"/>
        <pt x="32" y="660" on="1"/>
      </contour>
    </TTGlyph>
    <TTGlyph name="colon" xMin="34" yMin="0" xMax="161" yMax="537">
      <contour>
        <pt x="70" y="0" on="0"/>
        <pt x="34" y="36" on="0"/>
        <pt x="34" y="85" on="0"/>
        <pt x="70" y="119" on="0"/>
        <pt x="118" y="119" on="0"/>
        <pt x="154" y="85" on="0"/>
        <pt x="154" y="36" on="0"/>
        <pt x="118" y="0" on="0"/>
      </contour>
      <contour>
        <pt x="76" y="418" on="0"/>
        <pt x="40" y="454" on="0"/>
        <pt x="40" y="503" on="0"/>
        <pt x="76" y="537" on="0"/>
        <pt x="125" y="537" on="0"/>
        <pt x="161" y="503" on="0"/>
        <pt x="161" y="454" on="0"/>
        <pt x="124" y="418" on="0"/>
      </contour>
    </TTGlyph>
    <TTGlyph name="comma" xMin="26" yMin="-114" xMax="154" yMax="119">
      <contour>
        <pt x="48" y="19" on="1"/>
        <pt x="39" y="60" on="1"/>
        <pt x="39" y="85" on="0"/>
        <pt x="75" y="119" on="0"/>
        <pt x="100" y="119" on="1"/>
        <pt x="154" y="119" on="0"/>
        <pt x="154" y="65" on="1"/>
        <pt x="154" y="45" on="0"/>
        <pt x="117" y="-44" on="0"/>
        <pt x="98" y="-79" on="1"/>
        <pt x="80" y="-114" on="1"/>
        <pt x="31" y="-86" on="1"/>
        <pt x="26" y="-69" on="1"/>
        <pt x="48" y="-13" on="0"/>
      </contour>
    </TTGlyph>
    <TTGlyph name="copyright" xMin="31" yMin="0" xMax="599" yMax="587">
      <contour>
        <pt x="388" y="156" on="1"/>
        <pt x="323" y="143" on="0"/>
        <pt x="281" y="143" on="0"/>
        <pt x="246" y="159" on="0"/>
        <pt x="227" y="179" on="0"/>
        <pt x="218" y="226" on="0"/>
        <pt x="217" y="261" on="0"/>
        <pt x="217" y="335" on="0"/>
        <pt x="218" y="369" on="0"/>
        <pt x="227" y="415" on="0"/>
        <pt x="236" y="424" on="1"/>
        <pt x="261" y="449" on="0"/>
        <pt x="308" y="449" on="1"/>
        <pt x="387" y="445" on="1"/>
        <pt x="387" y="399" on="0"/>
        <pt x="376" y="384" on="0"/>
        <pt x="345" y="384" on="1"/>
        <pt x="308" y="384" on="1"/>
        <pt x="293" y="384" on="0"/>
        <pt x="286" y="348" on="0"/>
        <pt x="286" y="247" on="0"/>
        <pt x="293" y="212" on="0"/>
        <pt x="328" y="212" on="0"/>
        <pt x="388" y="222" on="1"/>
      </contour>
      <contour>
        <pt x="31" y="170" on="0"/>
        <pt x="31" y="416" on="0"/>
        <pt x="193" y="587" on="0"/>
        <pt x="436" y="587" on="0"/>
        <pt x="599" y="416" on="0"/>
        <pt x="599" y="170" on="0"/>
        <pt x="436" y="0" on="0"/>
        <pt x="193" y="0" on="0"/>
      </contour>
      <contour>
        <pt x="229" y="505" on="0"/>
        <pt x="113" y="382" on="0"/>
        <pt x="113" y="205" on="0"/>
        <pt x="229" y="82" on="0"/>
        <pt x="401" y="82" on="0"/>
        <pt x="517" y="205" on="0"/>
        <pt x="517" y="382" on="0"/>
        <pt x="401" y="505" on="0"/>
      </contour>
    </TTGlyph>
    <TTGlyph name="currency" xMin="60" yMin="185" xMax="430" yMax="554">
      <contour>
        <pt x="217" y="437" on="0"/>
        <pt x="178" y="398" on="0"/>
        <pt x="178" y="344" on="0"/>
        <pt x="217" y="307" on="0"/>
        <pt x="272" y="307" on="0"/>
        <pt x="311" y="345" on="0"/>
        <pt x="311" y="398" on="0"/>
        <pt x="271" y="437" on="0"/>
      </contour>
      <contour>
        <pt x="388" y="554" on="1"/>
        <pt x="423" y="517" on="0"/>
        <pt x="424" y="488" on="0"/>
        <pt x="394" y="459" on="1"/>
        <pt x="370" y="436" on="1"/>
        <pt x="385" y="406" on="0"/>
        <pt x="385" y="337" on="0"/>
        <pt x="366" y="304" on="1"/>
        <pt x="430" y="231" on="1"/>
        <pt x="396" y="195" on="0"/>
        <pt x="365" y="195" on="0"/>
        <pt x="336" y="224" on="1"/>
        <pt x="310" y="250" on="1"/>
        <pt x="278" y="234" on="0"/>
        <pt x="212" y="234" on="0"/>
        <pt x="180" y="249" on="1"/>
        <pt x="107" y="185" on="1"/>
        <pt x="71" y="221" on="0"/>
        <pt x="71" y="235" on="1"/>
        <pt x="71" y="240" on="0"/>
        <pt x="74" y="247" on="0"/>
        <pt x="75" y="251" on="0"/>
        <pt x="79" y="256" on="0"/>
        <pt x="81" y="259" on="0"/>
        <pt x="87" y="266" on="0"/>
        <pt x="91" y="269" on="0"/>
        <pt x="101" y="279" on="1"/>
        <pt x="125" y="303" on="1"/>
        <pt x="105" y="338" on="0"/>
        <pt x="105" y="412" on="0"/>
        <pt x="123" y="440" on="1"/>
        <pt x="60" y="512" on="1"/>
        <pt x="96" y="548" on="0"/>
        <pt x="127" y="548" on="0"/>
        <pt x="155" y="519" on="1"/>
        <pt x="179" y="493" on="1"/>
        <pt x="208" y="510" on="0"/>
        <pt x="281" y="510" on="0"/>
        <pt x="315" y="490" on="1"/>
      </contour>
    </TTGlyph>
    <TTGlyph name="d" xMin="45" yMin="-7" xMax="348" yMax="720">
      <contour>
        <pt x="45" y="193" on="0"/>
        <pt x="45" y="341" on="0"/>
        <pt x="48" y="407" on="0"/>
        <pt x="63" y="490" on="0"/>
        <pt x="80" y="506" on="1"/>
        <pt x="120" y="544" on="0"/>
        <pt x="203" y="544" on="1"/>
        <pt x="259" y="524" on="1"/>
        <pt x="259" y="720" on="1"/>
        <pt x="326" y="720" on="0"/>
        <pt x="348" y="705" on="0"/>
        <pt x="348" y="659" on="1"/>
        <pt x="348" y="0" on="1"/>
        <pt x="288" y="0" on="0"/>
        <pt x="260" y="10" on="0"/>
        <pt x="259" y="34" on="1"/>
        <pt x="198" y="-7" on="1"/>
        <pt x="119" y="-7" on="0"/>
        <pt x="78" y="30" on="1"/>
        <pt x="51" y="55" on="0"/>
        <pt x="46" y="160" on="1"/>
      </contour>
      <contour>
        <pt x="269" y="111" on="1"/>
        <pt x="259" y="143" on="1"/>
        <pt x="259" y="411" on="1"/>
        <pt x="268" y="439" on="1"/>
        <pt x="190" y="459" on="1"/>
        <pt x="152" y="456" on="0"/>
        <pt x="134" y="378" on="0"/>
        <pt x="134" y="146" on="0"/>
        <pt x="143" y="116" on="1"/>
        <pt x="154" y="79" on="0"/>
        <pt x="191" y="78" on="1"/>
      </contour>
    </TTGlyph>
    <TTGlyph name="dagger" xMin="8" yMin="3" xMax="290" yMax="728">
      <contour>
        <pt x="188" y="3" on="1"/>
        <pt x="108" y="3" on="1"/>
        <pt x="108" y="309" on="1"/>
        <pt x="118" y="342" on="1"/>
        <pt x="8" y="342" on="1"/>
        <pt x="8" y="411" on="1"/>
        <pt x="118" y="411" on="1"/>
        <pt x="108" y="444" on="1"/>
        <pt x="108" y="728" on="1"/>
        <pt x="188" y="728" on="1"/>
        <pt x="188" y="444" on="1"/>
        <pt x="178" y="411" on="1"/>
        <pt x="290" y="411" on="1"/>
        <pt x="290" y="342" on="1"/>
        <pt x="178" y="342" on="1"/>
        <pt x="188" y="309" on="1"/>
      </contour>
    </TTGlyph>
    <TTGlyph name="daggerdbl" xMin="10" yMin="3" xMax="292" yMax="728">
      <contour>
        <pt x="10" y="306" on="1"/>
        <pt x="10" y="375" on="1"/>
        <pt x="121" y="375" on="1"/>
        <pt x="113" y="412" on="1"/>
        <pt x="120" y="443" on="1"/>
        <pt x="10" y="443" on="1"/>
        <pt x="10" y="511" on="1"/>
        <pt x="120" y="511" on="1"/>
        <pt x="110" y="545" on="1"/>
        <pt x="110" y="728" on="1"/>
        <pt x="190" y="728" on="1"/>
        <pt x="190" y="545" on="1"/>
        <pt x="180" y="511" on="1"/>
        <pt x="292" y="511" on="1"/>
        <pt x="292" y="443" on="1"/>
        <pt x="179" y="443" on="1"/>
        <pt x="187" y="409" on="1"/>
        <pt x="180" y="375" on="1"/>
        <pt x="292" y="375" on="1"/>
        <pt x="292" y="306" on="1"/>
        <pt x="180" y="306" on="1"/>
        <pt x="190" y="273" on="1"/>
        <pt x="190" y="3" on="1"/>
        <pt x="110" y="3" on="1"/>
        <pt x="110" y="274" on="1"/>
        <pt x="120" y="306" on="1"/>
      </contour>
    </TTGlyph>
    <TTGlyph name="degree" xMin="31" yMin="461" xMax="315" yMax="732">
      <contour>
        <pt x="31" y="541" on="0"/>
        <pt x="31" y="653" on="0"/>
        <pt x="115" y="732" on="0"/>
        <pt x="231" y="732" on="0"/>
        <pt x="315" y="653" on="0"/>
        <pt x="315" y="541" on="0"/>
        <pt x="231" y="461" on="0"/>
        <pt x="115" y="461" on="0"/>
      </contour>
      <contour>
        <pt x="106" y="622" on="0"/>
        <pt x="106" y="572" on="0"/>
        <pt x="140" y="541" on="0"/>
        <pt x="206" y="541" on="0"/>
        <pt x="239" y="572" on="0"/>
        <pt x="239" y="597" on="1"/>
        <pt x="239" y="652" on="0"/>
        <pt x="173" y="652" on="1"/>
        <pt x="139" y="652" on="0"/>
      </contour>
    </TTGlyph>
    <TTGlyph name="dieresis" xMin="39" yMin="588" xMax="333" yMax="708">
      <contour>
        <pt x="76" y="588" on="0"/>
        <pt x="39" y="625" on="0"/>
        <pt x="39" y="674" on="0"/>
        <pt x="75" y="708" on="0"/>
        <pt x="123" y="708" on="0"/>
        <pt x="159" y="674" on="0"/>
        <pt x="159" y="625" on="0"/>
        <pt x="123" y="588" on="0"/>
      </contour>
      <contour>
        <pt x="249" y="588" on="0"/>
        <pt x="212" y="625" on="0"/>
        <pt x="212" y="674" on="0"/>
        <pt x="248" y="708" on="0"/>
        <pt x="297" y="708" on="0"/>
        <pt x="333" y="674" on="0"/>
        <pt x="333" y="625" on="0"/>
        <pt x="297" y="588" on="0"/>
      </contour>
    </TTGlyph>
    <TTGlyph name="divide" xMin="26" yMin="0" xMax="261" yMax="537">
      <contour>
        <pt x="114" y="0" on="0"/>
        <pt x="78" y="36" on="0"/>
        <pt x="78" y="85" on="0"/>
        <pt x="114" y="119" on="0"/>
        <pt x="162" y="119" on="0"/>
        <pt x="198" y="85" on="0"/>
        <pt x="198" y="36" on="0"/>
        <pt x="162" y="0" on="0"/>
      </contour>
      <contour>
        <pt x="120" y="418" on="0"/>
        <pt x="84" y="454" on="0"/>
        <pt x="84" y="503" on="0"/>
        <pt x="120" y="537" on="0"/>
        <pt x="169" y="537" on="0"/>
        <pt x="205" y="503" on="0"/>
        <pt x="205" y="454" on="0"/>
        <pt x="168" y="418" on="0"/>
      </contour>
      <contour>
        <pt x="26" y="333" on="1"/>
        <pt x="261" y="333" on="1"/>
        <pt x="261" y="251" on="1"/>
        <pt x="26" y="251" on="1"/>
      </contour>
    </TTGlyph>
    <TTGlyph name="dollar" xMin="46" yMin="-115" xMax="320" yMax="626">
      <contour>
        <pt x="57" y="82" on="1"/>
        <pt x="137" y="72" on="0"/>
        <pt x="195" y="72" on="0"/>
        <pt x="214" y="82" on="0"/>
        <pt x="224" y="93" on="0"/>
        <pt x="226" y="107" on="1"/>
        <pt x="229" y="128" on="0"/>
        <pt x="229" y="178" on="0"/>
        <pt x="172" y="238" on="0"/>
        <pt x="103" y="290" on="0"/>
        <pt x="46" y="363" on="0"/>
        <pt x="46" y="424" on="0"/>
        <pt x="47" y="451" on="0"/>
        <pt x="58" y="494" on="0"/>
        <pt x="68" y="505" on="1"/>
        <pt x="94" y="534" on="0"/>
        <pt x="150" y="541" on="1"/>
        <pt x="151" y="626" on="1"/>
        <pt x="206" y="626" on="0"/>
        <pt x="224" y="612" on="0"/>
        <pt x="224" y="568" on="1"/>
        <pt x="225" y="529" on="1"/>
        <pt x="285" y="517" on="1"/>
        <pt x="276" y="468" on="0"/>
        <pt x="262" y="453" on="0"/>
        <pt x="240" y="453" on="0"/>
        <pt x="230" y="455" on="1"/>
        <pt x="191" y="462" on="1"/>
        <pt x="180" y="464" on="0"/>
        <pt x="163" y="464" on="0"/>
        <pt x="144" y="459" on="0"/>
        <pt x="139" y="448" on="1"/>
        <pt x="131" y="429" on="0"/>
        <pt x="131" y="376" on="0"/>
        <pt x="190" y="317" on="0"/>
        <pt x="261" y="271" on="0"/>
        <pt x="320" y="205" on="0"/>
        <pt x="320" y="137" on="0"/>
        <pt x="316" y="96" on="0"/>
        <pt x="308" y="68" on="1"/>
        <pt x="294" y="14" on="0"/>
        <pt x="229" y="-2" on="1"/>
        <pt x="228" y="-115" on="1"/>
        <pt x="173" y="-115" on="0"/>
        <pt x="155" y="-100" on="0"/>
        <pt x="154" y="-57" on="1"/>
        <pt x="153" y="-3" on="1"/>
        <pt x="137" y="0" on="0"/>
        <pt x="73" y="8" on="0"/>
        <pt x="57" y="11" on="1"/>
      </contour>
    </TTGlyph>
    <TTGlyph name="dotaccent" xMin="31" yMin="598" xMax="167" yMax="733">
      <contour>
        <pt x="72" y="598" on="0"/>
        <pt x="31" y="639" on="0"/>
        <pt x="31" y="695" on="0"/>
        <pt x="71" y="733" on="0"/>
        <pt x="126" y="733" on="0"/>
        <pt x="167" y="694" on="0"/>
        <pt x="167" y="639" on="0"/>
        <pt x="125" y="598" on="0"/>
      </contour>
    </TTGlyph>
    <TTGlyph name="dotlessi" xMin="15" yMin="119" xMax="174" yMax="454">
      <contour>
        <pt x="90" y="378" on="1"/>
        <pt x="15" y="378" on="1"/>
        <pt x="15" y="435" on="0"/>
        <pt x="32" y="454" on="0"/>
        <pt x="82" y="454" on="1"/>
        <pt x="174" y="454" on="1"/>
        <pt x="174" y="119" on="1"/>
        <pt x="90" y="119" on="1"/>
      </contour>
    </TTGlyph>
    <TTGlyph name="e" xMin="46" yMin="-7" xMax="345" yMax="544">
      <contour>
        <pt x="201" y="78" on="1"/>
        <pt x="269" y="78" on="0"/>
        <pt x="339" y="88" on="1"/>
        <pt x="339" y="10" on="1"/>
        <pt x="246" y="-7" on="0"/>
        <pt x="168" y="-7" on="0"/>
        <pt x="121" y="4" on="0"/>
        <pt x="87" y="19" on="0"/>
        <pt x="65" y="55" on="0"/>
        <pt x="53" y="86" on="0"/>
        <pt x="50" y="118" on="1"/>
        <pt x="46" y="161" on="0"/>
        <pt x="46" y="258" on="0"/>
        <pt x="46" y="291" on="1"/>
        <pt x="46" y="343" on="1"/>
        <pt x="46" y="414" on="0"/>
        <pt x="54" y="449" on="0"/>
        <pt x="64" y="490" on="0"/>
        <pt x="80" y="507" on="0"/>
        <pt x="103" y="530" on="0"/>
        <pt x="118" y="534" on="1"/>
        <pt x="165" y="544" on="0"/>
        <pt x="239" y="544" on="0"/>
        <pt x="292" y="521" on="0"/>
        <pt x="321" y="487" on="0"/>
        <pt x="329" y="456" on="1"/>
        <pt x="342" y="407" on="0"/>
        <pt x="342" y="328" on="1"/>
        <pt x="345" y="260" on="1"/>
        <pt x="127" y="255" on="1"/>
        <pt x="135" y="232" on="1"/>
        <pt x="135" y="133" on="0"/>
        <pt x="154" y="78" on="0"/>
      </contour>
      <contour>
        <pt x="252" y="418" on="0"/>
        <pt x="233" y="459" on="0"/>
        <pt x="161" y="459" on="0"/>
        <pt x="140" y="423" on="0"/>
        <pt x="140" y="363" on="1"/>
        <pt x="132" y="341" on="1"/>
        <pt x="263" y="341" on="1"/>
        <pt x="253" y="363" on="1"/>
      </contour>
    </TTGlyph>
    <TTGlyph name="eacute" xMin="46" yMin="-7" xMax="345" yMax="773">
      <contour>
        <pt x="201" y="78" on="1"/>
        <pt x="269" y="78" on="0"/>
        <pt x="339" y="88" on="1"/>
        <pt x="339" y="10" on="1"/>
        <pt x="246" y="-7" on="0"/>
        <pt x="168" y="-7" on="0"/>
        <pt x="121" y="4" on="0"/>
        <pt x="87" y="19" on="0"/>
        <pt x="65" y="55" on="0"/>
        <pt x="53" y="86" on="0"/>
        <pt x="50" y="118" on="1"/>
        <pt x="46" y="161" on="0"/>
        <pt x="46" y="258" on="0"/>
        <pt x="46" y="291" on="1"/>
        <pt x="46" y="343" on="1"/>
        <pt x="46" y="414" on="0"/>
        <pt x="54" y="449" on="0"/>
        <pt x="64" y="490" on="0"/>
        <pt x="80" y="507" on="0"/>
        <pt x="103" y="530" on="0"/>
        <pt x="118" y="534" on="1"/>
        <pt x="165" y="544" on="0"/>
        <pt x="239" y="544" on="0"/>
        <pt x="292" y="521" on="0"/>
        <pt x="321" y="487" on="0"/>
        <pt x="329" y="456" on="1"/>
        <pt x="342" y="407" on="0"/>
        <pt x="342" y="328" on="1"/>
        <pt x="345" y="260" on="1"/>
        <pt x="127" y="255" on="1"/>
        <pt x="135" y="232" on="1"/>
        <pt x="135" y="133" on="0"/>
        <pt x="154" y="78" on="0"/>
      </contour>
      <contour>
        <pt x="252" y="418" on="0"/>
        <pt x="233" y="459" on="0"/>
        <pt x="161" y="459" on="0"/>
        <pt x="140" y="423" on="0"/>
        <pt x="140" y="363" on="1"/>
        <pt x="132" y="341" on="1"/>
        <pt x="263" y="341" on="1"/>
        <pt x="253" y="363" on="1"/>
      </contour>
      <contour>
        <pt x="325" y="745" on="1"/>
        <pt x="344" y="727" on="1"/>
        <pt x="212" y="595" on="1"/>
        <pt x="156" y="653" on="1"/>
        <pt x="229" y="736" on="1"/>
        <pt x="255" y="762" on="0"/>
        <pt x="274" y="773" on="0"/>
        <pt x="297" y="773" on="0"/>
      </contour>
    </TTGlyph>
    <TTGlyph name="ecircumflex" xMin="46" yMin="-7" xMax="364" yMax="769">
      <contour>
        <pt x="201" y="78" on="1"/>
        <pt x="269" y="78" on="0"/>
        <pt x="339" y="88" on="1"/>
        <pt x="339" y="10" on="1"/>
        <pt x="246" y="-7" on="0"/>
        <pt x="168" y="-7" on="0"/>
        <pt x="121" y="4" on="0"/>
        <pt x="87" y="19" on="0"/>
        <pt x="65" y="55" on="0"/>
        <pt x="53" y="86" on="0"/>
        <pt x="50" y="118" on="1"/>
        <pt x="46" y="161" on="0"/>
        <pt x="46" y="258" on="0"/>
        <pt x="46" y="291" on="1"/>
        <pt x="46" y="343" on="1"/>
        <pt x="46" y="414" on="0"/>
        <pt x="54" y="449" on="0"/>
        <pt x="64" y="490" on="0"/>
        <pt x="80" y="507" on="0"/>
        <pt x="103" y="530" on="0"/>
        <pt x="118" y="534" on="1"/>
        <pt x="165" y="544" on="0"/>
        <pt x="239" y="544" on="0"/>
        <pt x="292" y="521" on="0"/>
        <pt x="321" y="487" on="0"/>
        <pt x="329" y="456" on="1"/>
        <pt x="342" y="407" on="0"/>
        <pt x="342" y="328" on="1"/>
        <pt x="345" y="260" on="1"/>
        <pt x="127" y="255" on="1"/>
        <pt x="135" y="232" on="1"/>
        <pt x="135" y="133" on="0"/>
        <pt x="154" y="78" on="0"/>
      </contour>
      <contour>
        <pt x="252" y="418" on="0"/>
        <pt x="233" y="459" on="0"/>
        <pt x="161" y="459" on="0"/>
        <pt x="140" y="423" on="0"/>
        <pt x="140" y="363" on="1"/>
        <pt x="132" y="341" on="1"/>
        <pt x="263" y="341" on="1"/>
        <pt x="253" y="363" on="1"/>
      </contour>
      <contour>
        <pt x="200" y="769" on="1"/>
        <pt x="234" y="769" on="1"/>
        <pt x="364" y="696" on="1"/>
        <pt x="364" y="606" on="1"/>
        <pt x="218" y="686" on="1"/>
        <pt x="72" y="606" on="1"/>
        <pt x="72" y="697" on="1"/>
      </contour>
    </TTGlyph>
    <TTGlyph name="edieresis" xMin="46" yMin="-7" xMax="362" yMax="720">
      <contour>
        <pt x="201" y="78" on="1"/>
        <pt x="269" y="78" on="0"/>
        <pt x="339" y="88" on="1"/>
        <pt x="339" y="10" on="1"/>
        <pt x="246" y="-7" on="0"/>
        <pt x="168" y="-7" on="0"/>
        <pt x="121" y="4" on="0"/>
        <pt x="87" y="19" on="0"/>
        <pt x="65" y="55" on="0"/>
        <pt x="53" y="86" on="0"/>
        <pt x="50" y="118" on="1"/>
        <pt x="46" y="161" on="0"/>
        <pt x="46" y="258" on="0"/>
        <pt x="46" y="291" on="1"/>
        <pt x="46" y="343" on="1"/>
        <pt x="46" y="414" on="0"/>
        <pt x="54" y="449" on="0"/>
        <pt x="64" y="490" on="0"/>
        <pt x="80" y="507" on="0"/>
        <pt x="103" y="530" on="0"/>
        <pt x="118" y="534" on="1"/>
        <pt x="165" y="544" on="0"/>
        <pt x="239" y="544" on="0"/>
        <pt x="292" y="521" on="0"/>
        <pt x="321" y="487" on="0"/>
        <pt x="329" y="456" on="1"/>
        <pt x="342" y="407" on="0"/>
        <pt x="342" y="328" on="1"/>
        <pt x="345" y="260" on="1"/>
        <pt x="127" y="255" on="1"/>
        <pt x="135" y="232" on="1"/>
        <pt x="135" y="133" on="0"/>
        <pt x="154" y="78" on="0"/>
      </contour>
      <contour>
        <pt x="252" y="418" on="0"/>
        <pt x="233" y="459" on="0"/>
        <pt x="161" y="459" on="0"/>
        <pt x="140" y="423" on="0"/>
        <pt x="140" y="363" on="1"/>
        <pt x="132" y="341" on="1"/>
        <pt x="263" y="341" on="1"/>
        <pt x="253" y="363" on="1"/>
      </contour>
      <contour>
        <pt x="105" y="600" on="0"/>
        <pt x="68" y="637" on="0"/>
        <pt x="68" y="686" on="0"/>
        <pt x="104" y="720" on="0"/>
        <pt x="152" y="720" on="0"/>
        <pt x="188" y="686" on="0"/>
        <pt x="188" y="637" on="0"/>
        <pt x="152" y="600" on="0"/>
      </contour>
      <contour>
        <pt x="278" y="600" on="0"/>
        <pt x="241" y="637" on="0"/>
        <pt x="241" y="686" on="0"/>
        <pt x="277" y="720" on="0"/>
        <pt x="326" y="720" on="0"/>
        <pt x="362" y="686" on="0"/>
        <pt x="362" y="637" on="0"/>
        <pt x="326" y="600" on="0"/>
      </contour>
    </TTGlyph>
    <TTGlyph name="egrave" xMin="46" yMin="-7" xMax="345" yMax="771">
      <contour>
        <pt x="201" y="78" on="1"/>
        <pt x="269" y="78" on="0"/>
        <pt x="339" y="88" on="1"/>
        <pt x="339" y="10" on="1"/>
        <pt x="246" y="-7" on="0"/>
        <pt x="168" y="-7" on="0"/>
        <pt x="121" y="4" on="0"/>
        <pt x="87" y="19" on="0"/>
        <pt x="65" y="55" on="0"/>
        <pt x="53" y="86" on="0"/>
        <pt x="50" y="118" on="1"/>
        <pt x="46" y="161" on="0"/>
        <pt x="46" y="258" on="0"/>
        <pt x="46" y="291" on="1"/>
        <pt x="46" y="343" on="1"/>
        <pt x="46" y="414" on="0"/>
        <pt x="54" y="449" on="0"/>
        <pt x="64" y="490" on="0"/>
        <pt x="80" y="507" on="0"/>
        <pt x="103" y="530" on="0"/>
        <pt x="118" y="534" on="1"/>
        <pt x="165" y="544" on="0"/>
        <pt x="239" y="544" on="0"/>
        <pt x="292" y="521" on="0"/>
        <pt x="321" y="487" on="0"/>
        <pt x="329" y="456" on="1"/>
        <pt x="342" y="407" on="0"/>
        <pt x="342" y="328" on="1"/>
        <pt x="345" y="260" on="1"/>
        <pt x="127" y="255" on="1"/>
        <pt x="135" y="232" on="1"/>
        <pt x="135" y="133" on="0"/>
        <pt x="154" y="78" on="0"/>
      </contour>
      <contour>
        <pt x="252" y="418" on="0"/>
        <pt x="233" y="459" on="0"/>
        <pt x="161" y="459" on="0"/>
        <pt x="140" y="423" on="0"/>
        <pt x="140" y="363" on="1"/>
        <pt x="132" y="341" on="1"/>
        <pt x="263" y="341" on="1"/>
        <pt x="253" y="363" on="1"/>
      </contour>
      <contour>
        <pt x="132" y="752" on="1"/>
        <pt x="151" y="771" on="0"/>
        <pt x="174" y="771" on="0"/>
        <pt x="182" y="766" on="1"/>
        <pt x="194" y="760" on="0"/>
        <pt x="218" y="734" on="1"/>
        <pt x="293" y="651" on="1"/>
        <pt x="237" y="593" on="1"/>
        <pt x="105" y="725" on="1"/>
      </contour>
    </TTGlyph>
    <TTGlyph name="eight" xMin="30" yMin="-7" xMax="366" yMax="727">
      <contour>
        <pt x="273" y="-7" on="0"/>
        <pt x="123" y="-7" on="0"/>
        <pt x="30" y="107" on="0"/>
        <pt x="30" y="321" on="0"/>
        <pt x="103" y="388" on="1"/>
        <pt x="49" y="448" on="0"/>
        <pt x="49" y="640" on="0"/>
        <pt x="134" y="727" on="0"/>
        <pt x="262" y="727" on="0"/>
        <pt x="348" y="639" on="0"/>
        <pt x="348" y="443" on="0"/>
        <pt x="296" y="381" on="1"/>
        <pt x="366" y="316" on="0"/>
        <pt x="366" y="108" on="0"/>
      </contour>
      <contour>
        <pt x="164" y="81" on="0"/>
        <pt x="232" y="81" on="0"/>
        <pt x="272" y="149" on="0"/>
        <pt x="272" y="271" on="0"/>
        <pt x="225" y="343" on="0"/>
        <pt x="170" y="343" on="0"/>
        <pt x="123" y="270" on="0"/>
        <pt x="123" y="149" on="0"/>
      </contour>
      <contour>
        <pt x="198" y="432" on="1"/>
        <pt x="255" y="432" on="0"/>
        <pt x="255" y="640" on="0"/>
        <pt x="198" y="640" on="1"/>
        <pt x="143" y="640" on="0"/>
        <pt x="143" y="432" on="0"/>
      </contour>
    </TTGlyph>
    <TTGlyph name="ellipsis" xMin="41" yMin="3" xMax="424" yMax="110">
      <contour>
        <pt x="41" y="35" on="0"/>
        <pt x="41" y="79" on="0"/>
        <pt x="73" y="110" on="0"/>
        <pt x="117" y="110" on="0"/>
        <pt x="149" y="79" on="0"/>
        <pt x="149" y="35" on="0"/>
        <pt x="117" y="3" on="0"/>
        <pt x="73" y="3" on="0"/>
      </contour>
      <contour>
        <pt x="182" y="35" on="0"/>
        <pt x="182" y="79" on="0"/>
        <pt x="214" y="110" on="0"/>
        <pt x="257" y="110" on="0"/>
        <pt x="289" y="79" on="0"/>
        <pt x="289" y="35" on="0"/>
        <pt x="257" y="3" on="0"/>
        <pt x="214" y="3" on="0"/>
      </contour>
      <contour>
        <pt x="316" y="35" on="0"/>
        <pt x="316" y="79" on="0"/>
        <pt x="349" y="110" on="0"/>
        <pt x="392" y="110" on="0"/>
        <pt x="424" y="79" on="0"/>
        <pt x="424" y="35" on="0"/>
        <pt x="392" y="3" on="0"/>
        <pt x="349" y="3" on="0"/>
      </contour>
    </TTGlyph>
    <TTGlyph name="emdash" xMin="45" yMin="281" xMax="539" yMax="363">
      <contour>
        <pt x="45" y="363" on="1"/>
        <pt x="539" y="363" on="1"/>
        <pt x="539" y="281" on="1"/>
        <pt x="45" y="281" on="1"/>
      </contour>
    </TTGlyph>
    <TTGlyph name="endash" xMin="45" yMin="281" xMax="334" yMax="363">
      <contour>
        <pt x="45" y="363" on="1"/>
        <pt x="334" y="363" on="1"/>
        <pt x="334" y="281" on="1"/>
        <pt x="45" y="281" on="1"/>
      </contour>
    </TTGlyph>
    <TTGlyph name="equal" xMin="45" yMin="196" xMax="334" yMax="411">
      <contour>
        <pt x="45" y="411" on="1"/>
        <pt x="334" y="411" on="1"/>
        <pt x="334" y="328" on="1"/>
        <pt x="45" y="328" on="1"/>
      </contour>
      <contour>
        <pt x="45" y="279" on="1"/>
        <pt x="334" y="279" on="1"/>
        <pt x="334" y="196" on="1"/>
        <pt x="45" y="196" on="1"/>
      </contour>
    </TTGlyph>
    <TTGlyph name="eth" xMin="26" yMin="0" xMax="336" yMax="720">
      <contour>
        <pt x="179" y="410" on="1"/>
        <pt x="177" y="411" on="1"/>
      </contour>
      <contour>
        <pt x="139" y="409" on="0"/>
        <pt x="119" y="351" on="0"/>
        <pt x="119" y="140" on="0"/>
        <pt x="137" y="84" on="0"/>
        <pt x="226" y="84" on="0"/>
        <pt x="236" y="120" on="1"/>
        <pt x="243" y="149" on="0"/>
        <pt x="243" y="271" on="0"/>
        <pt x="243" y="295" on="1"/>
        <pt x="242" y="385" on="1"/>
        <pt x="179" y="410" on="1"/>
      </contour>
      <contour>
        <pt x="142" y="632" on="1"/>
        <pt x="142" y="720" on="1"/>
        <pt x="203" y="720" on="0"/>
        <pt x="236" y="698" on="1"/>
        <pt x="254" y="686" on="0"/>
        <pt x="283" y="661" on="0"/>
        <pt x="304" y="615" on="0"/>
        <pt x="318" y="579" on="0"/>
        <pt x="328" y="514" on="0"/>
        <pt x="333" y="469" on="0"/>
        <pt x="334" y="430" on="1"/>
        <pt x="336" y="350" on="0"/>
        <pt x="336" y="295" on="1"/>
        <pt x="336" y="100" on="0"/>
        <pt x="290" y="0" on="0"/>
        <pt x="180" y="0" on="1"/>
        <pt x="126" y="0" on="0"/>
        <pt x="90" y="12" on="0"/>
        <pt x="68" y="20" on="0"/>
        <pt x="51" y="42" on="0"/>
        <pt x="40" y="57" on="0"/>
        <pt x="32" y="95" on="0"/>
        <pt x="28" y="120" on="0"/>
        <pt x="26" y="175" on="0"/>
        <pt x="26" y="194" on="1"/>
        <pt x="26" y="250" on="1"/>
        <pt x="26" y="410" on="0"/>
        <pt x="71" y="494" on="0"/>
        <pt x="183" y="494" on="1"/>
        <pt x="234" y="471" on="1"/>
        <pt x="226" y="556" on="0"/>
        <pt x="185" y="632" on="0"/>
      </contour>
    </TTGlyph>
    <TTGlyph name="exclam" xMin="33" yMin="-1" xMax="176" yMax="706">
      <contour>
        <pt x="121" y="118" on="0"/>
        <pt x="153" y="79" on="0"/>
        <pt x="153" y="58" on="1"/>
        <pt x="153" y="31" on="0"/>
        <pt x="115" y="0" on="0"/>
        <pt x="94" y="0" on="1"/>
        <pt x="67" y="0" on="0"/>
        <pt x="34" y="38" on="0"/>
        <pt x="34" y="85" on="0"/>
        <pt x="73" y="118" on="0"/>
      </contour>
      <contour>
        <pt x="109" y="171" on="1"/>
        <pt x="63" y="175" on="1"/>
        <pt x="77" y="651" on="1"/>
        <pt x="78" y="693" on="0"/>
        <pt x="94" y="701" on="1"/>
        <pt x="105" y="706" on="0"/>
        <pt x="151" y="706" on="0"/>
        <pt x="176" y="704" on="1"/>
        <pt x="153" y="226" on="1"/>
        <pt x="151" y="205" on="0"/>
        <pt x="151" y="196" on="0"/>
        <pt x="142" y="175" on="0"/>
        <pt x="140" y="175" on="1"/>
      </contour>
    </TTGlyph>
    <TTGlyph name="exclamdown" xMin="21" yMin="-158" xMax="145" yMax="549">
      <contour>
        <pt x="145" y="514" on="0"/>
        <pt x="145" y="464" on="0"/>
        <pt x="109" y="428" on="0"/>
        <pt x="60" y="428" on="0"/>
        <pt x="24" y="464" on="0"/>
        <pt x="24" y="514" on="0"/>
        <pt x="60" y="549" on="0"/>
        <pt x="109" y="549" on="0"/>
      </contour>
      <contour>
        <pt x="128" y="379" on="1"/>
        <pt x="119" y="-97" on="1"/>
        <pt x="118" y="-141" on="0"/>
        <pt x="89" y="-158" on="0"/>
        <pt x="21" y="-158" on="1"/>
        <pt x="40" y="328" on="1"/>
        <pt x="41" y="366" on="0"/>
        <pt x="63" y="379" on="0"/>
      </contour>
    </TTGlyph>
    <TTGlyph name="f" xMin="20" yMin="-187" xMax="246" yMax="720">
      <contour>
        <pt x="244" y="537" on="1"/>
        <pt x="244" y="453" on="1"/>
        <pt x="144" y="453" on="1"/>
        <pt x="154" y="424" on="1"/>
        <pt x="154" y="-117" on="1"/>
        <pt x="153" y="-170" on="0"/>
        <pt x="132" y="-187" on="0"/>
        <pt x="65" y="-187" on="1"/>
        <pt x="66" y="424" on="1"/>
        <pt x="75" y="453" on="1"/>
        <pt x="20" y="453" on="1"/>
        <pt x="20" y="537" on="1"/>
        <pt x="75" y="537" on="1"/>
        <pt x="66" y="562" on="1"/>
        <pt x="66" y="612" on="1"/>
        <pt x="66" y="627" on="0"/>
        <pt x="72" y="672" on="0"/>
        <pt x="78" y="685" on="0"/>
        <pt x="99" y="708" on="0"/>
        <pt x="119" y="712" on="0"/>
        <pt x="164" y="720" on="0"/>
        <pt x="186" y="720" on="1"/>
        <pt x="246" y="720" on="1"/>
        <pt x="246" y="649" on="1"/>
        <pt x="178" y="649" on="0"/>
        <pt x="155" y="627" on="0"/>
        <pt x="155" y="560" on="1"/>
        <pt x="145" y="537" on="1"/>
      </contour>
    </TTGlyph>
    <TTGlyph name="f_f_i" xMin="20" yMin="-187" xMax="604" yMax="720">
      <contour>
        <pt x="515" y="56" on="1"/>
        <pt x="515" y="453" on="1"/>
        <pt x="365" y="453" on="1"/>
        <pt x="375" y="424" on="1"/>
        <pt x="375" y="-147" on="1"/>
        <pt x="375" y="-155" on="0"/>
        <pt x="367" y="-177" on="0"/>
        <pt x="361" y="-181" on="0"/>
        <pt x="335" y="-187" on="0"/>
        <pt x="324" y="-187" on="1"/>
        <pt x="324" y="-187" on="0"/>
        <pt x="286" y="-187" on="1"/>
        <pt x="287" y="424" on="1"/>
        <pt x="296" y="453" on="1"/>
        <pt x="144" y="453" on="1"/>
        <pt x="154" y="424" on="1"/>
        <pt x="154" y="-117" on="1"/>
        <pt x="153" y="-170" on="0"/>
        <pt x="132" y="-187" on="0"/>
        <pt x="65" y="-187" on="1"/>
        <pt x="66" y="424" on="1"/>
        <pt x="75" y="453" on="1"/>
        <pt x="20" y="453" on="1"/>
        <pt x="20" y="537" on="1"/>
        <pt x="75" y="537" on="1"/>
        <pt x="66" y="562" on="1"/>
        <pt x="66" y="562" on="0"/>
        <pt x="66" y="612" on="1"/>
        <pt x="66" y="627" on="0"/>
        <pt x="72" y="672" on="0"/>
        <pt x="78" y="685" on="0"/>
        <pt x="99" y="708" on="0"/>
        <pt x="119" y="712" on="0"/>
        <pt x="164" y="720" on="0"/>
        <pt x="186" y="720" on="1"/>
        <pt x="246" y="720" on="1"/>
        <pt x="246" y="649" on="1"/>
        <pt x="178" y="649" on="0"/>
        <pt x="155" y="627" on="0"/>
        <pt x="155" y="560" on="1"/>
        <pt x="145" y="537" on="1"/>
        <pt x="296" y="537" on="1"/>
        <pt x="287" y="562" on="1"/>
        <pt x="287" y="612" on="1"/>
        <pt x="287" y="627" on="0"/>
        <pt x="293" y="672" on="0"/>
        <pt x="299" y="685" on="0"/>
        <pt x="320" y="708" on="0"/>
        <pt x="340" y="712" on="0"/>
        <pt x="385" y="720" on="0"/>
        <pt x="407" y="720" on="1"/>
        <pt x="604" y="720" on="1"/>
        <pt x="604" y="649" on="1"/>
        <pt x="466" y="649" on="1"/>
        <pt x="399" y="649" on="0"/>
        <pt x="376" y="626" on="0"/>
        <pt x="376" y="560" on="1"/>
        <pt x="366" y="537" on="1"/>
        <pt x="515" y="537" on="1"/>
        <pt x="582" y="537" on="0"/>
        <pt x="604" y="522" on="0"/>
        <pt x="604" y="477" on="1"/>
        <pt x="604" y="-4" on="1"/>
        <pt x="537" y="-4" on="0"/>
        <pt x="515" y="11" on="0"/>
      </contour>
    </TTGlyph>
    <TTGlyph name="f_f_l" xMin="20" yMin="-187" xMax="626" yMax="720">
      <contour>
        <pt x="626" y="659" on="1"/>
        <pt x="626" y="-4" on="1"/>
        <pt x="559" y="-4" on="0"/>
        <pt x="537" y="11" on="0"/>
        <pt x="537" y="56" on="1"/>
        <pt x="537" y="649" on="1"/>
        <pt x="469" y="649" on="1"/>
        <pt x="401" y="649" on="0"/>
        <pt x="378" y="627" on="0"/>
        <pt x="378" y="560" on="1"/>
        <pt x="368" y="537" on="1"/>
        <pt x="467" y="537" on="1"/>
        <pt x="467" y="453" on="1"/>
        <pt x="367" y="453" on="1"/>
        <pt x="377" y="424" on="1"/>
        <pt x="377" y="-117" on="1"/>
        <pt x="376" y="-170" on="0"/>
        <pt x="355" y="-187" on="0"/>
        <pt x="288" y="-187" on="1"/>
        <pt x="289" y="424" on="1"/>
        <pt x="298" y="453" on="1"/>
        <pt x="144" y="453" on="1"/>
        <pt x="154" y="424" on="1"/>
        <pt x="154" y="-117" on="1"/>
        <pt x="153" y="-170" on="0"/>
        <pt x="132" y="-187" on="0"/>
        <pt x="65" y="-187" on="1"/>
        <pt x="66" y="424" on="1"/>
        <pt x="75" y="453" on="1"/>
        <pt x="20" y="453" on="1"/>
        <pt x="20" y="537" on="1"/>
        <pt x="75" y="537" on="1"/>
        <pt x="66" y="562" on="1"/>
        <pt x="66" y="562" on="0"/>
        <pt x="66" y="612" on="1"/>
        <pt x="66" y="627" on="0"/>
        <pt x="72" y="672" on="0"/>
        <pt x="78" y="685" on="0"/>
        <pt x="99" y="708" on="0"/>
        <pt x="119" y="712" on="0"/>
        <pt x="164" y="720" on="0"/>
        <pt x="186" y="720" on="1"/>
        <pt x="246" y="720" on="1"/>
        <pt x="246" y="649" on="1"/>
        <pt x="178" y="649" on="0"/>
        <pt x="155" y="627" on="0"/>
        <pt x="155" y="560" on="1"/>
        <pt x="145" y="537" on="1"/>
        <pt x="298" y="537" on="1"/>
        <pt x="289" y="562" on="1"/>
        <pt x="289" y="612" on="1"/>
        <pt x="289" y="627" on="0"/>
        <pt x="295" y="672" on="0"/>
        <pt x="301" y="685" on="0"/>
        <pt x="322" y="708" on="0"/>
        <pt x="342" y="712" on="0"/>
        <pt x="387" y="720" on="0"/>
        <pt x="409" y="720" on="1"/>
        <pt x="537" y="720" on="1"/>
        <pt x="603" y="720" on="0"/>
        <pt x="626" y="705" on="0"/>
      </contour>
    </TTGlyph>
    <TTGlyph name="f_t" xMin="20" yMin="-187" xMax="486" yMax="720">
      <contour>
        <pt x="286" y="625" on="1"/>
        <pt x="354" y="625" on="0"/>
        <pt x="376" y="612" on="0"/>
        <pt x="376" y="571" on="1"/>
        <pt x="368" y="537" on="1"/>
        <pt x="468" y="537" on="1"/>
        <pt x="468" y="480" on="0"/>
        <pt x="447" y="453" on="0"/>
        <pt x="396" y="453" on="1"/>
        <pt x="367" y="453" on="1"/>
        <pt x="376" y="428" on="1"/>
        <pt x="376" y="230" on="1"/>
        <pt x="376" y="145" on="0"/>
        <pt x="389" y="82" on="0"/>
        <pt x="410" y="78" on="1"/>
        <pt x="486" y="78" on="1"/>
        <pt x="486" y="0" on="1"/>
        <pt x="405" y="-5" on="1"/>
        <pt x="356" y="-5" on="0"/>
        <pt x="323" y="15" on="0"/>
        <pt x="307" y="27" on="0"/>
        <pt x="295" y="64" on="0"/>
        <pt x="289" y="87" on="0"/>
        <pt x="286" y="148" on="0"/>
        <pt x="286" y="168" on="1"/>
        <pt x="286" y="428" on="1"/>
        <pt x="294" y="453" on="1"/>
        <pt x="144" y="453" on="1"/>
        <pt x="154" y="424" on="1"/>
        <pt x="154" y="-117" on="1"/>
        <pt x="153" y="-170" on="0"/>
        <pt x="132" y="-187" on="0"/>
        <pt x="65" y="-187" on="1"/>
        <pt x="66" y="424" on="1"/>
        <pt x="75" y="453" on="1"/>
        <pt x="20" y="453" on="1"/>
        <pt x="20" y="537" on="1"/>
        <pt x="75" y="537" on="1"/>
        <pt x="66" y="562" on="1"/>
        <pt x="66" y="612" on="1"/>
        <pt x="66" y="627" on="0"/>
        <pt x="72" y="672" on="0"/>
        <pt x="78" y="685" on="0"/>
        <pt x="99" y="708" on="0"/>
        <pt x="119" y="712" on="0"/>
        <pt x="164" y="720" on="0"/>
        <pt x="186" y="720" on="1"/>
        <pt x="246" y="720" on="1"/>
        <pt x="246" y="649" on="1"/>
        <pt x="178" y="649" on="0"/>
        <pt x="155" y="627" on="0"/>
        <pt x="155" y="560" on="1"/>
        <pt x="145" y="537" on="1"/>
        <pt x="294" y="537" on="1"/>
        <pt x="286" y="574" on="1"/>
      </contour>
    </TTGlyph>
    <TTGlyph name="f_u" xMin="20" yMin="-187" xMax="575" yMax="720">
      <contour>
        <pt x="485" y="537" on="1"/>
        <pt x="552" y="537" on="0"/>
        <pt x="575" y="522" on="0"/>
        <pt x="575" y="477" on="1"/>
        <pt x="575" y="0" on="1"/>
        <pt x="516" y="0" on="0"/>
        <pt x="486" y="7" on="0"/>
        <pt x="485" y="27" on="1"/>
        <pt x="421" y="-7" on="1"/>
        <pt x="342" y="-7" on="0"/>
        <pt x="298" y="32" on="1"/>
        <pt x="270" y="56" on="0"/>
        <pt x="266" y="164" on="1"/>
        <pt x="264" y="197" on="0"/>
        <pt x="264" y="271" on="1"/>
        <pt x="264" y="453" on="1"/>
        <pt x="144" y="453" on="1"/>
        <pt x="154" y="424" on="1"/>
        <pt x="154" y="-117" on="1"/>
        <pt x="153" y="-170" on="0"/>
        <pt x="132" y="-187" on="0"/>
        <pt x="65" y="-187" on="1"/>
        <pt x="66" y="424" on="1"/>
        <pt x="75" y="453" on="1"/>
        <pt x="20" y="453" on="1"/>
        <pt x="20" y="537" on="1"/>
        <pt x="75" y="537" on="1"/>
        <pt x="66" y="562" on="1"/>
        <pt x="66" y="612" on="1"/>
        <pt x="66" y="627" on="0"/>
        <pt x="72" y="672" on="0"/>
        <pt x="78" y="685" on="0"/>
        <pt x="99" y="708" on="0"/>
        <pt x="119" y="712" on="0"/>
        <pt x="164" y="720" on="0"/>
        <pt x="186" y="720" on="1"/>
        <pt x="186" y="720" on="0"/>
        <pt x="246" y="720" on="1"/>
        <pt x="246" y="649" on="1"/>
        <pt x="178" y="649" on="0"/>
        <pt x="155" y="627" on="0"/>
        <pt x="155" y="560" on="1"/>
        <pt x="145" y="537" on="1"/>
        <pt x="264" y="537" on="1"/>
        <pt x="331" y="537" on="0"/>
        <pt x="353" y="522" on="0"/>
        <pt x="353" y="477" on="1"/>
        <pt x="353" y="273" on="1"/>
        <pt x="353" y="156" on="0"/>
        <pt x="364" y="118" on="0"/>
        <pt x="370" y="104" on="1"/>
        <pt x="380" y="80" on="0"/>
        <pt x="411" y="78" on="1"/>
        <pt x="495" y="113" on="1"/>
        <pt x="485" y="143" on="1"/>
      </contour>
    </TTGlyph>
    <TTGlyph name="fi" xMin="20" yMin="-187" xMax="370" yMax="720">
      <contour>
        <pt x="280" y="537" on="1"/>
        <pt x="347" y="537" on="0"/>
        <pt x="369" y="522" on="0"/>
        <pt x="369" y="477" on="1"/>
        <pt x="369" y="-4" on="1"/>
        <pt x="302" y="-4" on="0"/>
        <pt x="280" y="11" on="0"/>
        <pt x="280" y="56" on="1"/>
        <pt x="280" y="453" on="1"/>
        <pt x="144" y="453" on="1"/>
        <pt x="154" y="424" on="1"/>
        <pt x="154" y="-117" on="1"/>
        <pt x="153" y="-170" on="0"/>
        <pt x="132" y="-187" on="0"/>
        <pt x="65" y="-187" on="1"/>
        <pt x="66" y="424" on="1"/>
        <pt x="75" y="453" on="1"/>
        <pt x="20" y="453" on="1"/>
        <pt x="20" y="537" on="1"/>
        <pt x="75" y="537" on="1"/>
        <pt x="66" y="562" on="1"/>
        <pt x="66" y="612" on="1"/>
        <pt x="66" y="627" on="0"/>
        <pt x="72" y="672" on="0"/>
        <pt x="78" y="685" on="0"/>
        <pt x="99" y="708" on="0"/>
        <pt x="119" y="712" on="0"/>
        <pt x="164" y="720" on="0"/>
        <pt x="186" y="720" on="1"/>
        <pt x="370" y="720" on="1"/>
        <pt x="370" y="649" on="1"/>
        <pt x="246" y="649" on="1"/>
        <pt x="178" y="649" on="0"/>
        <pt x="155" y="627" on="0"/>
        <pt x="155" y="560" on="1"/>
        <pt x="145" y="537" on="1"/>
      </contour>
    </TTGlyph>
    <TTGlyph name="five" xMin="60" yMin="-7" xMax="347" yMax="709">
      <contour>
        <pt x="223" y="487" on="1"/>
        <pt x="264" y="487" on="0"/>
        <pt x="296" y="473" on="0"/>
        <pt x="313" y="464" on="0"/>
        <pt x="327" y="441" on="0"/>
        <pt x="336" y="425" on="0"/>
        <pt x="342" y="387" on="0"/>
        <pt x="345" y="364" on="0"/>
        <pt x="347" y="310" on="0"/>
        <pt x="347" y="294" on="1"/>
        <pt x="347" y="186" on="1"/>
        <pt x="347" y="124" on="0"/>
        <pt x="341" y="89" on="0"/>
        <pt x="334" y="49" on="0"/>
        <pt x="323" y="36" on="0"/>
        <pt x="306" y="12" on="0"/>
        <pt x="296" y="8" on="1"/>
        <pt x="270" y="0" on="1"/>
        <pt x="249" y="-7" on="0"/>
        <pt x="197" y="-7" on="1"/>
        <pt x="60" y="0" on="1"/>
        <pt x="60" y="78" on="1"/>
        <pt x="193" y="78" on="1"/>
        <pt x="236" y="78" on="0"/>
        <pt x="254" y="135" on="0"/>
        <pt x="254" y="351" on="0"/>
        <pt x="237" y="404" on="0"/>
        <pt x="193" y="404" on="1"/>
        <pt x="60" y="404" on="1"/>
        <pt x="60" y="709" on="1"/>
        <pt x="337" y="708" on="1"/>
        <pt x="337" y="624" on="1"/>
        <pt x="148" y="624" on="1"/>
        <pt x="148" y="617" on="0"/>
        <pt x="154" y="611" on="1"/>
        <pt x="154" y="502" on="1"/>
        <pt x="149" y="487" on="1"/>
      </contour>
    </TTGlyph>
    <TTGlyph name="fl" xMin="20" yMin="-187" xMax="386" yMax="720">
      <contour>
        <pt x="246" y="649" on="1"/>
        <pt x="178" y="649" on="0"/>
        <pt x="155" y="627" on="0"/>
        <pt x="155" y="560" on="1"/>
        <pt x="145" y="537" on="1"/>
        <pt x="244" y="537" on="1"/>
        <pt x="244" y="453" on="1"/>
        <pt x="144" y="453" on="1"/>
        <pt x="154" y="424" on="1"/>
        <pt x="154" y="-117" on="1"/>
        <pt x="153" y="-170" on="0"/>
        <pt x="132" y="-187" on="0"/>
        <pt x="65" y="-187" on="1"/>
        <pt x="66" y="424" on="1"/>
        <pt x="75" y="453" on="1"/>
        <pt x="20" y="453" on="1"/>
        <pt x="20" y="537" on="1"/>
        <pt x="75" y="537" on="1"/>
        <pt x="66" y="562" on="1"/>
        <pt x="66" y="562" on="0"/>
        <pt x="66" y="612" on="1"/>
        <pt x="66" y="627" on="0"/>
        <pt x="72" y="672" on="0"/>
        <pt x="78" y="685" on="0"/>
        <pt x="99" y="708" on="0"/>
        <pt x="119" y="712" on="0"/>
        <pt x="164" y="720" on="0"/>
        <pt x="186" y="720" on="1"/>
        <pt x="297" y="720" on="1"/>
        <pt x="363" y="720" on="0"/>
        <pt x="386" y="705" on="0"/>
        <pt x="386" y="659" on="1"/>
        <pt x="386" y="-4" on="1"/>
        <pt x="319" y="-4" on="0"/>
        <pt x="297" y="11" on="0"/>
        <pt x="297" y="56" on="1"/>
        <pt x="297" y="649" on="1"/>
      </contour>
    </TTGlyph>
    <TTGlyph name="florin" xMin="45" yMin="-104" xMax="271" yMax="540">
      <contour>
        <pt x="266" y="351" on="1"/>
        <pt x="266" y="272" on="1"/>
        <pt x="169" y="272" on="1"/>
        <pt x="175" y="254" on="1"/>
        <pt x="175" y="-104" on="1"/>
        <pt x="146" y="-104" on="0"/>
        <pt x="123" y="-102" on="0"/>
        <pt x="97" y="-90" on="0"/>
        <pt x="90" y="-64" on="0"/>
        <pt x="90" y="-41" on="1"/>
        <pt x="91" y="253" on="1"/>
        <pt x="97" y="272" on="1"/>
        <pt x="45" y="272" on="1"/>
        <pt x="45" y="351" on="1"/>
        <pt x="97" y="351" on="1"/>
        <pt x="91" y="376" on="1"/>
        <pt x="91" y="487" on="0"/>
        <pt x="110" y="511" on="1"/>
        <pt x="132" y="540" on="0"/>
        <pt x="176" y="540" on="1"/>
        <pt x="271" y="536" on="1"/>
        <pt x="271" y="487" on="0"/>
        <pt x="255" y="469" on="0"/>
        <pt x="209" y="468" on="1"/>
        <pt x="183" y="467" on="1"/>
        <pt x="176" y="467" on="0"/>
        <pt x="176" y="376" on="1"/>
        <pt x="170" y="351" on="1"/>
      </contour>
    </TTGlyph>
    <TTGlyph name="four" xMin="10" yMin="0" xMax="367" yMax="708">
      <contour>
        <pt x="367" y="232" on="1"/>
        <pt x="323" y="232" on="1"/>
        <pt x="323" y="225" on="0"/>
        <pt x="329" y="219" on="1"/>
        <pt x="327" y="0" on="1"/>
        <pt x="262" y="0" on="0"/>
        <pt x="239" y="15" on="0"/>
        <pt x="239" y="60" on="1"/>
        <pt x="239" y="217" on="1"/>
        <pt x="245" y="232" on="1"/>
        <pt x="10" y="232" on="1"/>
        <pt x="232" y="708" on="1"/>
        <pt x="329" y="708" on="1"/>
        <pt x="329" y="330" on="1"/>
        <pt x="323" y="316" on="1"/>
        <pt x="367" y="316" on="1"/>
      </contour>
      <contour>
        <pt x="239" y="330" on="1"/>
        <pt x="239" y="531" on="1"/>
        <pt x="148" y="316" on="1"/>
        <pt x="245" y="316" on="1"/>
      </contour>
    </TTGlyph>
    <TTGlyph name="fraction" xMin="6" yMin="0" xMax="394" yMax="720">
      <contour>
        <pt x="394" y="720" on="1"/>
        <pt x="106" y="0" on="1"/>
        <pt x="6" y="0" on="1"/>
        <pt x="295" y="720" on="1"/>
      </contour>
    </TTGlyph>
    <TTGlyph name="g" xMin="45" yMin="-187" xMax="381" yMax="544">
      <contour>
        <pt x="265" y="-105" on="0"/>
        <pt x="287" y="-78" on="0"/>
        <pt x="287" y="-25" on="0"/>
        <pt x="266" y="-7" on="0"/>
        <pt x="230" y="-7" on="1"/>
        <pt x="92" y="-7" on="0"/>
        <pt x="45" y="20" on="0"/>
        <pt x="45" y="101" on="1"/>
        <pt x="45" y="156" on="0"/>
        <pt x="88" y="192" on="1"/>
        <pt x="65" y="213" on="0"/>
        <pt x="45" y="272" on="0"/>
        <pt x="45" y="378" on="0"/>
        <pt x="46" y="410" on="0"/>
        <pt x="49" y="460" on="0"/>
        <pt x="57" y="481" on="0"/>
        <pt x="72" y="513" on="0"/>
        <pt x="94" y="525" on="0"/>
        <pt x="110" y="532" on="1"/>
        <pt x="136" y="544" on="0"/>
        <pt x="200" y="544" on="1"/>
        <pt x="381" y="544" on="1"/>
        <pt x="381" y="496" on="0"/>
        <pt x="363" y="464" on="0"/>
        <pt x="336" y="462" on="1"/>
        <pt x="354" y="423" on="0"/>
        <pt x="354" y="344" on="1"/>
        <pt x="354" y="299" on="1"/>
        <pt x="354" y="250" on="0"/>
        <pt x="346" y="216" on="0"/>
        <pt x="335" y="182" on="0"/>
        <pt x="320" y="168" on="0"/>
        <pt x="297" y="148" on="0"/>
        <pt x="282" y="144" on="1"/>
        <pt x="239" y="135" on="0"/>
        <pt x="152" y="135" on="0"/>
        <pt x="130" y="123" on="0"/>
        <pt x="130" y="91" on="0"/>
        <pt x="135" y="87" on="1"/>
        <pt x="146" y="78" on="0"/>
        <pt x="320" y="78" on="0"/>
        <pt x="372" y="36" on="0"/>
        <pt x="372" y="-125" on="0"/>
        <pt x="313" y="-187" on="0"/>
        <pt x="227" y="-187" on="1"/>
        <pt x="167" y="-187" on="1"/>
        <pt x="119" y="-187" on="0"/>
        <pt x="103" y="-168" on="0"/>
        <pt x="103" y="-112" on="1"/>
        <pt x="226" y="-105" on="1"/>
      </contour>
      <contour>
        <pt x="261" y="251" on="0"/>
        <pt x="263" y="312" on="0"/>
        <pt x="263" y="375" on="0"/>
        <pt x="262" y="402" on="0"/>
        <pt x="256" y="437" on="0"/>
        <pt x="250" y="443" on="1"/>
        <pt x="232" y="459" on="0"/>
        <pt x="155" y="459" on="0"/>
        <pt x="135" y="414" on="0"/>
        <pt x="135" y="273" on="0"/>
        <pt x="158" y="218" on="0"/>
        <pt x="233" y="218" on="0"/>
      </contour>
    </TTGlyph>
    <TTGlyph name="germandbls" xMin="45" yMin="-7" xMax="441" yMax="720">
      <contour>
        <pt x="165" y="88" on="1"/>
        <pt x="255" y="78" on="0"/>
        <pt x="345" y="78" on="0"/>
        <pt x="345" y="130" on="1"/>
        <pt x="345" y="167" on="1"/>
        <pt x="345" y="182" on="0"/>
        <pt x="288" y="233" on="0"/>
        <pt x="221" y="284" on="0"/>
        <pt x="164" y="358" on="0"/>
        <pt x="164" y="427" on="0"/>
        <pt x="173" y="473" on="0"/>
        <pt x="186" y="496" on="1"/>
        <pt x="211" y="543" on="0"/>
        <pt x="300" y="543" on="1"/>
        <pt x="306" y="543" on="0"/>
        <pt x="308" y="565" on="0"/>
        <pt x="308" y="619" on="1"/>
        <pt x="308" y="639" on="0"/>
        <pt x="255" y="639" on="1"/>
        <pt x="210" y="639" on="1"/>
        <pt x="154" y="639" on="0"/>
        <pt x="136" y="619" on="0"/>
        <pt x="136" y="558" on="1"/>
        <pt x="135" y="71" on="1"/>
        <pt x="135" y="18" on="0"/>
        <pt x="112" y="0" on="0"/>
        <pt x="45" y="0" on="1"/>
        <pt x="46" y="558" on="1"/>
        <pt x="46" y="608" on="1"/>
        <pt x="46" y="656" on="0"/>
        <pt x="58" y="682" on="0"/>
        <pt x="76" y="706" on="0"/>
        <pt x="96" y="711" on="0"/>
        <pt x="116" y="715" on="1"/>
        <pt x="140" y="720" on="0"/>
        <pt x="210" y="720" on="1"/>
        <pt x="260" y="720" on="1"/>
        <pt x="342" y="720" on="0"/>
        <pt x="378" y="674" on="1"/>
        <pt x="393" y="655" on="0"/>
        <pt x="393" y="630" on="1"/>
        <pt x="393" y="518" on="0"/>
        <pt x="369" y="459" on="0"/>
        <pt x="310" y="459" on="1"/>
        <pt x="270" y="459" on="0"/>
        <pt x="261" y="441" on="1"/>
        <pt x="254" y="427" on="0"/>
        <pt x="254" y="399" on="1"/>
        <pt x="254" y="373" on="0"/>
        <pt x="320" y="325" on="1"/>
        <pt x="348" y="305" on="0"/>
        <pt x="402" y="261" on="0"/>
        <pt x="441" y="204" on="0"/>
        <pt x="441" y="140" on="0"/>
        <pt x="439" y="104" on="0"/>
        <pt x="424" y="46" on="0"/>
        <pt x="396" y="16" on="0"/>
        <pt x="339" y="-7" on="0"/>
        <pt x="278" y="-7" on="0"/>
        <pt x="235" y="-2" on="0"/>
        <pt x="178" y="8" on="0"/>
        <pt x="165" y="10" on="1"/>
      </contour>
    </TTGlyph>
    <TTGlyph name="grave" xMin="10" yMin="554" xMax="198" yMax="732">
      <contour>
        <pt x="37" y="713" on="1"/>
        <pt x="56" y="732" on="0"/>
        <pt x="79" y="732" on="0"/>
        <pt x="87" y="728" on="1"/>
        <pt x="99" y="721" on="0"/>
        <pt x="123" y="695" on="1"/>
        <pt x="198" y="612" on="1"/>
        <pt x="142" y="554" on="1"/>
        <pt x="10" y="686" on="1"/>
      </contour>
    </TTGlyph>
    <TTGlyph name="greater" xMin="31" yMin="53" xMax="253" yMax="537">
      <contour>
        <pt x="253" y="316" on="1"/>
        <pt x="253" y="282" on="1"/>
        <pt x="122" y="53" on="1"/>
        <pt x="31" y="53" on="1"/>
        <pt x="170" y="299" on="1"/>
        <pt x="31" y="537" on="1"/>
        <pt x="122" y="537" on="1"/>
      </contour>
    </TTGlyph>
    <TTGlyph name="guillemotleft" xMin="29" yMin="126" xMax="325" yMax="474">
      <contour>
        <pt x="29" y="285" on="1"/>
        <pt x="29" y="315" on="1"/>
        <pt x="102" y="474" on="1"/>
        <pt x="190" y="474" on="1"/>
        <pt x="110" y="300" on="1"/>
        <pt x="190" y="126" on="1"/>
        <pt x="101" y="126" on="1"/>
      </contour>
      <contour>
        <pt x="165" y="285" on="1"/>
        <pt x="165" y="315" on="1"/>
        <pt x="238" y="474" on="1"/>
        <pt x="325" y="474" on="1"/>
        <pt x="246" y="300" on="1"/>
        <pt x="325" y="126" on="1"/>
        <pt x="237" y="126" on="1"/>
      </contour>
    </TTGlyph>
    <TTGlyph name="guillemotright" xMin="29" yMin="126" xMax="324" yMax="474">
      <contour>
        <pt x="324" y="315" on="1"/>
        <pt x="324" y="285" on="1"/>
        <pt x="253" y="126" on="1"/>
        <pt x="165" y="126" on="1"/>
        <pt x="244" y="300" on="1"/>
        <pt x="165" y="474" on="1"/>
        <pt x="252" y="474" on="1"/>
      </contour>
      <contour>
        <pt x="189" y="315" on="1"/>
        <pt x="189" y="285" on="1"/>
        <pt x="117" y="126" on="1"/>
        <pt x="29" y="126" on="1"/>
        <pt x="108" y="300" on="1"/>
        <pt x="29" y="474" on="1"/>
        <pt x="116" y="474" on="1"/>
      </contour>
    </TTGlyph>
    <TTGlyph name="guilsinglleft" xMin="18" yMin="126" xMax="178" yMax="474">
      <contour>
        <pt x="18" y="285" on="1"/>
        <pt x="18" y="315" on="1"/>
        <pt x="92" y="474" on="1"/>
        <pt x="178" y="474" on="1"/>
        <pt x="100" y="300" on="1"/>
        <pt x="178" y="126" on="1"/>
        <pt x="91" y="126" on="1"/>
      </contour>
    </TTGlyph>
    <TTGlyph name="guilsinglright" xMin="35" yMin="126" xMax="194" yMax="474">
      <contour>
        <pt x="194" y="315" on="1"/>
        <pt x="194" y="285" on="1"/>
        <pt x="122" y="126" on="1"/>
        <pt x="35" y="126" on="1"/>
        <pt x="114" y="300" on="1"/>
        <pt x="35" y="474" on="1"/>
        <pt x="121" y="474" on="1"/>
      </contour>
    </TTGlyph>
    <TTGlyph name="h" xMin="60" yMin="0" xMax="371" yMax="720">
      <contour>
        <pt x="149" y="60" on="1"/>
        <pt x="149" y="15" on="0"/>
        <pt x="127" y="0" on="0"/>
        <pt x="60" y="0" on="1"/>
        <pt x="60" y="720" on="1"/>
        <pt x="126" y="720" on="0"/>
        <pt x="148" y="705" on="0"/>
        <pt x="148" y="659" on="1"/>
        <pt x="148" y="517" on="1"/>
        <pt x="226" y="544" on="1"/>
        <pt x="327" y="544" on="0"/>
        <pt x="371" y="434" on="0"/>
        <pt x="371" y="266" on="1"/>
        <pt x="371" y="0" on="1"/>
        <pt x="304" y="0" on="0"/>
        <pt x="281" y="15" on="0"/>
        <pt x="281" y="60" on="1"/>
        <pt x="281" y="267" on="1"/>
        <pt x="281" y="361" on="0"/>
        <pt x="271" y="436" on="0"/>
        <pt x="250" y="458" on="0"/>
        <pt x="232" y="459" on="1"/>
        <pt x="140" y="432" on="1"/>
        <pt x="149" y="404" on="1"/>
      </contour>
    </TTGlyph>
    <TTGlyph name="hungarumlaut" xMin="27" yMin="554" xMax="390" yMax="732">
      <contour>
        <pt x="101" y="695" on="1"/>
        <pt x="135" y="732" on="0"/>
        <pt x="171" y="732" on="0"/>
        <pt x="194" y="707" on="1"/>
        <pt x="216" y="686" on="1"/>
        <pt x="84" y="554" on="1"/>
        <pt x="27" y="612" on="1"/>
      </contour>
      <contour>
        <pt x="329" y="732" on="1"/>
        <pt x="341" y="732" on="0"/>
        <pt x="364" y="711" on="1"/>
        <pt x="390" y="686" on="1"/>
        <pt x="258" y="554" on="1"/>
        <pt x="202" y="612" on="1"/>
        <pt x="275" y="695" on="1"/>
        <pt x="307" y="732" on="0"/>
      </contour>
    </TTGlyph>
    <TTGlyph name="hyphen" xMin="45" yMin="281" xMax="280" yMax="363">
      <contour>
        <pt x="45" y="363" on="1"/>
        <pt x="280" y="363" on="1"/>
        <pt x="280" y="281" on="1"/>
        <pt x="45" y="281" on="1"/>
      </contour>
    </TTGlyph>
    <TTGlyph name="i" xMin="55" yMin="-4" xMax="175" yMax="708">
      <contour>
        <pt x="91" y="588" on="0"/>
        <pt x="55" y="625" on="0"/>
        <pt x="55" y="674" on="0"/>
        <pt x="91" y="708" on="0"/>
        <pt x="139" y="708" on="0"/>
        <pt x="175" y="674" on="0"/>
        <pt x="175" y="625" on="0"/>
        <pt x="139" y="588" on="0"/>
      </contour>
      <contour>
        <pt x="71" y="56" on="1"/>
        <pt x="71" y="537" on="1"/>
        <pt x="138" y="537" on="0"/>
        <pt x="160" y="522" on="0"/>
        <pt x="160" y="477" on="1"/>
        <pt x="160" y="-4" on="1"/>
        <pt x="93" y="-4" on="0"/>
        <pt x="71" y="11" on="0"/>
      </contour>
    </TTGlyph>
    <TTGlyph name="iacute" xMin="10" yMin="-4" xMax="198" yMax="775">
      <contour>
        <pt x="45" y="56" on="1"/>
        <pt x="45" y="537" on="1"/>
        <pt x="112" y="537" on="0"/>
        <pt x="134" y="522" on="0"/>
        <pt x="134" y="477" on="1"/>
        <pt x="134" y="-4" on="1"/>
        <pt x="67" y="-4" on="0"/>
        <pt x="45" y="11" on="0"/>
      </contour>
      <contour>
        <pt x="179" y="747" on="1"/>
        <pt x="198" y="729" on="1"/>
        <pt x="66" y="597" on="1"/>
        <pt x="10" y="655" on="1"/>
        <pt x="83" y="738" on="1"/>
        <pt x="109" y="764" on="0"/>
        <pt x="128" y="775" on="0"/>
        <pt x="151" y="775" on="0"/>
      </contour>
    </TTGlyph>
    <TTGlyph name="icircumflex" xMin="18" yMin="-4" xMax="310" yMax="766">
      <contour>
        <pt x="116" y="56" on="1"/>
        <pt x="116" y="537" on="1"/>
        <pt x="183" y="537" on="0"/>
        <pt x="205" y="522" on="0"/>
        <pt x="205" y="477" on="1"/>
        <pt x="205" y="-4" on="1"/>
        <pt x="138" y="-4" on="0"/>
        <pt x="116" y="11" on="0"/>
      </contour>
      <contour>
        <pt x="146" y="766" on="1"/>
        <pt x="180" y="766" on="1"/>
        <pt x="310" y="693" on="1"/>
        <pt x="310" y="603" on="1"/>
        <pt x="164" y="683" on="1"/>
        <pt x="18" y="603" on="1"/>
        <pt x="18" y="694" on="1"/>
      </contour>
    </TTGlyph>
    <TTGlyph name="idieresis" xMin="-1" yMin="-4" xMax="293" yMax="726">
      <contour>
        <pt x="105" y="56" on="1"/>
        <pt x="105" y="537" on="1"/>
        <pt x="172" y="537" on="0"/>
        <pt x="194" y="522" on="0"/>
        <pt x="194" y="477" on="1"/>
        <pt x="194" y="-4" on="1"/>
        <pt x="127" y="-4" on="0"/>
        <pt x="105" y="11" on="0"/>
      </contour>
      <contour>
        <pt x="36" y="606" on="0"/>
        <pt x="-1" y="643" on="0"/>
        <pt x="-1" y="692" on="0"/>
        <pt x="35" y="726" on="0"/>
        <pt x="83" y="726" on="0"/>
        <pt x="119" y="692" on="0"/>
        <pt x="119" y="643" on="0"/>
        <pt x="83" y="606" on="0"/>
      </contour>
      <contour>
        <pt x="209" y="606" on="0"/>
        <pt x="172" y="643" on="0"/>
        <pt x="172" y="692" on="0"/>
        <pt x="208" y="726" on="0"/>
        <pt x="257" y="726" on="0"/>
        <pt x="293" y="692" on="0"/>
        <pt x="293" y="643" on="0"/>
        <pt x="257" y="606" on="0"/>
      </contour>
    </TTGlyph>
    <TTGlyph name="igrave" xMin="-2" yMin="-4" xMax="186" yMax="777">
      <contour>
        <pt x="57" y="56" on="1"/>
        <pt x="57" y="537" on="1"/>
        <pt x="124" y="537" on="0"/>
        <pt x="146" y="522" on="0"/>
        <pt x="146" y="477" on="1"/>
        <pt x="146" y="-4" on="1"/>
        <pt x="79" y="-4" on="0"/>
        <pt x="57" y="11" on="0"/>
      </contour>
      <contour>
        <pt x="25" y="758" on="1"/>
        <pt x="44" y="777" on="0"/>
        <pt x="67" y="777" on="0"/>
        <pt x="75" y="772" on="1"/>
        <pt x="87" y="766" on="0"/>
        <pt x="111" y="740" on="1"/>
        <pt x="186" y="657" on="1"/>
        <pt x="130" y="599" on="1"/>
        <pt x="-2" y="731" on="1"/>
      </contour>
    </TTGlyph>
    <TTGlyph name="j" xMin="-46" yMin="-187" xMax="159" yMax="708">
      <contour>
        <pt x="75" y="588" on="0"/>
        <pt x="39" y="625" on="0"/>
        <pt x="39" y="674" on="0"/>
        <pt x="75" y="708" on="0"/>
        <pt x="123" y="708" on="0"/>
        <pt x="159" y="674" on="0"/>
        <pt x="159" y="625" on="0"/>
        <pt x="123" y="588" on="0"/>
      </contour>
      <contour>
        <pt x="145" y="477" on="1"/>
        <pt x="145" y="17" on="1"/>
        <pt x="145" y="-90" on="0"/>
        <pt x="130" y="-116" on="1"/>
        <pt x="107" y="-158" on="0"/>
        <pt x="76" y="-169" on="1"/>
        <pt x="23" y="-187" on="0"/>
        <pt x="-46" y="-187" on="1"/>
        <pt x="-46" y="-110" on="1"/>
        <pt x="18" y="-110" on="0"/>
        <pt x="36" y="-84" on="1"/>
        <pt x="43" y="-73" on="0"/>
        <pt x="51" y="-58" on="0"/>
        <pt x="52" y="-42" on="1"/>
        <pt x="55" y="-14" on="0"/>
        <pt x="55" y="17" on="1"/>
        <pt x="55" y="537" on="1"/>
        <pt x="122" y="537" on="0"/>
        <pt x="145" y="522" on="0"/>
      </contour>
    </TTGlyph>
    <TTGlyph name="k" xMin="60" yMin="0" xMax="420" yMax="720">
      <contour>
        <pt x="149" y="0" on="1"/>
        <pt x="135" y="0" on="1"/>
        <pt x="79" y="0" on="0"/>
        <pt x="60" y="15" on="0"/>
        <pt x="60" y="60" on="1"/>
        <pt x="60" y="720" on="1"/>
        <pt x="127" y="720" on="0"/>
        <pt x="149" y="705" on="0"/>
        <pt x="149" y="659" on="1"/>
      </contour>
      <contour>
        <pt x="260" y="291" on="1"/>
        <pt x="420" y="0" on="1"/>
        <pt x="317" y="0" on="1"/>
        <pt x="164" y="291" on="1"/>
        <pt x="305" y="537" on="1"/>
        <pt x="403" y="537" on="1"/>
      </contour>
    </TTGlyph>
    <TTGlyph name="l" xMin="60" yMin="-4" xMax="149" yMax="720">
      <contour>
        <pt x="149" y="659" on="1"/>
        <pt x="149" y="-4" on="1"/>
        <pt x="82" y="-4" on="0"/>
        <pt x="60" y="11" on="0"/>
        <pt x="60" y="56" on="1"/>
        <pt x="60" y="720" on="1"/>
        <pt x="126" y="720" on="0"/>
        <pt x="149" y="705" on="0"/>
      </contour>
    </TTGlyph>
    <TTGlyph name="less" xMin="12" yMin="53" xMax="236" yMax="537">
      <contour>
        <pt x="12" y="282" on="1"/>
        <pt x="12" y="316" on="1"/>
        <pt x="143" y="537" on="1"/>
        <pt x="235" y="537" on="1"/>
        <pt x="95" y="299" on="1"/>
        <pt x="236" y="53" on="1"/>
        <pt x="143" y="53" on="1"/>
      </contour>
    </TTGlyph>
    <TTGlyph name="logicalnot" xMin="12" yMin="208" xMax="295" yMax="367">
      <contour>
        <pt x="218" y="208" on="1"/>
        <pt x="218" y="283" on="1"/>
        <pt x="12" y="283" on="1"/>
        <pt x="12" y="367" on="1"/>
        <pt x="295" y="367" on="1"/>
        <pt x="295" y="275" on="1"/>
        <pt x="295" y="225" on="0"/>
        <pt x="276" y="208" on="0"/>
      </contour>
    </TTGlyph>
    <TTGlyph name="lslash" xMin="-27" yMin="-4" xMax="262" yMax="720">
      <contour>
        <pt x="149" y="659" on="1"/>
        <pt x="149" y="-4" on="1"/>
        <pt x="82" y="-4" on="0"/>
        <pt x="60" y="11" on="0"/>
        <pt x="60" y="56" on="1"/>
        <pt x="60" y="720" on="1"/>
        <pt x="126" y="720" on="0"/>
        <pt x="149" y="705" on="0"/>
      </contour>
      <contour>
        <pt x="-27" y="378" on="1"/>
        <pt x="262" y="378" on="1"/>
        <pt x="262" y="296" on="1"/>
        <pt x="-27" y="296" on="1"/>
      </contour>
    </TTGlyph>
    <TTGlyph name="m" xMin="55" yMin="0" xMax="564" yMax="544">
      <contour>
        <pt x="354" y="0" on="1"/>
        <pt x="287" y="0" on="0"/>
        <pt x="265" y="15" on="0"/>
        <pt x="265" y="60" on="1"/>
        <pt x="264" y="305" on="1"/>
        <pt x="264" y="344" on="1"/>
        <pt x="264" y="367" on="0"/>
        <pt x="265" y="391" on="0"/>
        <pt x="263" y="422" on="0"/>
        <pt x="258" y="437" on="0"/>
        <pt x="254" y="445" on="1"/>
        <pt x="247" y="459" on="0"/>
        <pt x="224" y="459" on="1"/>
        <pt x="135" y="433" on="1"/>
        <pt x="144" y="404" on="1"/>
        <pt x="144" y="0" on="1"/>
        <pt x="77" y="0" on="0"/>
        <pt x="55" y="15" on="0"/>
        <pt x="55" y="60" on="1"/>
        <pt x="55" y="537" on="1"/>
        <pt x="110" y="537" on="0"/>
        <pt x="140" y="531" on="0"/>
        <pt x="143" y="516" on="1"/>
        <pt x="218" y="544" on="1"/>
        <pt x="262" y="544" on="0"/>
        <pt x="308" y="529" on="0"/>
        <pt x="326" y="508" on="1"/>
        <pt x="418" y="544" on="1"/>
        <pt x="477" y="544" on="0"/>
        <pt x="518" y="527" on="0"/>
        <pt x="537" y="515" on="0"/>
        <pt x="552" y="477" on="0"/>
        <pt x="559" y="447" on="0"/>
        <pt x="561" y="412" on="1"/>
        <pt x="564" y="360" on="0"/>
        <pt x="564" y="266" on="1"/>
        <pt x="564" y="0" on="1"/>
        <pt x="496" y="0" on="0"/>
        <pt x="474" y="15" on="0"/>
        <pt x="474" y="60" on="1"/>
        <pt x="474" y="267" on="1"/>
        <pt x="474" y="405" on="0"/>
        <pt x="471" y="421" on="1"/>
        <pt x="466" y="450" on="0"/>
        <pt x="443" y="456" on="1"/>
        <pt x="435" y="458" on="0"/>
        <pt x="423" y="459" on="1"/>
        <pt x="345" y="436" on="1"/>
        <pt x="354" y="408" on="1"/>
      </contour>
    </TTGlyph>
    <TTGlyph name="macron" xMin="45" yMin="650" xMax="280" yMax="732">
      <contour>
        <pt x="45" y="732" on="1"/>
        <pt x="280" y="732" on="1"/>
        <pt x="280" y="650" on="1"/>
        <pt x="45" y="650" on="1"/>
      </contour>
    </TTGlyph>
    <TTGlyph name="minus" xMin="45" yMin="281" xMax="280" yMax="363">
      <contour>
        <pt x="45" y="363" on="1"/>
        <pt x="280" y="363" on="1"/>
        <pt x="280" y="281" on="1"/>
        <pt x="45" y="281" on="1"/>
      </contour>
    </TTGlyph>
    <TTGlyph name="mu" xMin="45" yMin="-181" xMax="355" yMax="539">
      <contour>
        <pt x="265" y="272" on="1"/>
        <pt x="265" y="479" on="1"/>
        <pt x="265" y="524" on="0"/>
        <pt x="288" y="539" on="0"/>
        <pt x="355" y="539" on="1"/>
        <pt x="355" y="210" on="1"/>
        <pt x="355" y="140" on="0"/>
        <pt x="346" y="98" on="0"/>
        <pt x="336" y="54" on="0"/>
        <pt x="321" y="36" on="0"/>
        <pt x="298" y="11" on="0"/>
        <pt x="282" y="6" on="1"/>
        <pt x="243" y="-5" on="0"/>
        <pt x="201" y="-5" on="1"/>
        <pt x="133" y="22" on="1"/>
        <pt x="133" y="-120" on="1"/>
        <pt x="133" y="-166" on="0"/>
        <pt x="111" y="-181" on="0"/>
        <pt x="45" y="-181" on="1"/>
        <pt x="45" y="539" on="1"/>
        <pt x="112" y="539" on="0"/>
        <pt x="134" y="524" on="0"/>
        <pt x="134" y="479" on="1"/>
        <pt x="134" y="127" on="1"/>
        <pt x="128" y="109" on="1"/>
        <pt x="208" y="80" on="1"/>
        <pt x="247" y="82" on="0"/>
        <pt x="265" y="164" on="0"/>
      </contour>
    </TTGlyph>
    <TTGlyph name="multiply" xMin="16" yMin="202" xMax="253" yMax="440">
      <contour>
        <pt x="205" y="308" on="1"/>
        <pt x="253" y="260" on="1"/>
        <pt x="196" y="202" on="1"/>
        <pt x="149" y="249" on="1"/>
        <pt x="135" y="270" on="1"/>
        <pt x="71" y="206" on="1"/>
        <pt x="19" y="258" on="1"/>
        <pt x="83" y="323" on="1"/>
        <pt x="62" y="337" on="1"/>
        <pt x="16" y="383" on="1"/>
        <pt x="73" y="440" on="1"/>
        <pt x="119" y="394" on="1"/>
        <pt x="133" y="372" on="1"/>
        <pt x="198" y="438" on="1"/>
        <pt x="251" y="385" on="1"/>
        <pt x="185" y="320" on="1"/>
      </contour>
    </TTGlyph>
    <TTGlyph name="n" xMin="55" yMin="0" xMax="365" yMax="544">
      <contour>
        <pt x="275" y="267" on="1"/>
        <pt x="276" y="355" on="1"/>
        <pt x="276" y="395" on="0"/>
        <pt x="274" y="415" on="1"/>
        <pt x="270" y="457" on="0"/>
        <pt x="227" y="459" on="1"/>
        <pt x="135" y="432" on="1"/>
        <pt x="144" y="404" on="1"/>
        <pt x="144" y="0" on="1"/>
        <pt x="77" y="0" on="0"/>
        <pt x="55" y="15" on="0"/>
        <pt x="55" y="60" on="1"/>
        <pt x="55" y="537" on="1"/>
        <pt x="113" y="537" on="0"/>
        <pt x="143" y="531" on="0"/>
        <pt x="144" y="516" on="1"/>
        <pt x="218" y="544" on="1"/>
        <pt x="279" y="544" on="0"/>
        <pt x="317" y="528" on="0"/>
        <pt x="337" y="516" on="0"/>
        <pt x="353" y="479" on="0"/>
        <pt x="359" y="448" on="0"/>
        <pt x="362" y="414" on="1"/>
        <pt x="365" y="365" on="0"/>
        <pt x="365" y="266" on="1"/>
        <pt x="365" y="0" on="1"/>
        <pt x="298" y="0" on="0"/>
        <pt x="275" y="15" on="0"/>
        <pt x="275" y="60" on="1"/>
      </contour>
    </TTGlyph>
    <TTGlyph name="nine" xMin="60" yMin="0" xMax="371" yMax="720">
      <contour>
        <pt x="171" y="636" on="0"/>
        <pt x="153" y="580" on="0"/>
        <pt x="153" y="373" on="0"/>
        <pt x="175" y="311" on="0"/>
        <pt x="214" y="310" on="1"/>
        <pt x="277" y="334" on="1"/>
        <pt x="278" y="424" on="1"/>
        <pt x="278" y="572" on="0"/>
        <pt x="270" y="602" on="1"/>
        <pt x="260" y="636" on="0"/>
      </contour>
      <contour>
        <pt x="60" y="598" on="0"/>
        <pt x="69" y="637" on="0"/>
        <pt x="79" y="675" on="0"/>
        <pt x="95" y="689" on="0"/>
        <pt x="117" y="709" on="0"/>
        <pt x="133" y="712" on="1"/>
        <pt x="176" y="720" on="0"/>
        <pt x="245" y="720" on="0"/>
        <pt x="287" y="716" on="0"/>
        <pt x="321" y="699" on="0"/>
        <pt x="342" y="684" on="0"/>
        <pt x="358" y="642" on="0"/>
        <pt x="366" y="610" on="0"/>
        <pt x="368" y="573" on="1"/>
        <pt x="371" y="518" on="0"/>
        <pt x="371" y="374" on="0"/>
        <pt x="370" y="319" on="0"/>
        <pt x="367" y="232" on="0"/>
        <pt x="361" y="184" on="0"/>
        <pt x="348" y="117" on="0"/>
        <pt x="330" y="79" on="0"/>
        <pt x="303" y="36" on="0"/>
        <pt x="286" y="26" on="1"/>
        <pt x="243" y="0" on="0"/>
        <pt x="191" y="0" on="1"/>
        <pt x="64" y="12" on="1"/>
        <pt x="64" y="87" on="1"/>
        <pt x="193" y="87" on="1"/>
        <pt x="226" y="87" on="0"/>
        <pt x="261" y="164" on="0"/>
        <pt x="269" y="249" on="1"/>
        <pt x="218" y="225" on="1"/>
        <pt x="106" y="225" on="0"/>
        <pt x="60" y="310" on="0"/>
      </contour>
    </TTGlyph>
    <TTGlyph name="ntilde" xMin="55" yMin="0" xMax="365" yMax="716">
      <component glyphName="n" x="0" y="0" flags="0x1004"/>
      <component glyphName="tilde" x="33" y="0" flags="0x1004"/>
    </TTGlyph>
    <TTGlyph name="numbersign" xMin="18" yMin="0" xMax="627" yMax="726">
      <contour>
        <pt x="59" y="508" on="1"/>
        <pt x="236" y="508" on="1"/>
        <pt x="323" y="726" on="1"/>
        <pt x="405" y="726" on="1"/>
        <pt x="319" y="508" on="1"/>
        <pt x="443" y="508" on="1"/>
        <pt x="530" y="726" on="1"/>
        <pt x="612" y="726" on="1"/>
        <pt x="525" y="508" on="1"/>
        <pt x="627" y="508" on="1"/>
        <pt x="627" y="431" on="1"/>
        <pt x="493" y="431" on="1"/>
        <pt x="445" y="309" on="1"/>
        <pt x="586" y="309" on="1"/>
        <pt x="586" y="232" on="1"/>
        <pt x="414" y="232" on="1"/>
        <pt x="321" y="0" on="1"/>
        <pt x="239" y="0" on="1"/>
        <pt x="331" y="232" on="1"/>
        <pt x="207" y="232" on="1"/>
        <pt x="114" y="0" on="1"/>
        <pt x="32" y="0" on="1"/>
        <pt x="124" y="232" on="1"/>
        <pt x="18" y="232" on="1"/>
        <pt x="18" y="309" on="1"/>
        <pt x="155" y="309" on="1"/>
        <pt x="204" y="431" on="1"/>
        <pt x="59" y="431" on="1"/>
      </contour>
      <contour>
        <pt x="287" y="431" on="1"/>
        <pt x="238" y="309" on="1"/>
        <pt x="362" y="309" on="1"/>
        <pt x="411" y="431" on="1"/>
      </contour>
    </TTGlyph>
    <TTGlyph name="o" xMin="45" yMin="-7" xMax="354" yMax="544">
      <contour>
        <pt x="45" y="266" on="1"/>
        <pt x="45" y="266" on="0"/>
        <pt x="45" y="328" on="1"/>
        <pt x="45" y="390" on="0"/>
        <pt x="51" y="432" on="0"/>
        <pt x="59" y="473" on="0"/>
        <pt x="70" y="492" on="0"/>
        <pt x="87" y="518" on="0"/>
        <pt x="109" y="528" on="0"/>
        <pt x="124" y="534" on="1"/>
        <pt x="149" y="544" on="0"/>
        <pt x="245" y="544" on="0"/>
        <pt x="304" y="521" on="0"/>
        <pt x="337" y="492" on="0"/>
        <pt x="351" y="409" on="0"/>
        <pt x="354" y="345" on="0"/>
        <pt x="354" y="290" on="1"/>
        <pt x="354" y="215" on="1"/>
        <pt x="354" y="151" on="0"/>
        <pt x="348" y="109" on="0"/>
        <pt x="340" y="67" on="0"/>
        <pt x="329" y="48" on="0"/>
        <pt x="312" y="21" on="0"/>
        <pt x="289" y="10" on="0"/>
        <pt x="274" y="4" on="1"/>
        <pt x="250" y="-7" on="0"/>
        <pt x="170" y="-7" on="0"/>
        <pt x="127" y="-1" on="0"/>
        <pt x="94" y="19" on="0"/>
        <pt x="72" y="37" on="0"/>
        <pt x="57" y="80" on="0"/>
        <pt x="49" y="110" on="0"/>
        <pt x="48" y="144" on="1"/>
        <pt x="45" y="201" on="0"/>
      </contour>
      <contour>
        <pt x="199" y="459" on="1"/>
        <pt x="154" y="459" on="0"/>
        <pt x="134" y="386" on="0"/>
        <pt x="134" y="207" on="0"/>
        <pt x="136" y="154" on="0"/>
        <pt x="148" y="95" on="0"/>
        <pt x="175" y="78" on="0"/>
        <pt x="199" y="78" on="1"/>
        <pt x="244" y="78" on="0"/>
        <pt x="264" y="154" on="0"/>
        <pt x="264" y="334" on="0"/>
        <pt x="262" y="386" on="0"/>
        <pt x="250" y="442" on="0"/>
        <pt x="223" y="459" on="0"/>
      </contour>
    </TTGlyph>
    <TTGlyph name="o_t" xMin="45" yMin="-7" xMax="665" yMax="625">
      <contour>
        <pt x="45" y="266" on="1"/>
        <pt x="45" y="266" on="0"/>
        <pt x="45" y="328" on="1"/>
        <pt x="45" y="390" on="0"/>
        <pt x="51" y="432" on="0"/>
        <pt x="59" y="473" on="0"/>
        <pt x="70" y="492" on="0"/>
        <pt x="87" y="518" on="0"/>
        <pt x="109" y="528" on="0"/>
        <pt x="124" y="534" on="1"/>
        <pt x="149" y="544" on="0"/>
        <pt x="199" y="544" on="1"/>
        <pt x="473" y="544" on="1"/>
        <pt x="465" y="574" on="1"/>
        <pt x="465" y="625" on="1"/>
        <pt x="532" y="625" on="0"/>
        <pt x="555" y="612" on="0"/>
        <pt x="555" y="571" on="1"/>
        <pt x="547" y="544" on="1"/>
        <pt x="647" y="544" on="1"/>
        <pt x="647" y="487" on="0"/>
        <pt x="626" y="459" on="0"/>
        <pt x="575" y="459" on="1"/>
        <pt x="546" y="459" on="1"/>
        <pt x="555" y="434" on="1"/>
        <pt x="555" y="230" on="1"/>
        <pt x="555" y="145" on="0"/>
        <pt x="568" y="82" on="0"/>
        <pt x="589" y="78" on="1"/>
        <pt x="665" y="78" on="1"/>
        <pt x="665" y="0" on="1"/>
        <pt x="584" y="-5" on="1"/>
        <pt x="534" y="-5" on="0"/>
        <pt x="502" y="15" on="0"/>
        <pt x="486" y="27" on="0"/>
        <pt x="474" y="64" on="0"/>
        <pt x="468" y="87" on="0"/>
        <pt x="465" y="148" on="0"/>
        <pt x="465" y="168" on="1"/>
        <pt x="465" y="168" on="0"/>
        <pt x="465" y="434" on="1"/>
        <pt x="473" y="459" on="1"/>
        <pt x="342" y="459" on="1"/>
        <pt x="354" y="415" on="0"/>
        <pt x="354" y="271" on="1"/>
        <pt x="354" y="215" on="1"/>
        <pt x="354" y="151" on="0"/>
        <pt x="348" y="109" on="0"/>
        <pt x="340" y="67" on="0"/>
        <pt x="329" y="48" on="0"/>
        <pt x="312" y="21" on="0"/>
        <pt x="289" y="10" on="0"/>
        <pt x="274" y="4" on="1"/>
        <pt x="250" y="-7" on="0"/>
        <pt x="170" y="-7" on="0"/>
        <pt x="127" y="-1" on="0"/>
        <pt x="94" y="19" on="0"/>
        <pt x="72" y="37" on="0"/>
        <pt x="57" y="80" on="0"/>
        <pt x="49" y="110" on="0"/>
        <pt x="48" y="144" on="1"/>
        <pt x="45" y="201" on="0"/>
      </contour>
      <contour>
        <pt x="199" y="459" on="1"/>
        <pt x="154" y="459" on="0"/>
        <pt x="134" y="386" on="0"/>
        <pt x="134" y="207" on="0"/>
        <pt x="136" y="154" on="0"/>
        <pt x="148" y="95" on="0"/>
        <pt x="175" y="78" on="0"/>
        <pt x="199" y="78" on="1"/>
        <pt x="244" y="78" on="0"/>
        <pt x="264" y="154" on="0"/>
        <pt x="264" y="334" on="0"/>
        <pt x="262" y="386" on="0"/>
        <pt x="250" y="442" on="0"/>
        <pt x="223" y="459" on="0"/>
      </contour>
    </TTGlyph>
    <TTGlyph name="oacute" xMin="45" yMin="-7" xMax="354" yMax="773">
      <contour>
        <pt x="45" y="266" on="1"/>
        <pt x="45" y="266" on="0"/>
        <pt x="45" y="328" on="1"/>
        <pt x="45" y="390" on="0"/>
        <pt x="51" y="432" on="0"/>
        <pt x="59" y="473" on="0"/>
        <pt x="70" y="492" on="0"/>
        <pt x="87" y="518" on="0"/>
        <pt x="109" y="528" on="0"/>
        <pt x="124" y="534" on="1"/>
        <pt x="149" y="544" on="0"/>
        <pt x="245" y="544" on="0"/>
        <pt x="304" y="521" on="0"/>
        <pt x="337" y="492" on="0"/>
        <pt x="351" y="409" on="0"/>
        <pt x="354" y="345" on="0"/>
        <pt x="354" y="290" on="1"/>
        <pt x="354" y="215" on="1"/>
        <pt x="354" y="151" on="0"/>
        <pt x="348" y="109" on="0"/>
        <pt x="340" y="67" on="0"/>
        <pt x="329" y="48" on="0"/>
        <pt x="312" y="21" on="0"/>
        <pt x="289" y="10" on="0"/>
        <pt x="274" y="4" on="1"/>
        <pt x="250" y="-7" on="0"/>
        <pt x="170" y="-7" on="0"/>
        <pt x="127" y="-1" on="0"/>
        <pt x="94" y="19" on="0"/>
        <pt x="72" y="37" on="0"/>
        <pt x="57" y="80" on="0"/>
        <pt x="49" y="110" on="0"/>
        <pt x="48" y="144" on="1"/>
        <pt x="45" y="201" on="0"/>
      </contour>
      <contour>
        <pt x="199" y="459" on="1"/>
        <pt x="154" y="459" on="0"/>
        <pt x="134" y="386" on="0"/>
        <pt x="134" y="207" on="0"/>
        <pt x="136" y="154" on="0"/>
        <pt x="148" y="95" on="0"/>
        <pt x="175" y="78" on="0"/>
        <pt x="199" y="78" on="1"/>
        <pt x="244" y="78" on="0"/>
        <pt x="264" y="154" on="0"/>
        <pt x="264" y="334" on="0"/>
        <pt x="262" y="386" on="0"/>
        <pt x="250" y="442" on="0"/>
        <pt x="223" y="459" on="0"/>
      </contour>
      <contour>
        <pt x="332" y="745" on="1"/>
        <pt x="351" y="727" on="1"/>
        <pt x="219" y="595" on="1"/>
        <pt x="163" y="653" on="1"/>
        <pt x="236" y="736" on="1"/>
        <pt x="262" y="762" on="0"/>
        <pt x="281" y="773" on="0"/>
        <pt x="304" y="773" on="0"/>
      </contour>
    </TTGlyph>
    <TTGlyph name="ocircumflex" xMin="45" yMin="-7" xMax="354" yMax="777">
      <component glyphName="o" x="0" y="0" flags="0x1004"/>
      <component glyphName="circumflex" x="21" y="45" flags="0x1004"/>
    </TTGlyph>
    <TTGlyph name="odieresis" xMin="45" yMin="-7" xMax="354" yMax="728">
      <contour>
        <pt x="45" y="266" on="1"/>
        <pt x="45" y="266" on="0"/>
        <pt x="45" y="328" on="1"/>
        <pt x="45" y="390" on="0"/>
        <pt x="51" y="432" on="0"/>
        <pt x="59" y="473" on="0"/>
        <pt x="70" y="492" on="0"/>
        <pt x="87" y="518" on="0"/>
        <pt x="109" y="528" on="0"/>
        <pt x="124" y="534" on="1"/>
        <pt x="149" y="544" on="0"/>
        <pt x="245" y="544" on="0"/>
        <pt x="304" y="521" on="0"/>
        <pt x="337" y="492" on="0"/>
        <pt x="351" y="409" on="0"/>
        <pt x="354" y="345" on="0"/>
        <pt x="354" y="290" on="1"/>
        <pt x="354" y="215" on="1"/>
        <pt x="354" y="151" on="0"/>
        <pt x="348" y="109" on="0"/>
        <pt x="340" y="67" on="0"/>
        <pt x="329" y="48" on="0"/>
        <pt x="312" y="21" on="0"/>
        <pt x="289" y="10" on="0"/>
        <pt x="274" y="4" on="1"/>
        <pt x="250" y="-7" on="0"/>
        <pt x="170" y="-7" on="0"/>
        <pt x="127" y="-1" on="0"/>
        <pt x="94" y="19" on="0"/>
        <pt x="72" y="37" on="0"/>
        <pt x="57" y="80" on="0"/>
        <pt x="49" y="110" on="0"/>
        <pt x="48" y="144" on="1"/>
        <pt x="45" y="201" on="0"/>
      </contour>
      <contour>
        <pt x="199" y="459" on="1"/>
        <pt x="154" y="459" on="0"/>
        <pt x="134" y="386" on="0"/>
        <pt x="134" y="207" on="0"/>
        <pt x="136" y="154" on="0"/>
        <pt x="148" y="95" on="0"/>
        <pt x="175" y="78" on="0"/>
        <pt x="199" y="78" on="1"/>
        <pt x="244" y="78" on="0"/>
        <pt x="264" y="154" on="0"/>
        <pt x="264" y="334" on="0"/>
        <pt x="262" y="386" on="0"/>
        <pt x="250" y="442" on="0"/>
        <pt x="223" y="459" on="0"/>
      </contour>
      <contour>
        <pt x="91" y="608" on="0"/>
        <pt x="54" y="645" on="0"/>
        <pt x="54" y="694" on="0"/>
        <pt x="90" y="728" on="0"/>
        <pt x="138" y="728" on="0"/>
        <pt x="174" y="694" on="0"/>
        <pt x="174" y="645" on="0"/>
        <pt x="138" y="608" on="0"/>
      </contour>
      <contour>
        <pt x="264" y="608" on="0"/>
        <pt x="227" y="645" on="0"/>
        <pt x="227" y="694" on="0"/>
        <pt x="263" y="728" on="0"/>
        <pt x="312" y="728" on="0"/>
        <pt x="348" y="694" on="0"/>
        <pt x="348" y="645" on="0"/>
        <pt x="312" y="608" on="0"/>
      </contour>
    </TTGlyph>
    <TTGlyph name="oe" xMin="42" yMin="-7" xMax="572" yMax="544">
      <contour>
        <pt x="347" y="155" on="0"/>
        <pt x="373" y="78" on="0"/>
        <pt x="468" y="78" on="0"/>
        <pt x="568" y="88" on="1"/>
        <pt x="568" y="10" on="1"/>
        <pt x="553" y="8" on="0"/>
        <pt x="522" y="3" on="1"/>
        <pt x="460" y="-7" on="0"/>
        <pt x="421" y="-7" on="1"/>
        <pt x="343" y="-7" on="0"/>
        <pt x="305" y="26" on="1"/>
        <pt x="272" y="-7" on="0"/>
        <pt x="196" y="-7" on="1"/>
        <pt x="134" y="-7" on="0"/>
        <pt x="91" y="19" on="0"/>
        <pt x="69" y="37" on="0"/>
        <pt x="54" y="80" on="0"/>
        <pt x="46" y="110" on="0"/>
        <pt x="44" y="144" on="1"/>
        <pt x="42" y="201" on="0"/>
        <pt x="42" y="255" on="1"/>
        <pt x="42" y="328" on="1"/>
        <pt x="42" y="390" on="0"/>
        <pt x="48" y="432" on="0"/>
        <pt x="56" y="473" on="0"/>
        <pt x="67" y="492" on="0"/>
        <pt x="84" y="518" on="0"/>
        <pt x="106" y="528" on="0"/>
        <pt x="121" y="534" on="1"/>
        <pt x="146" y="544" on="0"/>
        <pt x="270" y="544" on="0"/>
        <pt x="305" y="515" on="1"/>
        <pt x="340" y="544" on="0"/>
        <pt x="421" y="544" on="1"/>
        <pt x="477" y="544" on="0"/>
        <pt x="517" y="522" on="0"/>
        <pt x="538" y="507" on="0"/>
        <pt x="551" y="472" on="0"/>
        <pt x="558" y="449" on="0"/>
        <pt x="560" y="422" on="1"/>
        <pt x="562" y="378" on="0"/>
        <pt x="562" y="328" on="1"/>
        <pt x="572" y="260" on="1"/>
        <pt x="347" y="255" on="1"/>
      </contour>
      <contour>
        <pt x="473" y="341" on="1"/>
        <pt x="473" y="410" on="0"/>
        <pt x="455" y="459" on="0"/>
        <pt x="376" y="459" on="0"/>
        <pt x="353" y="426" on="0"/>
        <pt x="353" y="372" on="1"/>
        <pt x="343" y="341" on="1"/>
      </contour>
      <contour>
        <pt x="241" y="78" on="0"/>
        <pt x="261" y="154" on="0"/>
        <pt x="261" y="334" on="0"/>
        <pt x="259" y="386" on="0"/>
        <pt x="247" y="442" on="0"/>
        <pt x="220" y="459" on="0"/>
        <pt x="196" y="459" on="1"/>
        <pt x="151" y="459" on="0"/>
        <pt x="131" y="386" on="0"/>
        <pt x="131" y="207" on="0"/>
        <pt x="133" y="154" on="0"/>
        <pt x="145" y="95" on="0"/>
        <pt x="172" y="78" on="0"/>
        <pt x="196" y="78" on="1"/>
      </contour>
    </TTGlyph>
    <TTGlyph name="ogonek" xMin="25" yMin="-187" xMax="235" yMax="34">
      <contour>
        <pt x="25" y="-95" on="1"/>
        <pt x="25" y="-61" on="1"/>
        <pt x="70" y="34" on="1"/>
        <pt x="157" y="34" on="1"/>
        <pt x="109" y="-73" on="1"/>
        <pt x="235" y="-187" on="1"/>
        <pt x="124" y="-187" on="1"/>
      </contour>
    </TTGlyph>
    <TTGlyph name="ograve" xMin="45" yMin="-7" xMax="354" yMax="777">
      <contour>
        <pt x="45" y="266" on="1"/>
        <pt x="45" y="266" on="0"/>
        <pt x="45" y="328" on="1"/>
        <pt x="45" y="390" on="0"/>
        <pt x="51" y="432" on="0"/>
        <pt x="59" y="473" on="0"/>
        <pt x="70" y="492" on="0"/>
        <pt x="87" y="518" on="0"/>
        <pt x="109" y="528" on="0"/>
        <pt x="124" y="534" on="1"/>
        <pt x="149" y="544" on="0"/>
        <pt x="245" y="544" on="0"/>
        <pt x="304" y="521" on="0"/>
        <pt x="337" y="492" on="0"/>
        <pt x="351" y="409" on="0"/>
        <pt x="354" y="345" on="0"/>
        <pt x="354" y="290" on="1"/>
        <pt x="354" y="215" on="1"/>
        <pt x="354" y="151" on="0"/>
        <pt x="348" y="109" on="0"/>
        <pt x="340" y="67" on="0"/>
        <pt x="329" y="48" on="0"/>
        <pt x="312" y="21" on="0"/>
        <pt x="289" y="10" on="0"/>
        <pt x="274" y="4" on="1"/>
        <pt x="250" y="-7" on="0"/>
        <pt x="170" y="-7" on="0"/>
        <pt x="127" y="-1" on="0"/>
        <pt x="94" y="19" on="0"/>
        <pt x="72" y="37" on="0"/>
        <pt x="57" y="80" on="0"/>
        <pt x="49" y="110" on="0"/>
        <pt x="48" y="144" on="1"/>
        <pt x="45" y="201" on="0"/>
      </contour>
      <contour>
        <pt x="199" y="459" on="1"/>
        <pt x="154" y="459" on="0"/>
        <pt x="134" y="386" on="0"/>
        <pt x="134" y="207" on="0"/>
        <pt x="136" y="154" on="0"/>
        <pt x="148" y="95" on="0"/>
        <pt x="175" y="78" on="0"/>
        <pt x="199" y="78" on="1"/>
        <pt x="244" y="78" on="0"/>
        <pt x="264" y="154" on="0"/>
        <pt x="264" y="334" on="0"/>
        <pt x="262" y="386" on="0"/>
        <pt x="250" y="442" on="0"/>
        <pt x="223" y="459" on="0"/>
      </contour>
      <contour>
        <pt x="132" y="758" on="1"/>
        <pt x="151" y="777" on="0"/>
        <pt x="174" y="777" on="0"/>
        <pt x="182" y="772" on="1"/>
        <pt x="194" y="766" on="0"/>
        <pt x="218" y="740" on="1"/>
        <pt x="293" y="657" on="1"/>
        <pt x="237" y="599" on="1"/>
        <pt x="105" y="731" on="1"/>
      </contour>
    </TTGlyph>
    <TTGlyph name="one" xMin="60" yMin="0" xMax="373" yMax="708">
      <contour>
        <pt x="265" y="648" on="1"/>
        <pt x="265" y="103" on="1"/>
        <pt x="259" y="89" on="1"/>
        <pt x="373" y="89" on="1"/>
        <pt x="373" y="0" on="1"/>
        <pt x="60" y="0" on="1"/>
        <pt x="60" y="64" on="0"/>
        <pt x="79" y="89" on="0"/>
        <pt x="132" y="89" on="1"/>
        <pt x="178" y="89" on="1"/>
        <pt x="172" y="103" on="1"/>
        <pt x="172" y="622" on="1"/>
        <pt x="112" y="612" on="1"/>
        <pt x="112" y="697" on="1"/>
        <pt x="187" y="708" on="1"/>
        <pt x="194" y="708" on="1"/>
        <pt x="246" y="708" on="0"/>
        <pt x="265" y="693" on="0"/>
      </contour>
    </TTGlyph>
    <TTGlyph name="onehalf" xMin="50" yMin="0" xMax="262" yMax="727">
      <contour>
        <pt x="139" y="99" on="1"/>
        <pt x="139" y="58" on="1"/>
        <pt x="236" y="58" on="1"/>
        <pt x="236" y="0" on="1"/>
        <pt x="77" y="0" on="1"/>
        <pt x="77" y="102" on="1"/>
        <pt x="77" y="123" on="0"/>
        <pt x="106" y="163" on="0"/>
        <pt x="124" y="176" on="1"/>
        <pt x="171" y="212" on="0"/>
        <pt x="171" y="233" on="1"/>
        <pt x="171" y="251" on="0"/>
        <pt x="157" y="260" on="0"/>
        <pt x="145" y="260" on="1"/>
        <pt x="115" y="260" on="1"/>
        <pt x="86" y="260" on="0"/>
        <pt x="76" y="273" on="0"/>
        <pt x="76" y="314" on="1"/>
        <pt x="147" y="319" on="1"/>
        <pt x="204" y="318" on="0"/>
        <pt x="234" y="277" on="0"/>
        <pt x="234" y="230" on="1"/>
        <pt x="234" y="207" on="0"/>
        <pt x="204" y="165" on="0"/>
        <pt x="186" y="152" on="1"/>
        <pt x="139" y="119" on="0"/>
      </contour>
      <contour>
        <pt x="155" y="727" on="1"/>
        <pt x="184" y="727" on="0"/>
        <pt x="194" y="715" on="0"/>
        <pt x="194" y="678" on="1"/>
        <pt x="194" y="431" on="1"/>
        <pt x="131" y="431" on="1"/>
        <pt x="131" y="665" on="1"/>
        <pt x="88" y="654" on="1"/>
        <pt x="88" y="715" on="1"/>
        <pt x="126" y="727" on="1"/>
      </contour>
      <contour>
        <pt x="50" y="400" on="1"/>
        <pt x="262" y="400" on="1"/>
        <pt x="262" y="345" on="1"/>
        <pt x="50" y="345" on="1"/>
      </contour>
    </TTGlyph>
    <TTGlyph name="onequarter" xMin="9" yMin="0" xMax="252" yMax="727">
      <contour>
        <pt x="142" y="727" on="1"/>
        <pt x="171" y="727" on="0"/>
        <pt x="181" y="715" on="0"/>
        <pt x="181" y="678" on="1"/>
        <pt x="181" y="431" on="1"/>
        <pt x="118" y="431" on="1"/>
        <pt x="118" y="665" on="1"/>
        <pt x="75" y="654" on="1"/>
        <pt x="75" y="715" on="1"/>
        <pt x="113" y="727" on="1"/>
      </contour>
      <contour>
        <pt x="40" y="400" on="1"/>
        <pt x="252" y="400" on="1"/>
        <pt x="252" y="345" on="1"/>
        <pt x="40" y="345" on="1"/>
      </contour>
      <contour>
        <pt x="206" y="125" on="1"/>
        <pt x="206" y="73" on="1"/>
        <pt x="177" y="73" on="1"/>
        <pt x="184" y="50" on="1"/>
        <pt x="184" y="0" on="1"/>
        <pt x="129" y="0" on="1"/>
        <pt x="129" y="50" on="1"/>
        <pt x="136" y="73" on="1"/>
        <pt x="9" y="73" on="1"/>
        <pt x="124" y="313" on="1"/>
        <pt x="184" y="313" on="1"/>
        <pt x="184" y="144" on="1"/>
        <pt x="177" y="125" on="1"/>
      </contour>
      <contour>
        <pt x="136" y="219" on="1"/>
        <pt x="126" y="219" on="1"/>
        <pt x="92" y="125" on="1"/>
        <pt x="143" y="125" on="1"/>
        <pt x="136" y="144" on="1"/>
      </contour>
    </TTGlyph>
    <TTGlyph name="onesuperior" xMin="47" yMin="411" xMax="153" yMax="727">
      <contour>
        <pt x="114" y="727" on="1"/>
        <pt x="143" y="727" on="0"/>
        <pt x="153" y="715" on="0"/>
        <pt x="153" y="678" on="1"/>
        <pt x="153" y="411" on="1"/>
        <pt x="90" y="411" on="1"/>
        <pt x="90" y="665" on="1"/>
        <pt x="47" y="654" on="1"/>
        <pt x="47" y="715" on="1"/>
        <pt x="85" y="727" on="1"/>
      </contour>
    </TTGlyph>
</ttFont>
